<svg data-v-fde0c5aa="" xmlns="http://www.w3.org/2000/svg" viewBox="0 0 300 300" class="font"><!----><defs data-v-fde0c5aa=""><!----></defs><rect data-v-fde0c5aa="" fill="transparent" x="0" y="0" width="300px" height="300px" class="logo-background-square"></rect><defs data-v-fde0c5aa=""><linearGradient data-v-fde0c5aa="" gradientTransform="rotate(25)" id="7a3ac48a-7293-46c4-98ad-7c5bdadd2914" x1="0%" y1="0%" x2="100%" y2="0%"><stop data-v-fde0c5aa="" offset="0%" stop-color="#0076DD" stop-opacity="1"></stop><stop data-v-fde0c5aa="" offset="100%" stop-color="#E600E9" stop-opacity="1"></stop></linearGradient></defs><g data-v-fde0c5aa="" id="a011b24f-ae2e-41f2-9a60-93428de009b9" fill="url(#7a3ac48a-7293-46c4-98ad-7c5bdadd2914)" transform="matrix(4.219409332092886,0,0,4.219409332092886,30.801687374361546,100.14768051185716)"><path d="M2.35 14.45L2.35 14.45L2.35 14.45Q2.56 13.99 2.86 13.26L2.86 13.26L2.86 13.26Q3.15 12.53 3.47 11.68L3.47 11.68L3.47 11.68Q3.79 10.84 4.13 9.95L4.13 9.95L4.13 9.95Q4.47 9.06 4.76 8.26L4.76 8.26L4.76 8.26Q5.05 7.46 5.27 6.83L5.27 6.83L5.27 6.83Q5.49 6.20 5.59 5.87L5.59 5.87L5.59 5.87Q4.70 6.23 4.07 6.97L4.07 6.97L4.07 6.97Q3.44 7.71 3.12 8.83L3.12 8.83L3.12 8.83Q2.80 8.72 2.53 8.43L2.53 8.43L2.53 8.43Q2.27 8.15 2.18 7.71L2.18 7.71L2.18 7.71Q2.32 7.07 2.71 6.54L2.71 6.54L2.71 6.54Q3.09 6.01 3.68 5.63L3.68 5.63L3.68 5.63Q4.27 5.25 5.04 5.05L5.04 5.05L5.04 5.05Q5.81 4.84 6.69 4.84L6.69 4.84L6.69 4.84Q7.81 4.84 8.75 5.17L8.75 5.17L8.75 5.17Q9.69 5.50 10.36 6.09L10.36 6.09L10.36 6.09Q11.03 6.68 11.41 7.50L11.41 7.50L11.41 7.50Q11.79 8.33 11.79 9.34L11.79 9.34L11.79 9.34Q11.79 10.71 11.28 11.96L11.28 11.96L11.28 11.96Q10.78 13.20 9.92 14.15L9.92 14.15L9.92 14.15Q9.06 15.11 7.92 15.67L7.92 15.67L7.92 15.67Q6.79 16.24 5.54 16.24L5.54 16.24L5.54 16.24Q4.40 16.24 3.58 15.79L3.58 15.79L3.58 15.79Q2.76 15.33 2.35 14.45ZM7.29 5.54L7.29 5.54L7.29 5.54Q6.59 5.54 5.96 5.74L5.96 5.74L5.96 5.74Q6.58 5.96 6.99 6.21L6.99 6.21L6.99 6.21Q7.39 6.45 7.55 6.59L7.55 6.59L7.55 6.59Q7.43 6.75 7.22 7.14L7.22 7.14L7.22 7.14Q7 7.53 6.71 8.09L6.71 8.09L6.71 8.09Q6.43 8.65 6.10 9.32L6.10 9.32L6.10 9.32Q5.78 9.98 5.47 10.68L5.47 10.68L5.47 10.68Q4.68 12.46 4.32 13.48L4.32 13.48L4.32 13.48Q3.96 14.50 3.96 14.90L3.96 14.90L3.96 14.90Q4.16 14.97 4.44 14.99L4.44 14.99L4.44 14.99Q4.72 15.02 5.04 15.02L5.04 15.02L5.04 15.02Q6.17 15.02 7.19 14.50L7.19 14.50L7.19 14.50Q8.20 13.97 8.97 13.09L8.97 13.09L8.97 13.09Q9.73 12.21 10.17 11.04L10.17 11.04L10.17 11.04Q10.61 9.87 10.61 8.58L10.61 8.58L10.61 8.58Q10.61 7.14 9.72 6.34L9.72 6.34L9.72 6.34Q8.82 5.54 7.29 5.54ZM17.26 9.38L17.26 9.38L17.26 9.38Q17.21 10.25 16.95 10.87L16.95 10.87L16.95 10.87Q16.70 11.49 16.23 11.96L16.23 11.96L16.23 11.96Q15.76 12.43 15.09 12.81L15.09 12.81L15.09 12.81Q14.42 13.19 13.52 13.54L13.52 13.54L13.52 13.54Q13.52 13.62 13.52 13.71L13.52 13.71L13.52 13.71Q13.51 13.80 13.51 13.90L13.51 13.90L13.51 13.90Q13.51 14.08 13.54 14.28L13.54 14.28L13.54 14.28Q13.57 14.48 13.64 14.64L13.64 14.64L13.64 14.64Q13.71 14.81 13.83 14.92L13.83 14.92L13.83 14.92Q13.96 15.02 14.15 15.02L14.15 15.02L14.15 15.02Q14.53 15.02 14.90 14.85L14.90 14.85L14.90 14.85Q15.26 14.69 15.59 14.44L15.59 14.44L15.59 14.44Q15.92 14.20 16.20 13.91L16.20 13.91L16.20 13.91Q16.49 13.62 16.72 13.38L16.72 13.38L16.72 13.38Q16.86 13.51 16.95 13.62L16.95 13.62L16.95 13.62Q16.32 14.46 15.57 15.02L15.57 15.02L15.57 15.02Q14.83 15.57 14.15 15.72L14.15 15.72L14.15 15.72Q13.19 15.61 12.65 15.02L12.65 15.02L12.65 15.02Q12.11 14.42 12.11 13.58L12.11 13.58L12.11 13.58Q12.11 13.01 12.27 12.41L12.27 12.41L12.27 12.41Q12.43 11.82 12.72 11.26L12.72 11.26L12.72 11.26Q13.01 10.71 13.39 10.22L13.39 10.22L13.39 10.22Q13.78 9.73 14.22 9.37L14.22 9.37L14.22 9.37Q14.66 9.00 15.13 8.79L15.13 8.79L15.13 8.79Q15.60 8.58 16.06 8.58L16.06 8.58L16.06 8.58Q16.70 8.67 17.26 9.38ZM16.30 9.84L16.30 9.84L16.30 9.84Q15.92 9.90 15.51 10.15L15.51 10.15L15.51 10.15Q15.11 10.40 14.75 10.82L14.75 10.82L14.75 10.82Q14.39 11.24 14.10 11.80L14.10 11.80L14.10 11.80Q13.80 12.36 13.64 13.01L13.64 13.01L13.64 13.01Q14.76 12.45 15.50 11.63L15.50 11.63L15.50 11.63Q16.24 10.81 16.30 9.84ZM22.74 9.60L22.74 9.60L22.74 9.60Q22.72 9.87 22.64 10.16L22.64 10.16L22.64 10.16Q22.57 10.44 22.46 10.68L22.46 10.68L22.46 10.68Q22.34 10.91 22.22 11.06L22.22 11.06L22.22 11.06Q22.09 11.21 21.98 11.21L21.98 11.21L21.98 11.21Q21.83 11.20 21.80 11.00L21.80 11.00L21.80 11.00Q21.80 10.96 21.83 10.87L21.83 10.87L21.83 10.87Q21.87 10.78 21.91 10.67L21.91 10.67L21.91 10.67Q21.95 10.56 21.99 10.44L21.99 10.44L21.99 10.44Q22.02 10.33 22.02 10.25L22.02 10.25L22.02 10.25Q22.02 10.05 21.93 9.92L21.93 9.92L21.93 9.92Q21.84 9.79 21.69 9.79L21.69 9.79L21.69 9.79Q21.13 9.79 20.83 10.49L20.83 10.49L20.83 10.49Q20.54 11.19 20.54 12.54L20.54 12.54L20.54 12.54Q20.54 12.68 20.55 12.71L20.55 12.71L20.55 12.71Q20.85 12.70 21.08 12.69L21.08 12.69L21.08 12.69Q21.31 12.68 21.53 12.68L21.53 12.68L21.53 12.68Q21.55 12.71 21.55 12.80L21.55 12.80L21.55 12.80Q21.55 12.92 21.49 12.98L21.49 12.98L21.49 12.98Q21.17 13.05 20.98 13.10L20.98 13.10L20.98 13.10Q20.79 13.15 20.69 13.19L20.69 13.19L20.69 13.19Q20.59 13.23 20.57 13.28L20.57 13.28L20.57 13.28Q20.55 13.33 20.55 13.41L20.55 13.41L20.55 13.41Q20.55 13.52 20.56 13.64L20.56 13.64L20.56 13.64Q20.57 13.75 20.57 13.92L20.57 13.92L20.57 13.92Q20.57 15.09 19.93 15.81L19.93 15.81L19.93 15.81Q19.29 16.52 18.16 16.63L18.16 16.63L18.16 16.63Q17.96 16.62 17.75 16.52L17.75 16.52L17.75 16.52Q17.54 16.42 17.35 16.27L17.35 16.27L17.35 16.27Q17.16 16.11 17.02 15.93L17.02 15.93L17.02 15.93Q16.88 15.74 16.83 15.54L16.83 15.54L16.83 15.54Q16.83 15.01 17.05 14.53L17.05 14.53L17.05 14.53Q17.28 14.04 17.66 13.67L17.66 13.67L17.66 13.67Q18.05 13.30 18.57 13.07L18.57 13.07L18.57 13.07Q19.10 12.84 19.71 12.80L19.71 12.80L19.71 12.80Q19.71 12.45 19.64 12.11L19.64 12.11L19.64 12.11Q19.57 11.77 19.49 11.46L19.49 11.46L19.49 11.46Q19.42 11.14 19.35 10.84L19.35 10.84L19.35 10.84Q19.28 10.54 19.28 10.25L19.28 10.25L19.28 10.25Q19.28 9.87 19.43 9.50L19.43 9.50L19.43 9.50Q19.59 9.13 19.84 8.81L19.84 8.81L19.84 8.81Q20.09 8.50 20.43 8.27L20.43 8.27L20.43 8.27Q20.76 8.05 21.13 7.97L21.13 7.97L21.13 7.97Q21.28 8.01 21.54 8.21L21.54 8.21L21.54 8.21Q21.80 8.41 22.05 8.67L22.05 8.67L22.05 8.67Q22.30 8.92 22.50 9.18L22.50 9.18L22.50 9.18Q22.69 9.44 22.74 9.60ZM18.12 15.99L18.12 15.99L18.12 15.99Q18.45 15.85 18.75 15.58L18.75 15.58L18.75 15.58Q19.05 15.32 19.28 14.98L19.28 14.98L19.28 14.98Q19.50 14.64 19.63 14.27L19.63 14.27L19.63 14.27Q19.77 13.89 19.77 13.52L19.77 13.52L19.77 13.52Q19.49 13.57 19.15 13.78L19.15 13.78L19.15 13.78Q18.82 14 18.52 14.30L18.52 14.30L18.52 14.30Q18.23 14.60 18.03 14.92L18.03 14.92L18.03 14.92Q17.84 15.25 17.84 15.48L17.84 15.48L17.84 15.48Q17.84 15.79 18.12 15.99ZM22.83 12.71L22.83 12.71L22.83 12.71Q22.83 11.91 23.16 11.16L23.16 11.16L23.16 11.16Q23.49 10.42 24.03 9.84L24.03 9.84L24.03 9.84Q24.57 9.25 25.26 8.90L25.26 8.90L25.26 8.90Q25.96 8.54 26.70 8.54L26.70 8.54L26.70 8.54Q27.43 8.54 27.82 8.90L27.82 8.90L27.82 8.90Q28.21 9.27 28.21 9.94L28.21 9.94L28.21 9.94Q28.21 10.26 28.12 10.56L28.12 10.56L28.12 10.56Q28.03 10.86 27.88 11.10L27.88 11.10L27.88 11.10Q27.73 11.34 27.54 11.49L27.54 11.49L27.54 11.49Q27.34 11.63 27.15 11.63L27.15 11.63L27.15 11.63Q26.98 11.63 26.80 11.53L26.80 11.53L26.80 11.53Q26.63 11.42 26.52 11.26L26.52 11.26L26.52 11.26Q27.45 10.40 27.45 9.70L27.45 9.70L27.45 9.70Q27.45 9.30 27.13 9.30L27.13 9.30L27.13 9.30Q26.85 9.30 26.43 9.56L26.43 9.56L26.43 9.56Q26.01 9.83 25.62 10.26L25.62 10.26L25.62 10.26Q25.02 10.93 24.70 11.75L24.70 11.75L24.70 11.75Q24.39 12.57 24.39 13.47L24.39 13.47L24.39 13.47Q24.39 14.60 24.89 14.83L24.89 14.83L24.89 14.83Q25.10 14.80 25.38 14.70L25.38 14.70L25.38 14.70Q25.66 14.60 25.98 14.44L25.98 14.44L25.98 14.44Q26.31 14.28 26.65 14.07L26.65 14.07L26.65 14.07Q26.99 13.86 27.31 13.62L27.31 13.62L27.31 13.62Q27.37 13.66 27.41 13.75L27.41 13.75L27.41 13.75Q27.45 13.83 27.45 13.90L27.45 13.90L27.45 13.90Q27.22 14.20 26.91 14.48L26.91 14.48L26.91 14.48Q26.60 14.76 26.26 14.99L26.26 14.99L26.26 14.99Q25.93 15.22 25.61 15.38L25.61 15.38L25.61 15.38Q25.30 15.54 25.06 15.58L25.06 15.58L25.06 15.58Q24.60 15.54 24.19 15.29L24.19 15.29L24.19 15.29Q23.79 15.05 23.48 14.66L23.48 14.66L23.48 14.66Q23.18 14.27 23.01 13.76L23.01 13.76L23.01 13.76Q22.83 13.26 22.83 12.71ZM28.64 14.24L28.64 14.24L28.64 14.24Q28.64 14.11 28.66 13.92L28.66 13.92L28.66 13.92Q28.69 13.73 28.74 13.42L28.74 13.42L28.74 13.42Q28.80 13.10 28.89 12.66L28.89 12.66L28.89 12.66Q28.98 12.21 29.12 11.58L29.12 11.58L29.12 11.58Q29.15 11.44 29.25 11.13L29.25 11.13L29.25 11.13Q29.34 10.82 29.50 10.48L29.50 10.48L29.50 10.48Q29.67 10.14 29.90 9.81L29.90 9.81L29.90 9.81Q30.13 9.49 30.45 9.34L30.45 9.34L30.45 9.34Q30.69 9.39 31.08 9.63L31.08 9.63L31.08 9.63Q31.47 9.86 31.75 10.26L31.75 10.26L31.75 10.26Q31.43 10.63 31.21 10.99L31.21 10.99L31.21 10.99Q31.00 11.35 30.82 11.75L30.82 11.75L30.82 11.75Q30.65 12.14 30.50 12.56L30.50 12.56L30.50 12.56Q30.35 12.98 30.17 13.44L30.17 13.44L30.17 13.44Q30.02 13.83 29.89 14.25L29.89 14.25L29.89 14.25Q29.76 14.66 29.75 14.97L29.75 14.97L29.75 14.97Q29.75 15.22 29.74 15.32L29.74 15.32L29.74 15.32Q29.74 15.43 29.67 15.43L29.67 15.43L29.67 15.43Q29.61 15.43 29.44 15.36L29.44 15.36L29.44 15.36Q29.27 15.29 29.10 15.14L29.10 15.14L29.10 15.14Q28.92 14.99 28.78 14.77L28.78 14.77L28.78 14.77Q28.64 14.55 28.64 14.24ZM31.32 8.16L31.32 8.16L31.32 8.16Q31.32 8.08 31.36 7.91L31.36 7.91L31.36 7.91Q31.29 7.84 31.24 7.70L31.24 7.70L31.24 7.70Q31.19 7.56 31.19 7.45L31.19 7.45L31.19 7.45Q31.19 7.32 31.23 7.11L31.23 7.11L31.23 7.11Q31.26 6.89 31.32 6.64L31.32 6.64L31.32 6.64Q31.37 6.38 31.46 6.11L31.46 6.11L31.46 6.11Q31.54 5.84 31.63 5.61L31.63 5.61L31.63 5.61Q31.79 5.61 32.04 5.71L32.04 5.71L32.04 5.71Q32.28 5.80 32.54 5.94L32.54 5.94L32.54 5.94Q32.79 6.09 33.00 6.27L33.00 6.27L33.00 6.27Q33.21 6.44 33.32 6.59L33.32 6.59L33.32 6.59Q33.17 6.75 32.91 7.02L32.91 7.02L32.91 7.02Q32.66 7.29 32.42 7.59L32.42 7.59L32.42 7.59Q32.19 7.90 31.99 8.16L31.99 8.16L31.99 8.16Q31.79 8.43 31.74 8.54L31.74 8.54L31.74 8.54Q31.57 8.51 31.44 8.39L31.44 8.39L31.44 8.39Q31.32 8.27 31.32 8.16ZM32.61 19.22L32.61 19.22L32.61 19.22Q32.26 19.08 32.19 18.69L32.19 18.69L32.19 18.69Q32.13 18.31 31.71 18.07L31.71 18.07L31.71 18.07Q31.82 17.36 31.96 16.63L31.96 16.63L31.96 16.63Q32.10 15.90 32.32 14.97L32.32 14.97L32.32 14.97Q32.54 14.04 32.87 12.80L32.87 12.80L32.87 12.80Q33.19 11.56 33.70 9.80L33.70 9.80L33.70 9.80Q33.24 9.80 32.97 9.81L32.97 9.81L32.97 9.81Q32.70 9.83 32.45 9.87L32.45 9.87L32.45 9.87Q32.40 9.81 32.36 9.72L32.36 9.72L32.36 9.72Q32.33 9.62 32.33 9.53L32.33 9.53L32.33 9.53Q32.47 9.48 32.90 9.39L32.90 9.39L32.90 9.39Q33.33 9.30 33.85 9.23L33.85 9.23L33.85 9.23Q34.19 8.16 34.62 7.32L34.62 7.32L34.62 7.32Q35.06 6.47 35.56 5.87L35.56 5.87L35.56 5.87Q36.06 5.26 36.62 4.94L36.62 4.94L36.62 4.94Q37.18 4.62 37.76 4.62L37.76 4.62L37.76 4.62Q37.93 4.62 38.08 4.64L38.08 4.64L38.08 4.64Q38.23 4.66 38.32 4.66L38.32 4.66L38.32 4.66Q38.44 4.56 38.65 4.49L38.65 4.49L38.65 4.49Q38.86 4.41 39.02 4.41L39.02 4.41L39.02 4.41Q39.19 4.41 39.45 4.59L39.45 4.59L39.45 4.59Q39.34 4.79 39.21 5.12L39.21 5.12L39.21 5.12Q39.09 5.46 39.00 5.78L39.00 5.78L39.00 5.78Q38.65 6.82 38.26 7.13L38.26 7.13L38.26 7.13Q38.11 7.13 38.09 6.72L38.09 6.72L38.09 6.72Q38.08 6.43 38.01 6.15L38.01 6.15L38.01 6.15Q37.95 6.02 37.93 5.92L37.93 5.92L37.93 5.92Q37.91 5.82 37.91 5.67L37.91 5.67L37.91 5.67Q37.91 5.59 37.93 5.47L37.93 5.47L37.93 5.47Q37.94 5.35 37.98 5.07L37.98 5.07L37.98 5.07Q37.74 5.07 37.46 5.36L37.46 5.36L37.46 5.36Q37.17 5.66 36.86 6.20L36.86 6.20L36.86 6.20Q36.54 6.73 36.22 7.48L36.22 7.48L36.22 7.48Q35.90 8.22 35.60 9.11L35.60 9.11L36.78 9.07L36.78 9.07Q36.85 9.14 36.90 9.39L36.90 9.39L36.90 9.39Q36.95 9.63 36.96 9.90L36.96 9.90L35.42 9.81L35.42 9.81Q34.89 11.40 34.43 12.84L34.43 12.84L34.43 12.84Q33.96 14.28 33.60 15.50L33.60 15.50L33.60 15.50Q33.24 16.72 32.98 17.68L32.98 17.68L32.98 17.68Q32.72 18.63 32.61 19.22ZM36.29 14.90L36.29 14.90L36.29 14.90Q36.36 14.49 36.53 13.82L36.53 13.82L36.53 13.82Q36.71 13.16 36.95 12.41L36.95 12.41L36.95 12.41Q37.18 11.66 37.45 10.91L37.45 10.91L37.45 10.91Q37.72 10.15 37.97 9.55L37.97 9.55L37.97 9.55Q38.15 9.11 38.29 8.87L38.29 8.87L38.29 8.87Q38.43 8.62 38.60 8.46L38.60 8.46L38.60 8.46Q38.79 8.48 39.00 8.55L39.00 8.55L39.00 8.55Q39.21 8.62 39.41 8.72L39.41 8.72L39.41 8.72Q39.61 8.82 39.76 8.93L39.76 8.93L39.76 8.93Q39.91 9.03 40.00 9.13L40.00 9.13L40.00 9.13Q39.62 9.58 39.33 10.15L39.33 10.15L39.33 10.15Q39.05 10.72 38.75 11.62L38.75 11.62L38.75 11.62Q39.51 10.95 40.09 10.33L40.09 10.33L40.09 10.33Q40.67 9.72 41.17 8.96L41.17 8.96L41.17 8.96Q41.26 8.89 41.47 8.89L41.47 8.89L41.47 8.89Q41.66 8.89 41.85 8.95L41.85 8.95L41.85 8.95Q42.03 9.02 42.10 9.13L42.10 9.13L42.10 9.13Q41.85 9.80 41.85 10.46L41.85 10.46L41.85 10.46Q41.85 11.07 42.03 11.38L42.03 11.38L42.03 11.38Q42.01 11.47 41.84 11.70L41.84 11.70L41.84 11.70Q41.66 11.94 41.45 12.15L41.45 12.15L41.45 12.15Q41.08 11.96 40.78 11.61L40.78 11.61L40.78 11.61Q40.49 11.27 40.35 10.86L40.35 10.86L40.35 10.86Q39.69 11.33 39.23 11.77L39.23 11.77L39.23 11.77Q38.77 12.21 38.44 12.75L38.44 12.75L38.44 12.75Q38.11 13.29 37.88 13.99L37.88 13.99L37.88 13.99Q37.65 14.69 37.44 15.65L37.44 15.65L37.44 15.65Q37.31 15.64 37.14 15.56L37.14 15.56L37.14 15.56Q36.96 15.48 36.79 15.37L36.79 15.37L36.79 15.37Q36.61 15.26 36.47 15.13L36.47 15.13L36.47 15.13Q36.33 15.01 36.29 14.90ZM47.10 9.52L47.10 9.52L47.10 9.52Q47.24 9.52 47.43 9.57L47.43 9.57L47.43 9.57Q47.61 9.62 47.77 9.70L47.77 9.70L47.77 9.70Q47.92 9.77 48.03 9.86L48.03 9.86L48.03 9.86Q48.13 9.94 48.13 10.01L48.13 10.01L48.13 10.01Q47.85 10.60 47.61 11.19L47.61 11.19L47.61 11.19Q47.38 11.79 47.21 12.33L47.21 12.33L47.21 12.33Q47.04 12.88 46.95 13.36L46.95 13.36L46.95 13.36Q46.86 13.83 46.86 14.18L46.86 14.18L46.86 14.18Q46.86 14.57 46.94 14.83L46.94 14.83L46.94 14.83Q47.03 15.09 47.22 15.20L47.22 15.20L47.22 15.20Q47.05 15.32 46.79 15.39L46.79 15.39L46.79 15.39Q46.52 15.46 46.31 15.46L46.31 15.46L46.31 15.46Q45.56 15.46 45.56 14.42L45.56 14.42L45.56 14.42Q45.56 13.62 46.09 12.24L46.09 12.24L46.09 12.24Q45.81 12.88 45.44 13.45L45.44 13.45L45.44 13.45Q45.08 14.01 44.70 14.45L44.70 14.45L44.70 14.45Q44.32 14.88 43.94 15.15L43.94 15.15L43.94 15.15Q43.55 15.43 43.23 15.48L43.23 15.48L43.23 15.48Q42.71 15.46 42.39 14.99L42.39 14.99L42.39 14.99Q42.07 14.52 42.07 13.79L42.07 13.79L42.07 13.79Q42.07 13.01 42.41 12.14L42.41 12.14L42.41 12.14Q42.74 11.27 43.27 10.53L43.27 10.53L43.27 10.53Q43.79 9.79 44.41 9.29L44.41 9.29L44.41 9.29Q45.02 8.79 45.60 8.76L45.60 8.76L45.60 8.76Q45.74 8.81 45.91 8.93L45.91 8.93L45.91 8.93Q46.09 9.06 46.25 9.23L46.25 9.23L46.25 9.23Q46.41 9.39 46.52 9.57L46.52 9.57L46.52 9.57Q46.63 9.74 46.65 9.87L46.65 9.87L46.65 9.87Q46.09 9.95 45.49 10.42L45.49 10.42L45.49 10.42Q44.90 10.88 44.42 11.53L44.42 11.53L44.42 11.53Q43.93 12.18 43.62 12.92L43.62 12.92L43.62 12.92Q43.32 13.66 43.32 14.31L43.32 14.31L43.32 14.31Q43.32 14.57 43.51 14.64L43.51 14.64L43.51 14.64Q43.92 14.56 44.45 13.95L44.45 13.95L44.45 13.95Q44.98 13.34 45.74 12.07L45.74 12.07L45.74 12.07Q45.88 11.82 46.05 11.51L46.05 11.51L46.05 11.51Q46.23 11.20 46.41 10.86L46.41 10.86L46.41 10.86Q46.59 10.53 46.77 10.18L46.77 10.18L46.77 10.18Q46.94 9.84 47.10 9.52ZM48.51 14.90L48.51 14.90L48.51 14.90Q48.58 14.49 48.76 13.82L48.76 13.82L48.76 13.82Q48.93 13.16 49.17 12.41L49.17 12.41L49.17 12.41Q49.41 11.66 49.67 10.91L49.67 10.91L49.67 10.91Q49.94 10.15 50.19 9.55L50.19 9.55L50.19 9.55Q50.37 9.11 50.51 8.87L50.51 8.87L50.51 8.87Q50.65 8.62 50.82 8.46L50.82 8.46L50.82 8.46Q51.02 8.48 51.23 8.55L51.23 8.55L51.23 8.55Q51.44 8.62 51.63 8.72L51.63 8.72L51.63 8.72Q51.83 8.82 51.98 8.93L51.98 8.93L51.98 8.93Q52.14 9.03 52.22 9.13L52.22 9.13L52.22 9.13Q51.84 9.58 51.56 10.15L51.56 10.15L51.56 10.15Q51.27 10.72 50.97 11.62L50.97 11.62L50.97 11.62Q51.73 10.95 52.31 10.33L52.31 10.33L52.31 10.33Q52.89 9.72 53.40 8.96L53.40 8.96L53.40 8.96Q53.48 8.89 53.69 8.89L53.69 8.89L53.69 8.89Q53.89 8.89 54.07 8.95L54.07 8.95L54.07 8.95Q54.25 9.02 54.32 9.13L54.32 9.13L54.32 9.13Q54.07 9.80 54.07 10.46L54.07 10.46L54.07 10.46Q54.07 11.07 54.25 11.38L54.25 11.38L54.25 11.38Q54.24 11.47 54.06 11.70L54.06 11.70L54.06 11.70Q53.89 11.94 53.68 12.15L53.68 12.15L53.68 12.15Q53.30 11.96 53.00 11.61L53.00 11.61L53.00 11.61Q52.71 11.27 52.57 10.86L52.57 10.86L52.57 10.86Q51.91 11.33 51.45 11.77L51.45 11.77L51.45 11.77Q50.99 12.21 50.66 12.75L50.66 12.75L50.66 12.75Q50.33 13.29 50.10 13.99L50.10 13.99L50.10 13.99Q49.87 14.69 49.66 15.65L49.66 15.65L49.66 15.65Q49.53 15.64 49.36 15.56L49.36 15.56L49.36 15.56Q49.18 15.48 49.01 15.37L49.01 15.37L49.01 15.37Q48.83 15.26 48.69 15.13L48.69 15.13L48.69 15.13Q48.55 15.01 48.51 14.90Z"></path></g><!----><!----></svg>