<svg data-v-423bf9ae="" xmlns="http://www.w3.org/2000/svg" viewBox="0 0 135.43550720858036 179" class="iconAboveSlogan"><!----><!----><!----><g data-v-423bf9ae="" id="7b816b55-2b17-4f12-b861-36083c424788" fill="#000000" transform="matrix(4.051316824013275,0,0,4.051316824013275,-8.062119520280717,85.13369056326039)"><path d="M1.99 12.43L1.99 12.43L1.99 12.43Q1.99 11.45 2.22 10.51L2.22 10.51L2.22 10.51Q2.45 9.56 2.87 8.71L2.87 8.71L2.87 8.71Q3.29 7.87 3.87 7.16L3.87 7.16L3.87 7.16Q4.45 6.45 5.15 5.94L5.15 5.94L5.15 5.94Q5.84 5.42 6.62 5.13L6.62 5.13L6.62 5.13Q7.41 4.84 8.23 4.84L8.23 4.84L8.23 4.84Q9.20 4.84 9.74 5.25L9.74 5.25L9.74 5.25Q10.28 5.66 10.28 6.38L10.28 6.38L10.28 6.38Q10.28 6.66 10.20 6.96L10.20 6.96L10.20 6.96Q10.12 7.25 9.97 7.54L9.97 7.54L9.97 7.54Q9.83 7.83 9.63 8.09L9.63 8.09L9.63 8.09Q9.44 8.36 9.20 8.55L9.20 8.55L9.20 8.55Q8.83 8.50 8.57 8.22L8.57 8.22L8.57 8.22Q8.30 7.95 8.23 7.59L8.23 7.59L8.23 7.59Q8.72 7.18 9.01 6.74L9.01 6.74L9.01 6.74Q9.30 6.30 9.30 5.94L9.30 5.94L9.30 5.94Q9.30 5.32 8.53 5.32L8.53 5.32L8.53 5.32Q8.20 5.32 7.86 5.45L7.86 5.45L7.86 5.45Q7.52 5.59 7.17 5.82L7.17 5.82L7.17 5.82Q6.82 6.06 6.49 6.40L6.49 6.40L6.49 6.40Q6.16 6.73 5.88 7.14L5.88 7.14L5.88 7.14Q3.93 9.94 3.93 12.87L3.93 12.87L3.93 12.87Q3.93 13.90 4.26 14.53L4.26 14.53L4.26 14.53Q4.58 15.16 5.11 15.27L5.11 15.27L5.11 15.27Q5.71 15.13 6.64 14.50L6.64 14.50L6.64 14.50Q7.56 13.87 8.65 12.87L8.65 12.87L8.65 12.87Q8.79 13.01 8.82 13.16L8.82 13.16L8.82 13.16Q8.41 13.69 7.98 14.18L7.98 14.18L7.98 14.18Q7.55 14.67 7.12 15.08L7.12 15.08L7.12 15.08Q6.69 15.48 6.28 15.79L6.28 15.79L6.28 15.79Q5.87 16.10 5.52 16.27L5.52 16.27L5.52 16.27Q3.78 16.24 2.88 15.27L2.88 15.27L2.88 15.27Q1.99 14.31 1.99 12.43ZM9.74 14.24L9.74 14.24L9.74 14.24Q9.74 14.11 9.77 13.92L9.77 13.92L9.77 13.92Q9.79 13.73 9.84 13.42L9.84 13.42L9.84 13.42Q9.90 13.10 9.99 12.66L9.99 12.66L9.99 12.66Q10.08 12.21 10.22 11.58L10.22 11.58L10.22 11.58Q10.25 11.44 10.35 11.13L10.35 11.13L10.35 11.13Q10.44 10.82 10.61 10.48L10.61 10.48L10.61 10.48Q10.77 10.14 11.00 9.81L11.00 9.81L11.00 9.81Q11.23 9.49 11.55 9.34L11.55 9.34L11.55 9.34Q11.79 9.39 12.18 9.63L12.18 9.63L12.18 9.63Q12.57 9.86 12.85 10.26L12.85 10.26L12.85 10.26Q12.53 10.63 12.31 10.99L12.31 10.99L12.31 10.99Q12.10 11.35 11.92 11.75L11.92 11.75L11.92 11.75Q11.75 12.14 11.60 12.56L11.60 12.56L11.60 12.56Q11.45 12.98 11.27 13.44L11.27 13.44L11.27 13.44Q11.12 13.83 10.99 14.25L10.99 14.25L10.99 14.25Q10.86 14.66 10.85 14.97L10.85 14.97L10.85 14.97Q10.85 15.22 10.84 15.32L10.84 15.32L10.84 15.32Q10.84 15.43 10.77 15.43L10.77 15.43L10.77 15.43Q10.71 15.43 10.54 15.36L10.54 15.36L10.54 15.36Q10.37 15.29 10.20 15.14L10.20 15.14L10.20 15.14Q10.02 14.99 9.88 14.77L9.88 14.77L9.88 14.77Q9.74 14.55 9.74 14.24ZM12.42 8.16L12.42 8.16L12.42 8.16Q12.42 8.08 12.46 7.91L12.46 7.91L12.46 7.91Q12.39 7.84 12.34 7.70L12.34 7.70L12.34 7.70Q12.29 7.56 12.29 7.45L12.29 7.45L12.29 7.45Q12.29 7.32 12.33 7.11L12.33 7.11L12.33 7.11Q12.36 6.89 12.42 6.64L12.42 6.64L12.42 6.64Q12.47 6.38 12.56 6.11L12.56 6.11L12.56 6.11Q12.64 5.84 12.73 5.61L12.73 5.61L12.73 5.61Q12.89 5.61 13.14 5.71L13.14 5.71L13.14 5.71Q13.38 5.80 13.64 5.94L13.64 5.94L13.64 5.94Q13.89 6.09 14.10 6.27L14.10 6.27L14.10 6.27Q14.31 6.44 14.42 6.59L14.42 6.59L14.42 6.59Q14.27 6.75 14.01 7.02L14.01 7.02L14.01 7.02Q13.76 7.29 13.52 7.59L13.52 7.59L13.52 7.59Q13.29 7.90 13.09 8.16L13.09 8.16L13.09 8.16Q12.89 8.43 12.84 8.54L12.84 8.54L12.84 8.54Q12.67 8.51 12.54 8.39L12.54 8.39L12.54 8.39Q12.42 8.27 12.42 8.16ZM13.71 19.22L13.71 19.22L13.71 19.22Q13.36 19.08 13.29 18.69L13.29 18.69L13.29 18.69Q13.23 18.31 12.81 18.07L12.81 18.07L12.81 18.07Q12.92 17.36 13.06 16.63L13.06 16.63L13.06 16.63Q13.20 15.90 13.42 14.97L13.42 14.97L13.42 14.97Q13.64 14.04 13.96 12.80L13.96 12.80L13.96 12.80Q14.29 11.56 14.80 9.80L14.80 9.80L14.80 9.80Q14.34 9.80 14.07 9.81L14.07 9.81L14.07 9.81Q13.80 9.83 13.55 9.87L13.55 9.87L13.55 9.87Q13.50 9.81 13.46 9.72L13.46 9.72L13.46 9.72Q13.43 9.62 13.43 9.53L13.43 9.53L13.43 9.53Q13.57 9.48 14 9.39L14 9.39L14 9.39Q14.43 9.30 14.95 9.23L14.95 9.23L14.95 9.23Q15.29 8.16 15.72 7.32L15.72 7.32L15.72 7.32Q16.16 6.47 16.66 5.87L16.66 5.87L16.66 5.87Q17.16 5.26 17.72 4.94L17.72 4.94L17.72 4.94Q18.28 4.62 18.86 4.62L18.86 4.62L18.86 4.62Q19.03 4.62 19.18 4.64L19.18 4.64L19.18 4.64Q19.33 4.66 19.42 4.66L19.42 4.66L19.42 4.66Q19.54 4.56 19.75 4.49L19.75 4.49L19.75 4.49Q19.96 4.41 20.12 4.41L20.12 4.41L20.12 4.41Q20.29 4.41 20.55 4.59L20.55 4.59L20.55 4.59Q20.44 4.79 20.31 5.12L20.31 5.12L20.31 5.12Q20.19 5.46 20.10 5.78L20.10 5.78L20.10 5.78Q19.75 6.82 19.36 7.13L19.36 7.13L19.36 7.13Q19.21 7.13 19.19 6.72L19.19 6.72L19.19 6.72Q19.18 6.43 19.11 6.15L19.11 6.15L19.11 6.15Q19.05 6.02 19.03 5.92L19.03 5.92L19.03 5.92Q19.01 5.82 19.01 5.67L19.01 5.67L19.01 5.67Q19.01 5.59 19.03 5.47L19.03 5.47L19.03 5.47Q19.04 5.35 19.08 5.07L19.08 5.07L19.08 5.07Q18.84 5.07 18.56 5.36L18.56 5.36L18.56 5.36Q18.27 5.66 17.95 6.20L17.95 6.20L17.95 6.20Q17.64 6.73 17.32 7.48L17.32 7.48L17.32 7.48Q17.00 8.22 16.70 9.11L16.70 9.11L17.88 9.07L17.88 9.07Q17.95 9.14 18.00 9.39L18.00 9.39L18.00 9.39Q18.05 9.63 18.06 9.90L18.06 9.90L16.52 9.81L16.52 9.81Q15.99 11.40 15.53 12.84L15.53 12.84L15.53 12.84Q15.06 14.28 14.70 15.50L14.70 15.50L14.70 15.50Q14.34 16.72 14.08 17.68L14.08 17.68L14.08 17.68Q13.82 18.63 13.71 19.22ZM17.39 14.90L17.39 14.90L17.39 14.90Q17.46 14.49 17.63 13.82L17.63 13.82L17.63 13.82Q17.81 13.16 18.05 12.41L18.05 12.41L18.05 12.41Q18.28 11.66 18.55 10.91L18.55 10.91L18.55 10.91Q18.82 10.15 19.07 9.55L19.07 9.55L19.07 9.55Q19.25 9.11 19.39 8.87L19.39 8.87L19.39 8.87Q19.53 8.62 19.70 8.46L19.70 8.46L19.70 8.46Q19.89 8.48 20.10 8.55L20.10 8.55L20.10 8.55Q20.31 8.62 20.51 8.72L20.51 8.72L20.51 8.72Q20.71 8.82 20.86 8.93L20.86 8.93L20.86 8.93Q21.01 9.03 21.10 9.13L21.10 9.13L21.10 9.13Q20.72 9.58 20.43 10.15L20.43 10.15L20.43 10.15Q20.15 10.72 19.85 11.62L19.85 11.62L19.85 11.62Q20.61 10.95 21.19 10.33L21.19 10.33L21.19 10.33Q21.77 9.72 22.27 8.96L22.27 8.96L22.27 8.96Q22.36 8.89 22.57 8.89L22.57 8.89L22.57 8.89Q22.76 8.89 22.95 8.95L22.95 8.95L22.95 8.95Q23.13 9.02 23.20 9.13L23.20 9.13L23.20 9.13Q22.95 9.80 22.95 10.46L22.95 10.46L22.95 10.46Q22.95 11.07 23.13 11.38L23.13 11.38L23.13 11.38Q23.11 11.47 22.94 11.70L22.94 11.70L22.94 11.70Q22.76 11.94 22.55 12.15L22.55 12.15L22.55 12.15Q22.18 11.96 21.88 11.61L21.88 11.61L21.88 11.61Q21.59 11.27 21.45 10.86L21.45 10.86L21.45 10.86Q20.79 11.33 20.33 11.77L20.33 11.77L20.33 11.77Q19.87 12.21 19.54 12.75L19.54 12.75L19.54 12.75Q19.21 13.29 18.98 13.99L18.98 13.99L18.98 13.99Q18.75 14.69 18.54 15.65L18.54 15.65L18.54 15.65Q18.41 15.64 18.23 15.56L18.23 15.56L18.23 15.56Q18.06 15.48 17.88 15.37L17.88 15.37L17.88 15.37Q17.71 15.26 17.57 15.13L17.57 15.13L17.57 15.13Q17.43 15.01 17.39 14.90ZM28.20 9.52L28.20 9.52L28.20 9.52Q28.34 9.52 28.52 9.57L28.52 9.57L28.52 9.57Q28.71 9.62 28.87 9.70L28.87 9.70L28.87 9.70Q29.02 9.77 29.13 9.86L29.13 9.86L29.13 9.86Q29.23 9.94 29.23 10.01L29.23 10.01L29.23 10.01Q28.95 10.60 28.71 11.19L28.71 11.19L28.71 11.19Q28.48 11.79 28.31 12.33L28.31 12.33L28.31 12.33Q28.14 12.88 28.05 13.36L28.05 13.36L28.05 13.36Q27.96 13.83 27.96 14.18L27.96 14.18L27.96 14.18Q27.96 14.57 28.04 14.83L28.04 14.83L28.04 14.83Q28.13 15.09 28.32 15.20L28.32 15.20L28.32 15.20Q28.15 15.32 27.89 15.39L27.89 15.39L27.89 15.39Q27.62 15.46 27.41 15.46L27.41 15.46L27.41 15.46Q26.66 15.46 26.66 14.42L26.66 14.42L26.66 14.42Q26.66 13.62 27.19 12.24L27.19 12.24L27.19 12.24Q26.91 12.88 26.54 13.45L26.54 13.45L26.54 13.45Q26.18 14.01 25.80 14.45L25.80 14.45L25.80 14.45Q25.42 14.88 25.04 15.15L25.04 15.15L25.04 15.15Q24.65 15.43 24.33 15.48L24.33 15.48L24.33 15.48Q23.81 15.46 23.49 14.99L23.49 14.99L23.49 14.99Q23.17 14.52 23.17 13.79L23.17 13.79L23.17 13.79Q23.17 13.01 23.51 12.14L23.51 12.14L23.51 12.14Q23.84 11.27 24.37 10.53L24.37 10.53L24.37 10.53Q24.89 9.79 25.51 9.29L25.51 9.29L25.51 9.29Q26.12 8.79 26.70 8.76L26.70 8.76L26.70 8.76Q26.84 8.81 27.01 8.93L27.01 8.93L27.01 8.93Q27.19 9.06 27.35 9.23L27.35 9.23L27.35 9.23Q27.51 9.39 27.62 9.57L27.62 9.57L27.62 9.57Q27.73 9.74 27.75 9.87L27.75 9.87L27.75 9.87Q27.19 9.95 26.59 10.42L26.59 10.42L26.59 10.42Q26.00 10.88 25.52 11.53L25.52 11.53L25.52 11.53Q25.03 12.18 24.72 12.92L24.72 12.92L24.72 12.92Q24.42 13.66 24.42 14.31L24.42 14.31L24.42 14.31Q24.42 14.57 24.61 14.64L24.61 14.64L24.61 14.64Q25.02 14.56 25.55 13.95L25.55 13.95L25.55 13.95Q26.08 13.34 26.84 12.07L26.84 12.07L26.84 12.07Q26.98 11.82 27.15 11.51L27.15 11.51L27.15 11.51Q27.33 11.20 27.51 10.86L27.51 10.86L27.51 10.86Q27.69 10.53 27.87 10.18L27.87 10.18L27.87 10.18Q28.04 9.84 28.20 9.52ZM29.61 14.90L29.61 14.90L29.61 14.90Q29.68 14.49 29.86 13.82L29.86 13.82L29.86 13.82Q30.03 13.16 30.27 12.41L30.27 12.41L30.27 12.41Q30.51 11.66 30.77 10.91L30.77 10.91L30.77 10.91Q31.04 10.15 31.29 9.55L31.29 9.55L31.29 9.55Q31.47 9.11 31.61 8.87L31.61 8.87L31.61 8.87Q31.75 8.62 31.92 8.46L31.92 8.46L31.92 8.46Q32.12 8.48 32.33 8.55L32.33 8.55L32.33 8.55Q32.54 8.62 32.73 8.72L32.73 8.72L32.73 8.72Q32.93 8.82 33.08 8.93L33.08 8.93L33.08 8.93Q33.24 9.03 33.32 9.13L33.32 9.13L33.32 9.13Q32.94 9.58 32.66 10.15L32.66 10.15L32.66 10.15Q32.37 10.72 32.07 11.62L32.07 11.62L32.07 11.62Q32.83 10.95 33.41 10.33L33.41 10.33L33.41 10.33Q33.99 9.72 34.50 8.96L34.50 8.96L34.50 8.96Q34.58 8.89 34.79 8.89L34.79 8.89L34.79 8.89Q34.99 8.89 35.17 8.95L35.17 8.95L35.17 8.95Q35.35 9.02 35.42 9.13L35.42 9.13L35.42 9.13Q35.17 9.80 35.17 10.46L35.17 10.46L35.17 10.46Q35.17 11.07 35.35 11.38L35.35 11.38L35.35 11.38Q35.34 11.47 35.16 11.70L35.16 11.70L35.16 11.70Q34.99 11.94 34.78 12.15L34.78 12.15L34.78 12.15Q34.40 11.96 34.10 11.61L34.10 11.61L34.10 11.61Q33.81 11.27 33.67 10.86L33.67 10.86L33.67 10.86Q33.01 11.33 32.55 11.77L32.55 11.77L32.55 11.77Q32.09 12.21 31.76 12.75L31.76 12.75L31.76 12.75Q31.43 13.29 31.20 13.99L31.20 13.99L31.20 13.99Q30.97 14.69 30.76 15.65L30.76 15.65L30.76 15.65Q30.63 15.64 30.46 15.56L30.46 15.56L30.46 15.56Q30.28 15.48 30.11 15.37L30.11 15.37L30.11 15.37Q29.93 15.26 29.79 15.13L29.79 15.13L29.79 15.13Q29.65 15.01 29.61 14.90Z"></path></g><defs data-v-423bf9ae=""><linearGradient data-v-423bf9ae="" gradientTransform="rotate(25)" id="08fbee8d-99e2-4a73-88ef-c49b94729826" x1="0%" y1="0%" x2="100%" y2="0%"><stop data-v-423bf9ae="" offset="0%" style="stop-color: rgb(0, 118, 221); stop-opacity: 1;"></stop><stop data-v-423bf9ae="" offset="100%" style="stop-color: rgb(230, 0, 233); stop-opacity: 1;"></stop></linearGradient></defs><g data-v-423bf9ae="" id="8f22a983-c507-457d-8753-2d5b9d8e5169" transform="matrix(1,0,0,1,17.73849868774414,-5)" stroke="none" fill="url(#08fbee8d-99e2-4a73-88ef-c49b94729826)"><path d="M83.844 38.102H76.48v-5.526a.846.846 0 0 0-.002-.457C76.356 17.144 64.136 5 49.131 5c-15.08 0-27.349 12.269-27.349 27.349v5.752h-5.627a2.417 2.417 0 0 0-2.417 2.417v52.065A2.418 2.418 0 0 0 16.155 95h67.689a2.418 2.418 0 0 0 2.417-2.417V40.519a2.416 2.416 0 0 0-2.417-2.417zm-55.142-5.681a.849.849 0 0 0 .003-.072c0-11.265 9.164-20.429 20.426-20.429 11.264 0 20.429 9.164 20.429 20.429v5.752H28.702v-5.68zm25.513 34.227l2.911 17.445H44.608l2.908-17.445a2.417 2.417 0 0 0-.861-2.274 6.679 6.679 0 0 1-2.483-5.202c0-3.691 3.004-6.693 6.697-6.693a6.7 6.7 0 0 1 6.693 6.693 6.673 6.673 0 0 1-2.484 5.2 2.417 2.417 0 0 0-.863 2.276z"></path></g><!----><g data-v-423bf9ae="" id="bf7fb589-0c60-40aa-9045-67252964998a" fill="#000000" transform="matrix(0.2594417482037889,0,0,0.2594417482037889,17.419041108168123,206.05605471119353)"><path d="M0.28 3.71L0.28 3.71L0.28 3.71Q0.28 3.50 0.53 3.50L0.53 3.50L0.53 3.50Q0.62 3.50 0.92 3.53L0.92 3.53L0.92 3.53Q1.22 3.56 1.27 3.56L1.27 3.56L1.27 3.56Q1.48 3.56 1.85 3.54L1.85 3.54L1.85 3.54Q2.21 3.53 2.32 3.53L2.32 3.53L2.32 3.53Q2.59 3.53 2.66 3.72L2.66 3.72L2.66 3.72Q2.83 4.09 3.26 5.03L3.26 5.03L3.26 5.03Q3.70 5.98 3.96 6.54L3.96 6.54L3.96 6.54Q4.21 7.10 4.62 7.97L4.62 7.97L4.62 7.97Q5.03 8.83 5.28 9.37L5.28 9.37L5.28 9.37Q5.53 9.91 5.80 10.46L5.80 10.46L5.80 10.46Q6.08 11.00 6.22 11.26L6.22 11.26L6.22 11.26Q6.37 11.52 6.41 11.52L6.41 11.52L6.41 11.52Q6.45 11.52 6.50 11.47L6.50 11.47L6.50 11.47Q6.55 11.42 6.60 11.34L6.60 11.34L6.60 11.34Q6.65 11.26 6.69 11.17L6.69 11.17L6.69 11.17Q6.72 11.09 6.78 10.96L6.78 10.96L6.78 10.96Q6.85 10.82 6.87 10.75L6.87 10.75L8.68 7.03L8.68 7.03Q8.99 6.40 9.23 5.89L9.23 5.89L9.23 5.89Q9.46 5.39 9.60 5.08L9.60 5.08L9.60 5.08Q9.74 4.77 9.84 4.55L9.84 4.55L9.84 4.55Q9.94 4.33 9.99 4.21L9.99 4.21L9.99 4.21Q10.04 4.10 10.06 4.04L10.06 4.04L10.06 4.04Q10.08 3.98 10.09 3.94L10.09 3.94L10.09 3.94Q10.11 3.91 10.12 3.88L10.12 3.88L10.12 3.88Q10.14 3.85 10.17 3.75L10.17 3.75L10.17 3.75Q10.21 3.65 10.24 3.62L10.24 3.62L10.24 3.62Q10.28 3.58 10.38 3.54L10.38 3.54L10.38 3.54Q10.49 3.50 10.65 3.50L10.65 3.50L10.65 3.50Q10.92 3.50 11.15 3.51L11.15 3.51L11.15 3.51Q11.38 3.53 11.86 3.53L11.86 3.53L11.86 3.53Q12.10 3.53 12.10 3.71L12.10 3.71L12.10 3.71Q12.10 3.85 12.01 3.91L12.01 3.91L12.01 3.91Q11.91 3.98 11.63 4.02L11.63 4.02L11.63 4.02Q11.28 4.06 11.14 4.37L11.14 4.37L11.14 4.37Q11.00 4.68 11.00 5.54L11.00 5.54L11.00 5.54Q11.00 7.43 11.09 8.97L11.09 8.97L11.09 8.97Q11.17 10.50 11.17 10.89L11.17 10.89L11.17 10.89Q11.17 12.29 11.40 12.68L11.40 12.68L11.40 12.68Q11.62 13.06 12.33 13.06L12.33 13.06L12.33 13.06Q12.43 13.06 12.51 13.13L12.51 13.13L12.51 13.13Q12.59 13.20 12.59 13.26L12.59 13.26L12.59 13.26Q12.59 13.34 12.57 13.38L12.57 13.38L12.57 13.38Q12.56 13.43 12.52 13.45L12.52 13.45L12.52 13.45Q12.47 13.48 12.43 13.48L12.43 13.48L12.43 13.48Q12.39 13.48 12.28 13.48L12.28 13.48L12.28 13.48Q11.86 13.48 11.45 13.45L11.45 13.45L11.45 13.45Q11.05 13.43 10.85 13.43L10.85 13.43L10.85 13.43Q10.46 13.43 10.04 13.46L10.04 13.46L10.04 13.46Q9.62 13.50 9.39 13.50L9.39 13.50L9.39 13.50Q9.14 13.50 9.14 13.30L9.14 13.30L9.14 13.30Q9.14 13.17 9.25 13.12L9.25 13.12L9.25 13.12Q9.37 13.06 9.51 13.05L9.51 13.05L9.51 13.05Q9.66 13.03 9.82 12.87L9.82 12.87L9.82 12.87Q9.98 12.71 10.05 12.39L10.05 12.39L10.05 12.39Q10.11 12.11 10.11 11.49L10.11 11.49L10.11 11.49Q10.11 11.05 10.09 10.42L10.09 10.42L10.09 10.42Q10.07 9.79 10.04 9.19L10.04 9.19L10.04 9.19Q10.01 8.60 9.98 8.07L9.98 8.07L9.98 8.07Q9.95 7.55 9.94 7.21L9.94 7.21L9.91 6.87L9.91 6.87Q9.91 6.27 9.79 6.27L9.79 6.27L9.79 6.27Q9.77 6.27 9.74 6.29L9.74 6.29L9.74 6.29Q9.72 6.30 9.70 6.33L9.70 6.33L9.70 6.33Q9.67 6.36 9.65 6.38L9.65 6.38L9.65 6.38Q9.62 6.41 9.59 6.47L9.59 6.47L9.59 6.47Q9.56 6.54 9.53 6.58L9.53 6.58L9.53 6.58Q9.51 6.62 9.46 6.70L9.46 6.70L9.46 6.70Q9.42 6.78 9.39 6.83L9.39 6.83L9.39 6.83Q9.37 6.89 9.32 6.99L9.32 6.99L9.32 6.99Q9.27 7.08 9.24 7.15L9.24 7.15L7.29 11.09L7.29 11.09Q6.96 11.77 6.58 12.56L6.58 12.56L6.58 12.56Q6.33 13.09 6.27 13.18L6.27 13.18L6.27 13.18Q6.22 13.27 6.13 13.27L6.13 13.27L6.13 13.27Q6.01 13.27 5.92 13.15L5.92 13.15L5.92 13.15Q5.84 13.03 5.67 12.63L5.67 12.63L5.67 12.63Q5.50 12.22 5.38 11.96L5.38 11.96L5.38 11.96Q2.81 6.75 2.74 6.65L2.74 6.65L2.74 6.65Q2.70 6.59 2.66 6.59L2.66 6.59L2.66 6.59Q2.55 6.59 2.55 7.15L2.55 7.15L2.55 7.15Q2.53 8.25 2.48 9.31L2.48 9.31L2.48 9.31Q2.42 10.37 2.42 10.85L2.42 10.85L2.42 11.48L2.42 11.48Q2.42 11.84 2.44 12.04L2.44 12.04L2.44 12.04Q2.46 12.24 2.56 12.49L2.56 12.49L2.56 12.49Q2.65 12.75 2.88 12.89L2.88 12.89L2.88 12.89Q3.12 13.03 3.50 13.08L3.50 13.08L3.50 13.08Q3.57 13.08 3.63 13.13L3.63 13.13L3.63 13.13Q3.70 13.17 3.70 13.23L3.70 13.23L3.70 13.23Q3.70 13.38 3.65 13.43L3.65 13.43L3.65 13.43Q3.61 13.48 3.49 13.48L3.49 13.48L3.49 13.48Q3.21 13.48 2.65 13.45L2.65 13.45L2.65 13.45Q2.09 13.43 2.03 13.43L2.03 13.43L2.03 13.43Q2.00 13.43 1.62 13.45L1.62 13.45L1.62 13.45Q1.25 13.47 0.88 13.47L0.88 13.47L0.88 13.47Q0.77 13.47 0.72 13.45L0.72 13.45L0.72 13.45Q0.67 13.44 0.63 13.39L0.63 13.39L0.63 13.39Q0.59 13.34 0.59 13.24L0.59 13.24L0.59 13.24Q0.59 13.13 0.71 13.09L0.71 13.09L0.71 13.09Q0.84 13.05 1.00 13.04L1.00 13.04L1.00 13.04Q1.16 13.03 1.36 12.82L1.36 12.82L1.36 12.82Q1.55 12.60 1.65 12.18L1.65 12.18L1.65 12.18Q1.72 11.87 1.82 9.74L1.82 9.74L1.82 9.74Q1.92 7.62 1.92 6.59L1.92 6.59L1.92 6.59Q1.92 5.19 1.65 4.66L1.65 4.66L1.65 4.66Q1.37 4.13 0.46 3.92L0.46 3.92L0.46 3.92Q0.28 3.88 0.28 3.71ZM20.54 12.25L20.54 12.25L20.54 12.25Q20.54 11.75 20.75 11.40L20.75 11.40L20.75 11.40Q20.96 11.06 21.38 10.87L21.38 10.87L21.38 10.87Q21.81 10.68 22.27 10.57L22.27 10.57L22.27 10.57Q22.74 10.46 23.39 10.35L23.39 10.35L23.39 10.35Q23.48 10.33 23.52 10.32L23.52 10.32L23.52 10.32Q23.56 10.32 23.63 10.31L23.63 10.31L23.63 10.31Q23.70 10.30 23.76 10.29L23.76 10.29L23.76 10.29Q23.86 10.28 23.89 10.26L23.89 10.26L23.89 10.26Q23.93 10.25 23.96 10.20L23.96 10.20L23.96 10.20Q24.00 10.15 24.00 10.07L24.00 10.07L24.00 10.07Q24.00 9.93 24.01 9.68L24.01 9.68L24.01 9.68Q24.02 9.44 24.02 9.34L24.02 9.34L24.02 9.34Q24.02 8.54 23.56 8.18L23.56 8.18L23.56 8.18Q23.10 7.83 22.67 7.83L22.67 7.83L22.67 7.83Q21.66 7.83 21.66 8.67L21.66 8.67L21.66 8.67Q21.66 8.78 21.69 8.95L21.69 8.95L21.69 8.95Q21.71 9.11 21.71 9.17L21.71 9.17L21.71 9.17Q21.71 9.45 21.46 9.45L21.46 9.45L21.46 9.45Q21.38 9.45 21.25 9.43L21.25 9.43L21.25 9.43Q21.13 9.41 20.96 9.36L20.96 9.36L20.96 9.36Q20.80 9.31 20.70 9.19L20.70 9.19L20.70 9.19Q20.59 9.07 20.59 8.90L20.59 8.90L20.59 8.90Q20.59 8.36 21.33 7.86L21.33 7.86L21.33 7.86Q22.06 7.36 22.95 7.36L22.95 7.36L22.95 7.36Q23.55 7.36 23.97 7.50L23.97 7.50L23.97 7.50Q24.39 7.64 24.59 7.82L24.59 7.82L24.59 7.82Q24.79 7.99 24.91 8.28L24.91 8.28L24.91 8.28Q25.02 8.57 25.03 8.73L25.03 8.73L25.03 8.73Q25.05 8.89 25.05 9.13L25.05 9.13L25.05 9.13Q25.05 10.14 25.01 10.72L25.01 10.72L25.01 10.72Q24.98 11.30 24.98 11.73L24.98 11.73L24.98 11.73Q24.98 12.25 25.09 12.55L25.09 12.55L25.09 12.55Q25.20 12.85 25.35 12.94L25.35 12.94L25.35 12.94Q25.51 13.02 25.66 13.03L25.66 13.03L25.66 13.03Q25.82 13.05 25.93 13.09L25.93 13.09L25.93 13.09Q26.04 13.13 26.04 13.26L26.04 13.26L26.04 13.26Q26.04 13.55 25.16 13.55L25.16 13.55L25.16 13.55Q24.79 13.55 24.54 13.36L24.54 13.36L24.54 13.36Q24.28 13.16 24.16 12.97L24.16 12.97L24.16 12.97Q24.05 12.78 24.04 12.78L24.04 12.78L24.04 12.78Q24.02 12.78 23.93 12.87L23.93 12.87L23.93 12.87Q23.83 12.96 23.65 13.09L23.65 13.09L23.65 13.09Q23.48 13.22 23.26 13.34L23.26 13.34L23.26 13.34Q23.04 13.47 22.76 13.56L22.76 13.56L22.76 13.56Q22.47 13.65 22.19 13.65L22.19 13.65L22.19 13.65Q21.29 13.65 20.89 13.23L20.89 13.23L20.89 13.23Q20.54 12.88 20.54 12.25ZM21.63 12.04L21.63 12.04L21.63 12.04Q21.63 12.52 21.91 12.80L21.91 12.80L21.91 12.80Q22.19 13.09 22.71 13.09L22.71 13.09L22.71 13.09Q23.07 13.09 23.33 12.98L23.33 12.98L23.33 12.98Q23.59 12.87 23.72 12.73L23.72 12.73L23.72 12.73Q23.84 12.59 23.91 12.36L23.91 12.36L23.91 12.36Q23.98 12.12 23.99 12.00L23.99 12.00L23.99 12.00Q24.00 11.87 24.00 11.66L24.00 11.66L24.00 10.65L24.00 10.65Q24.00 10.53 23.90 10.53L23.90 10.53L23.90 10.53Q23.87 10.53 23.83 10.54L23.83 10.54L23.83 10.54Q23.79 10.56 23.76 10.56L23.76 10.56L23.76 10.56Q23.44 10.61 23.35 10.63L23.35 10.63L23.35 10.63Q23.27 10.64 22.96 10.71L22.96 10.71L22.96 10.71Q22.65 10.78 22.53 10.84L22.53 10.84L22.53 10.84Q22.41 10.89 22.20 11.01L22.20 11.01L22.20 11.01Q21.98 11.13 21.89 11.26L21.89 11.26L21.89 11.26Q21.80 11.40 21.71 11.60L21.71 11.60L21.71 11.60Q21.63 11.80 21.63 12.04ZM33.75 7.98L33.75 7.98L33.75 7.98Q33.75 7.90 33.84 7.85L33.84 7.85L33.84 7.85Q33.94 7.81 34.15 7.78L34.15 7.78L34.15 7.78Q34.36 7.76 34.44 7.73L34.44 7.73L34.44 7.73Q34.71 7.66 34.99 7.54L34.99 7.54L34.99 7.54Q35.28 7.42 35.45 7.34L35.45 7.34L35.45 7.34Q35.63 7.25 35.69 7.25L35.69 7.25L35.71 7.25L35.71 7.25Q35.84 7.25 35.84 7.42L35.84 7.42L35.84 7.42Q35.84 7.45 35.83 7.67L35.83 7.67L35.83 7.67Q35.81 7.90 35.81 8.02L35.81 8.02L35.81 8.02Q35.81 8.39 35.88 8.39L35.88 8.39L35.88 8.39Q35.92 8.39 35.98 8.31L35.98 8.31L35.98 8.31Q36.04 8.23 36.18 8.08L36.18 8.08L36.18 8.08Q36.33 7.94 36.54 7.81L36.54 7.81L36.54 7.81Q37.17 7.42 37.76 7.42L37.76 7.42L37.76 7.42Q38.32 7.42 38.77 7.59L38.77 7.59L38.77 7.59Q39.21 7.77 39.47 8.03L39.47 8.03L39.47 8.03Q39.72 8.29 39.89 8.62L39.89 8.62L39.89 8.62Q40.05 8.96 40.11 9.24L40.11 9.24L40.11 9.24Q40.17 9.52 40.17 9.77L40.17 9.77L40.17 9.77Q40.17 9.83 40.17 9.90L40.17 9.90L40.17 9.90Q40.17 9.98 40.17 10.10L40.17 10.10L40.17 10.10Q40.18 10.22 40.18 10.65L40.18 10.65L40.18 10.65Q40.18 11.09 40.18 11.77L40.18 11.77L40.18 12.08L40.18 12.08Q40.18 12.61 40.33 12.82L40.33 12.82L40.33 12.82Q40.47 13.02 41.03 13.10L41.03 13.10L41.03 13.10Q41.31 13.15 41.31 13.31L41.31 13.31L41.31 13.31Q41.31 13.45 41.03 13.45L41.03 13.45L41.03 13.45Q40.71 13.45 40.36 13.42L40.36 13.42L40.36 13.42Q40.01 13.38 39.89 13.38L39.89 13.38L39.89 13.38Q39.69 13.38 39.28 13.41L39.28 13.41L39.28 13.41Q38.86 13.44 38.81 13.44L38.81 13.44L38.81 13.44Q38.53 13.44 38.53 13.26L38.53 13.26L38.53 13.26Q38.53 13.19 38.58 13.15L38.58 13.15L38.58 13.15Q38.63 13.10 38.69 13.09L38.69 13.09L38.69 13.09Q38.75 13.08 38.81 13.06L38.81 13.06L38.88 13.05L38.88 13.05Q39.19 12.95 39.19 12.11L39.19 12.11L39.19 10.22L39.19 10.22Q39.19 9.14 38.65 8.59L38.65 8.59L38.65 8.59Q38.12 8.04 37.38 8.04L37.38 8.04L37.38 8.04Q36.78 8.04 36.33 8.36L36.33 8.36L36.33 8.36Q35.88 8.68 35.81 8.89L35.81 8.89L35.81 8.89Q35.69 9.24 35.69 11.10L35.69 11.10L35.69 11.63L35.69 11.63Q35.69 12.33 35.83 12.67L35.83 12.67L35.83 12.67Q35.98 13.01 36.48 13.05L36.48 13.05L36.48 13.05Q36.62 13.05 36.84 13.10L36.84 13.10L36.84 13.10Q37.06 13.15 37.06 13.26L37.06 13.26L37.06 13.26Q37.06 13.44 36.79 13.44L36.79 13.44L36.79 13.44Q36.55 13.44 36.33 13.41L36.33 13.41L36.33 13.41Q36.11 13.38 35.77 13.38L35.77 13.38L35.77 13.38Q35.41 13.38 34.80 13.41L34.80 13.41L34.20 13.44L34.20 13.44Q33.99 13.44 33.99 13.30L33.99 13.30L33.99 13.30Q33.99 13.19 34.06 13.16L34.06 13.16L34.06 13.16Q34.13 13.13 34.24 13.12L34.24 13.12L34.24 13.12Q34.34 13.10 34.45 13.03L34.45 13.03L34.45 13.03Q34.55 12.96 34.64 12.69L34.64 12.69L34.64 12.69Q34.72 12.42 34.73 11.96L34.73 11.96L34.73 11.96Q34.76 11.17 34.76 10.91L34.76 10.91L34.76 8.89L34.76 8.89Q34.76 8.44 34.60 8.29L34.60 8.29L34.60 8.29Q34.44 8.13 34.16 8.13L34.16 8.13L34.02 8.13L34.02 8.13Q33.75 8.13 33.75 7.98ZM48.83 8.06L48.83 8.06L48.83 8.06Q48.83 7.98 48.88 7.92L48.88 7.92L48.88 7.92Q48.93 7.85 49.01 7.80L49.01 7.80L49.01 7.80Q49.10 7.74 49.26 7.61L49.26 7.61L49.26 7.61Q49.42 7.48 49.57 7.31L49.57 7.31L49.57 7.31Q49.78 7.08 50.02 6.77L50.02 6.77L50.02 6.77Q50.25 6.45 50.38 6.31L50.38 6.31L50.38 6.31Q50.51 6.16 50.64 6.16L50.64 6.16L50.64 6.16Q50.79 6.16 50.79 6.48L50.79 6.48L50.79 6.48Q50.79 6.61 50.76 6.87L50.76 6.87L50.76 6.87Q50.74 7.14 50.74 7.28L50.74 7.28L50.74 7.28Q50.74 7.48 50.81 7.52L50.81 7.52L50.81 7.52Q50.89 7.56 51.31 7.56L51.31 7.56L51.80 7.56L51.80 7.56Q52.11 7.56 52.33 7.53L52.33 7.53L52.33 7.53Q52.54 7.50 52.63 7.46L52.63 7.46L52.63 7.46Q52.71 7.42 52.77 7.39L52.77 7.39L52.77 7.39Q52.84 7.36 52.88 7.36L52.88 7.36L52.88 7.36Q53.02 7.36 53.02 7.52L53.02 7.52L53.02 7.52Q53.02 7.63 52.84 7.96L52.84 7.96L52.84 7.96Q52.65 8.29 52.57 8.29L52.57 8.29L52.57 8.29Q52.36 8.29 52.16 8.28L52.16 8.28L52.16 8.28Q51.97 8.27 51.83 8.27L51.83 8.27L51.83 8.27Q51.69 8.26 51.56 8.25L51.56 8.25L51.56 8.25Q51.44 8.23 51.35 8.22L51.35 8.22L51.35 8.22Q51.27 8.22 51.20 8.21L51.20 8.21L51.20 8.21Q51.14 8.20 51.11 8.20L51.11 8.20L51.09 8.19L51.09 8.19Q50.82 8.19 50.74 8.27L50.74 8.27L50.74 8.27Q50.67 8.36 50.67 8.65L50.67 8.65L50.67 8.65Q50.67 8.81 50.64 9.82L50.64 9.82L50.64 9.82Q50.61 10.84 50.61 11.26L50.61 11.26L50.61 11.26Q50.61 12.17 50.84 12.52L50.84 12.52L50.84 12.52Q51.07 12.88 51.81 12.88L51.81 12.88L51.81 12.88Q52.11 12.88 52.47 12.75L52.47 12.75L52.47 12.75Q52.82 12.61 52.85 12.61L52.85 12.61L52.85 12.61Q52.99 12.61 52.99 12.78L52.99 12.78L52.99 12.78Q52.99 12.98 52.51 13.28L52.51 13.28L52.51 13.28Q52.02 13.58 51.46 13.58L51.46 13.58L51.46 13.58Q49.57 13.58 49.57 11.94L49.57 11.94L49.57 11.73L49.57 11.73Q49.57 11.19 49.59 10.40L49.59 10.40L49.59 10.40Q49.60 9.62 49.62 9.05L49.62 9.05L49.62 9.05Q49.63 8.48 49.63 8.47L49.63 8.47L49.63 8.47Q49.63 8.33 49.57 8.29L49.57 8.29L49.57 8.29Q49.52 8.25 49.34 8.25L49.34 8.25L49.34 8.25Q49.28 8.25 49.19 8.25L49.19 8.25L49.19 8.25Q49.10 8.26 49.07 8.26L49.07 8.26L49.07 8.26Q48.83 8.26 48.83 8.06ZM60.79 10.72L60.79 10.72L60.79 10.72Q60.79 9.32 61.58 8.36L61.58 8.36L61.58 8.36Q62.37 7.39 63.63 7.39L63.63 7.39L63.63 7.39Q64.22 7.39 64.70 7.60L64.70 7.60L64.70 7.60Q65.18 7.81 65.45 8.11L65.45 8.11L65.45 8.11Q65.72 8.41 65.90 8.75L65.90 8.75L65.90 8.75Q66.08 9.09 66.14 9.30L66.14 9.30L66.14 9.30Q66.21 9.52 66.21 9.62L66.21 9.62L66.21 9.62Q66.21 9.87 65.63 9.87L65.63 9.87L62.45 9.87L62.03 9.87L62.03 9.87Q61.92 9.87 61.90 9.89L61.90 9.89L61.90 9.89Q61.88 9.91 61.88 10.02L61.88 10.02L61.88 10.02Q61.88 11.34 62.59 12.10L62.59 12.10L62.59 12.10Q63.29 12.85 64.25 12.85L64.25 12.85L64.25 12.85Q64.83 12.85 65.44 12.54L65.44 12.54L65.44 12.54Q66.05 12.22 66.08 12.22L66.08 12.22L66.08 12.22Q66.22 12.22 66.22 12.35L66.22 12.35L66.22 12.35Q66.22 12.40 66.12 12.55L66.12 12.55L66.12 12.55Q66.02 12.70 65.81 12.89L65.81 12.89L65.81 12.89Q65.60 13.09 65.32 13.27L65.32 13.27L65.32 13.27Q65.04 13.45 64.62 13.58L64.62 13.58L64.62 13.58Q64.20 13.71 63.74 13.71L63.74 13.71L63.74 13.71Q62.51 13.71 61.65 12.95L61.65 12.95L61.65 12.95Q60.79 12.19 60.79 10.72ZM61.96 9.34L61.96 9.34L61.96 9.34Q61.96 9.53 62.15 9.53L62.15 9.53L62.15 9.53Q62.52 9.53 63.53 9.49L63.53 9.49L63.53 9.49Q64.54 9.45 64.61 9.45L64.61 9.45L64.61 9.45Q64.81 9.45 64.86 9.41L64.86 9.41L64.86 9.41Q64.90 9.38 64.90 9.28L64.90 9.28L64.90 9.28Q64.90 8.86 64.51 8.30L64.51 8.30L64.51 8.30Q64.12 7.74 63.39 7.74L63.39 7.74L63.39 7.74Q62.72 7.74 62.34 8.29L62.34 8.29L62.34 8.29Q61.96 8.85 61.96 9.34ZM74.20 7.98L74.20 7.98L74.20 7.98Q74.20 7.90 74.29 7.85L74.29 7.85L74.29 7.85Q74.38 7.81 74.59 7.78L74.59 7.78L74.59 7.78Q74.80 7.76 74.89 7.73L74.89 7.73L74.89 7.73Q75.15 7.66 75.44 7.54L75.44 7.54L75.44 7.54Q75.73 7.42 75.90 7.34L75.90 7.34L75.90 7.34Q76.08 7.25 76.13 7.25L76.13 7.25L76.16 7.25L76.16 7.25Q76.29 7.25 76.29 7.42L76.29 7.42L76.29 7.42Q76.29 7.45 76.27 7.67L76.27 7.67L76.27 7.67Q76.26 7.90 76.26 8.02L76.26 8.02L76.26 8.02Q76.26 8.39 76.33 8.39L76.33 8.39L76.33 8.39Q76.37 8.39 76.43 8.31L76.43 8.31L76.43 8.31Q76.48 8.23 76.63 8.08L76.63 8.08L76.63 8.08Q76.78 7.94 76.99 7.81L76.99 7.81L76.99 7.81Q77.62 7.42 78.20 7.42L78.20 7.42L78.20 7.42Q78.76 7.42 79.21 7.59L79.21 7.59L79.21 7.59Q79.66 7.77 79.91 8.03L79.91 8.03L79.91 8.03Q80.16 8.29 80.33 8.62L80.33 8.62L80.33 8.62Q80.50 8.96 80.56 9.24L80.56 9.24L80.56 9.24Q80.61 9.52 80.61 9.77L80.61 9.77L80.61 9.77Q80.61 9.83 80.61 9.90L80.61 9.90L80.61 9.90Q80.61 9.98 80.62 10.10L80.62 10.10L80.62 10.10Q80.63 10.22 80.63 10.65L80.63 10.65L80.63 10.65Q80.63 11.09 80.63 11.77L80.63 11.77L80.63 12.08L80.63 12.08Q80.63 12.61 80.77 12.82L80.77 12.82L80.77 12.82Q80.92 13.02 81.48 13.10L81.48 13.10L81.48 13.10Q81.76 13.15 81.76 13.31L81.76 13.31L81.76 13.31Q81.76 13.45 81.48 13.45L81.48 13.45L81.48 13.45Q81.16 13.45 80.81 13.42L80.81 13.42L80.81 13.42Q80.46 13.38 80.33 13.38L80.33 13.38L80.33 13.38Q80.14 13.38 79.72 13.41L79.72 13.41L79.72 13.41Q79.31 13.44 79.25 13.44L79.25 13.44L79.25 13.44Q78.97 13.44 78.97 13.26L78.97 13.26L78.97 13.26Q78.97 13.19 79.02 13.15L79.02 13.15L79.02 13.15Q79.07 13.10 79.14 13.09L79.14 13.09L79.14 13.09Q79.20 13.08 79.25 13.06L79.25 13.06L79.32 13.05L79.32 13.05Q79.63 12.95 79.63 12.11L79.63 12.11L79.63 10.22L79.63 10.22Q79.63 9.14 79.10 8.59L79.10 8.59L79.10 8.59Q78.57 8.04 77.83 8.04L77.83 8.04L77.83 8.04Q77.22 8.04 76.78 8.36L76.78 8.36L76.78 8.36Q76.33 8.68 76.26 8.89L76.26 8.89L76.26 8.89Q76.13 9.24 76.13 11.10L76.13 11.10L76.13 11.63L76.13 11.63Q76.13 12.33 76.28 12.67L76.28 12.67L76.28 12.67Q76.43 13.01 76.93 13.05L76.93 13.05L76.93 13.05Q77.07 13.05 77.29 13.10L77.29 13.10L77.29 13.10Q77.50 13.15 77.50 13.26L77.50 13.26L77.50 13.26Q77.50 13.44 77.24 13.44L77.24 13.44L77.24 13.44Q77 13.44 76.78 13.41L76.78 13.41L76.78 13.41Q76.55 13.38 76.22 13.38L76.22 13.38L76.22 13.38Q75.85 13.38 75.25 13.41L75.25 13.41L74.65 13.44L74.65 13.44Q74.44 13.44 74.44 13.30L74.44 13.30L74.44 13.30Q74.44 13.19 74.51 13.16L74.51 13.16L74.51 13.16Q74.58 13.13 74.68 13.12L74.68 13.12L74.68 13.12Q74.79 13.10 74.89 13.03L74.89 13.03L74.89 13.03Q75.00 12.96 75.08 12.69L75.08 12.69L75.08 12.69Q75.17 12.42 75.18 11.96L75.18 11.96L75.18 11.96Q75.21 11.17 75.21 10.91L75.21 10.91L75.21 8.89L75.21 8.89Q75.21 8.44 75.05 8.29L75.05 8.29L75.05 8.29Q74.89 8.13 74.61 8.13L74.61 8.13L74.47 8.13L74.47 8.13Q74.20 8.13 74.20 7.98ZM99.40 8.06L99.40 8.06L99.40 8.06Q99.40 7.98 99.45 7.92L99.45 7.92L99.45 7.92Q99.50 7.85 99.58 7.80L99.58 7.80L99.58 7.80Q99.67 7.74 99.83 7.61L99.83 7.61L99.83 7.61Q99.99 7.48 100.14 7.31L100.14 7.31L100.14 7.31Q100.35 7.08 100.58 6.77L100.58 6.77L100.58 6.77Q100.81 6.45 100.95 6.31L100.95 6.31L100.95 6.31Q101.08 6.16 101.21 6.16L101.21 6.16L101.21 6.16Q101.36 6.16 101.36 6.48L101.36 6.48L101.36 6.48Q101.36 6.61 101.33 6.87L101.33 6.87L101.33 6.87Q101.30 7.14 101.30 7.28L101.30 7.28L101.30 7.28Q101.30 7.48 101.38 7.52L101.38 7.52L101.38 7.52Q101.46 7.56 101.88 7.56L101.88 7.56L102.37 7.56L102.37 7.56Q102.68 7.56 102.89 7.53L102.89 7.53L102.89 7.53Q103.11 7.50 103.19 7.46L103.19 7.46L103.19 7.46Q103.28 7.42 103.34 7.39L103.34 7.39L103.34 7.39Q103.40 7.36 103.45 7.36L103.45 7.36L103.45 7.36Q103.59 7.36 103.59 7.52L103.59 7.52L103.59 7.52Q103.59 7.63 103.40 7.96L103.40 7.96L103.40 7.96Q103.22 8.29 103.14 8.29L103.14 8.29L103.14 8.29Q102.93 8.29 102.73 8.28L102.73 8.28L102.73 8.28Q102.54 8.27 102.40 8.27L102.40 8.27L102.40 8.27Q102.26 8.26 102.13 8.25L102.13 8.25L102.13 8.25Q102.00 8.23 101.92 8.22L101.92 8.22L101.92 8.22Q101.84 8.22 101.77 8.21L101.77 8.21L101.77 8.21Q101.71 8.20 101.68 8.20L101.68 8.20L101.65 8.19L101.65 8.19Q101.39 8.19 101.31 8.27L101.31 8.27L101.31 8.27Q101.23 8.36 101.23 8.65L101.23 8.65L101.23 8.65Q101.23 8.81 101.21 9.82L101.21 9.82L101.21 9.82Q101.18 10.84 101.18 11.26L101.18 11.26L101.18 11.26Q101.18 12.17 101.41 12.52L101.41 12.52L101.41 12.52Q101.64 12.88 102.38 12.88L102.38 12.88L102.38 12.88Q102.68 12.88 103.03 12.75L103.03 12.75L103.03 12.75Q103.39 12.61 103.42 12.61L103.42 12.61L103.42 12.61Q103.56 12.61 103.56 12.78L103.56 12.78L103.56 12.78Q103.56 12.98 103.08 13.28L103.08 13.28L103.08 13.28Q102.59 13.58 102.03 13.58L102.03 13.58L102.03 13.58Q100.14 13.58 100.14 11.94L100.14 11.94L100.14 11.73L100.14 11.73Q100.14 11.19 100.16 10.40L100.16 10.40L100.16 10.40Q100.17 9.62 100.18 9.05L100.18 9.05L100.18 9.05Q100.20 8.48 100.20 8.47L100.20 8.47L100.20 8.47Q100.20 8.33 100.14 8.29L100.14 8.29L100.14 8.29Q100.09 8.25 99.90 8.25L99.90 8.25L99.90 8.25Q99.85 8.25 99.76 8.25L99.76 8.25L99.76 8.25Q99.67 8.26 99.64 8.26L99.64 8.26L99.64 8.26Q99.40 8.26 99.40 8.06ZM111.22 7.92L111.22 7.92L111.22 7.92Q111.22 7.83 111.28 7.76L111.28 7.76L111.28 7.76Q111.34 7.70 111.55 7.66L111.55 7.66L111.55 7.66Q111.76 7.62 112.15 7.62L112.15 7.62L112.15 7.62Q112.25 7.62 112.59 7.58L112.59 7.58L112.59 7.58Q112.92 7.55 112.95 7.55L112.95 7.55L112.95 7.55Q113.19 7.55 113.23 7.64L113.23 7.64L113.23 7.64Q113.27 7.74 113.27 8.25L113.27 8.25L113.27 8.25Q113.27 8.53 113.24 9.20L113.24 9.20L113.24 9.20Q113.20 9.88 113.20 10.71L113.20 10.71L113.20 10.71Q113.20 11.94 113.68 12.45L113.68 12.45L113.68 12.45Q114.16 12.96 114.76 12.96L114.76 12.96L114.76 12.96Q115.65 12.96 116.06 12.59L116.06 12.59L116.06 12.59Q116.47 12.21 116.47 11.26L116.47 11.26L116.44 9.32L116.44 9.32Q116.44 8.62 116.33 8.38L116.33 8.38L116.33 8.38Q116.21 8.13 115.79 8.09L115.79 8.09L115.79 8.09Q115.49 8.06 115.49 7.91L115.49 7.91L115.49 7.91Q115.49 7.59 116.72 7.59L116.72 7.59L116.72 7.59Q116.83 7.59 117.00 7.55L117.00 7.55L117.00 7.55Q117.17 7.52 117.22 7.52L117.22 7.52L117.22 7.52Q117.43 7.52 117.50 7.59L117.50 7.59L117.50 7.59Q117.56 7.66 117.56 7.91L117.56 7.91L117.56 7.91Q117.56 7.92 117.55 8.13L117.55 8.13L117.55 8.13Q117.54 8.33 117.54 8.67L117.54 8.67L117.54 8.67Q117.53 9.00 117.52 9.42L117.52 9.42L117.52 9.42Q117.50 9.84 117.50 10.39L117.50 10.39L117.50 10.39Q117.49 10.95 117.49 11.48L117.49 11.48L117.49 11.48Q117.49 12.33 117.57 12.64L117.57 12.64L117.57 12.64Q117.66 12.95 117.88 12.95L117.88 12.95L117.88 12.95Q117.95 12.95 118.07 12.94L118.07 12.94L118.07 12.94Q118.19 12.94 118.24 12.94L118.24 12.94L118.24 12.94Q118.58 12.94 118.58 13.12L118.58 13.12L118.58 13.12Q118.58 13.27 118.48 13.31L118.48 13.31L118.48 13.31Q118.38 13.36 118.06 13.36L118.06 13.36L118.06 13.36Q117.82 13.36 117.26 13.43L117.26 13.43L117.26 13.43Q116.69 13.51 116.65 13.51L116.65 13.51L116.65 13.51Q116.55 13.51 116.49 13.15L116.49 13.15L116.49 13.15Q116.42 12.80 116.40 12.80L116.40 12.80L116.40 12.80Q116.38 12.80 116.13 13.02L116.13 13.02L116.13 13.02Q115.88 13.24 115.41 13.47L115.41 13.47L115.41 13.47Q114.94 13.69 114.38 13.69L114.38 13.69L114.38 13.69Q112.13 13.69 112.13 11.26L112.13 11.26L112.13 11.26Q112.13 9.90 112.13 9.33L112.13 9.33L112.13 9.33Q112.14 8.76 112.14 8.74L112.14 8.74L112.14 8.74Q112.14 8.46 111.99 8.29L111.99 8.29L111.99 8.29Q111.85 8.12 111.72 8.12L111.72 8.12L111.47 8.12L111.47 8.12Q111.22 8.12 111.22 7.92ZM126.64 12.84L126.64 12.84L126.64 11.62L126.64 11.62Q126.64 11.47 126.71 11.36L126.71 11.36L126.71 11.36Q126.77 11.26 126.85 11.26L126.85 11.26L126.85 11.26Q126.99 11.26 127.04 11.32L127.04 11.32L127.04 11.32Q127.09 11.38 127.13 11.58L127.13 11.58L127.13 11.58Q127.18 11.77 127.22 11.86L127.22 11.86L127.22 11.86Q127.74 13.15 128.67 13.15L128.67 13.15L128.67 13.15Q129.11 13.15 129.50 12.91L129.50 12.91L129.50 12.91Q129.89 12.68 129.89 12.15L129.89 12.15L129.89 12.15Q129.89 11.69 129.57 11.38L129.57 11.38L129.57 11.38Q129.25 11.07 128.79 10.90L128.79 10.90L128.79 10.90Q128.32 10.72 127.86 10.54L127.86 10.54L127.86 10.54Q127.40 10.35 127.08 9.97L127.08 9.97L127.08 9.97Q126.76 9.60 126.76 9.04L126.76 9.04L126.76 9.04Q126.76 8.26 127.39 7.78L127.39 7.78L127.39 7.78Q128.02 7.31 128.87 7.31L128.87 7.31L128.87 7.31Q129.53 7.31 129.92 7.43L129.92 7.43L129.92 7.43Q130.31 7.55 130.39 7.64L130.39 7.64L130.39 7.64Q130.47 7.74 130.47 7.83L130.47 7.83L130.47 7.83Q130.47 7.84 130.49 8.20L130.49 8.20L130.49 8.20Q130.52 8.57 130.52 8.67L130.52 8.67L130.52 8.67Q130.52 8.90 130.47 8.99L130.47 8.99L130.47 8.99Q130.41 9.07 130.27 9.07L130.27 9.07L130.27 9.07Q130.20 9.07 130.08 8.87L130.08 8.87L130.08 8.87Q129.96 8.67 129.81 8.43L129.81 8.43L129.81 8.43Q129.67 8.19 129.34 7.99L129.34 7.99L129.34 7.99Q129.01 7.78 128.58 7.78L128.58 7.78L128.58 7.78Q128.17 7.78 127.90 7.99L127.90 7.99L127.90 7.99Q127.64 8.19 127.64 8.50L127.64 8.50L127.64 8.50Q127.64 8.67 127.68 8.81L127.68 8.81L127.68 8.81Q127.72 8.96 127.83 9.07L127.83 9.07L127.83 9.07Q127.93 9.18 128.01 9.26L128.01 9.26L128.01 9.26Q128.09 9.34 128.27 9.42L128.27 9.42L128.27 9.42Q128.45 9.51 128.54 9.54L128.54 9.54L128.54 9.54Q128.63 9.58 128.85 9.65L128.85 9.65L128.85 9.65Q129.07 9.73 129.14 9.76L129.14 9.76L129.14 9.76Q130.14 10.14 130.49 10.55L130.49 10.55L130.49 10.55Q130.84 10.96 130.84 11.77L130.84 11.77L130.84 11.77Q130.84 12.56 130.10 13.23L130.10 13.23L130.10 13.23Q129.60 13.66 128.72 13.66L128.72 13.66L128.72 13.66Q128.46 13.66 128.18 13.61L128.18 13.61L128.18 13.61Q127.90 13.55 127.74 13.50L127.74 13.50L127.74 13.50Q127.58 13.45 127.37 13.37L127.37 13.37L127.37 13.37Q127.16 13.29 127.15 13.29L127.15 13.29L127.15 13.29Q127.09 13.27 127.02 13.24L127.02 13.24L127.02 13.24Q126.94 13.22 126.90 13.21L126.90 13.21L126.90 13.21Q126.87 13.20 126.81 13.17L126.81 13.17L126.81 13.17Q126.76 13.15 126.73 13.13L126.73 13.13L126.73 13.13Q126.71 13.10 126.69 13.06L126.69 13.06L126.69 13.06Q126.66 13.02 126.65 12.96L126.65 12.96L126.65 12.96Q126.64 12.91 126.64 12.84ZM148.90 10.75L148.90 10.75L148.90 10.75Q148.90 9.41 149.81 8.42L149.81 8.42L149.81 8.42Q150.71 7.43 152.15 7.43L152.15 7.43L152.15 7.43Q152.64 7.43 153.21 7.57L153.21 7.57L153.21 7.57Q153.78 7.71 153.79 7.90L153.79 7.90L153.79 7.90Q153.82 8.23 153.82 8.55L153.82 8.55L153.82 8.55Q153.82 9.17 153.66 9.17L153.66 9.17L153.66 9.17Q153.58 9.17 153.52 9.11L153.52 9.11L153.52 9.11Q153.45 9.04 153.38 8.92L153.38 8.92L153.38 8.92Q153.30 8.79 153.20 8.72L153.20 8.72L153.20 8.72Q152.89 8.46 152.37 8.22L152.37 8.22L152.37 8.22Q151.84 7.98 151.34 7.98L151.34 7.98L151.34 7.98Q151.24 7.98 151.09 8.03L151.09 8.03L151.09 8.03Q150.93 8.08 150.73 8.24L150.73 8.24L150.73 8.24Q150.53 8.40 150.36 8.64L150.36 8.64L150.36 8.64Q150.19 8.89 150.07 9.32L150.07 9.32L150.07 9.32Q149.95 9.76 149.95 10.30L149.95 10.30L149.95 10.30Q149.95 11.40 150.65 12.20L150.65 12.20L150.65 12.20Q151.34 13.01 152.35 13.01L152.35 13.01L152.35 13.01Q152.84 13.01 153.26 12.82L153.26 12.82L153.26 12.82Q153.68 12.64 153.91 12.46L153.91 12.46L153.91 12.46Q154.14 12.28 154.20 12.28L154.20 12.28L154.20 12.28Q154.35 12.28 154.35 12.42L154.35 12.42L154.35 12.42Q154.35 12.46 154.26 12.60L154.26 12.60L154.26 12.60Q154.17 12.74 153.97 12.94L153.97 12.94L153.97 12.94Q153.76 13.13 153.48 13.31L153.48 13.31L153.48 13.31Q153.20 13.48 152.75 13.61L152.75 13.61L152.75 13.61Q152.31 13.73 151.80 13.73L151.80 13.73L151.80 13.73Q150.49 13.73 149.69 12.94L149.69 12.94L149.69 12.94Q148.90 12.14 148.90 10.75ZM162.23 10.60L162.23 10.60L162.23 10.60Q162.23 9.31 163.11 8.36L163.11 8.36L163.11 8.36Q163.98 7.41 165.54 7.41L165.54 7.41L165.54 7.41Q166.85 7.41 167.83 8.23L167.83 8.23L167.83 8.23Q168.80 9.06 168.80 10.51L168.80 10.51L168.80 10.51Q168.80 12.00 167.80 12.84L167.80 12.84L167.80 12.84Q166.80 13.69 165.44 13.69L165.44 13.69L165.44 13.69Q163.93 13.69 163.08 12.77L163.08 12.77L163.08 12.77Q162.23 11.86 162.23 10.60ZM163.34 10.12L163.34 10.12L163.34 10.12Q163.34 11.56 164.11 12.42L164.11 12.42L164.11 12.42Q164.88 13.27 165.86 13.27L165.86 13.27L165.86 13.27Q166.66 13.27 167.20 12.66L167.20 12.66L167.20 12.66Q167.75 12.05 167.75 10.93L167.75 10.93L167.75 10.93Q167.75 9.70 167.08 8.74L167.08 8.74L167.08 8.74Q166.40 7.78 165.20 7.78L165.20 7.78L165.20 7.78Q164.47 7.78 163.91 8.36L163.91 8.36L163.91 8.36Q163.34 8.93 163.34 10.12ZM176.78 7.98L176.78 7.98L176.78 7.98Q176.78 7.90 176.87 7.85L176.87 7.85L176.87 7.85Q176.96 7.81 177.17 7.78L177.17 7.78L177.17 7.78Q177.38 7.76 177.46 7.73L177.46 7.73L177.46 7.73Q177.73 7.66 178.02 7.54L178.02 7.54L178.02 7.54Q178.30 7.42 178.48 7.34L178.48 7.34L178.48 7.34Q178.65 7.25 178.71 7.25L178.71 7.25L178.74 7.25L178.74 7.25Q178.86 7.25 178.86 7.42L178.86 7.42L178.86 7.42Q178.86 7.45 178.85 7.67L178.85 7.67L178.85 7.67Q178.84 7.90 178.84 8.02L178.84 8.02L178.84 8.02Q178.84 8.39 178.91 8.39L178.91 8.39L178.91 8.39Q178.95 8.39 179.00 8.31L179.00 8.31L179.00 8.31Q179.06 8.23 179.21 8.08L179.21 8.08L179.21 8.08Q179.35 7.94 179.56 7.81L179.56 7.81L179.56 7.81Q180.19 7.42 180.78 7.42L180.78 7.42L180.78 7.42Q181.34 7.42 181.79 7.59L181.79 7.59L181.79 7.59Q182.24 7.77 182.49 8.03L182.49 8.03L182.49 8.03Q182.74 8.29 182.91 8.62L182.91 8.62L182.91 8.62Q183.08 8.96 183.13 9.24L183.13 9.24L183.13 9.24Q183.19 9.52 183.19 9.77L183.19 9.77L183.19 9.77Q183.19 9.83 183.19 9.90L183.19 9.90L183.19 9.90Q183.19 9.98 183.20 10.10L183.20 10.10L183.20 10.10Q183.20 10.22 183.20 10.65L183.20 10.65L183.20 10.65Q183.20 11.09 183.20 11.77L183.20 11.77L183.20 12.08L183.20 12.08Q183.20 12.61 183.35 12.82L183.35 12.82L183.35 12.82Q183.50 13.02 184.06 13.10L184.06 13.10L184.06 13.10Q184.34 13.15 184.34 13.31L184.34 13.31L184.34 13.31Q184.34 13.45 184.06 13.45L184.06 13.45L184.06 13.45Q183.74 13.45 183.39 13.42L183.39 13.42L183.39 13.42Q183.04 13.38 182.91 13.38L182.91 13.38L182.91 13.38Q182.71 13.38 182.30 13.41L182.30 13.41L182.30 13.41Q181.89 13.44 181.83 13.44L181.83 13.44L181.83 13.44Q181.55 13.44 181.55 13.26L181.55 13.26L181.55 13.26Q181.55 13.19 181.60 13.15L181.60 13.15L181.60 13.15Q181.65 13.10 181.71 13.09L181.71 13.09L181.71 13.09Q181.78 13.08 181.83 13.06L181.83 13.06L181.90 13.05L181.90 13.05Q182.21 12.95 182.21 12.11L182.21 12.11L182.21 10.22L182.21 10.22Q182.21 9.14 181.68 8.59L181.68 8.59L181.68 8.59Q181.15 8.04 180.40 8.04L180.40 8.04L180.40 8.04Q179.80 8.04 179.35 8.36L179.35 8.36L179.35 8.36Q178.91 8.68 178.84 8.89L178.84 8.89L178.84 8.89Q178.71 9.24 178.71 11.10L178.71 11.10L178.71 11.63L178.71 11.63Q178.71 12.33 178.86 12.67L178.86 12.67L178.86 12.67Q179.00 13.01 179.51 13.05L179.51 13.05L179.51 13.05Q179.65 13.05 179.86 13.10L179.86 13.10L179.86 13.10Q180.08 13.15 180.08 13.26L180.08 13.26L180.08 13.26Q180.08 13.44 179.82 13.44L179.82 13.44L179.82 13.44Q179.58 13.44 179.35 13.41L179.35 13.41L179.35 13.41Q179.13 13.38 178.79 13.38L178.79 13.38L178.79 13.38Q178.43 13.38 177.83 13.41L177.83 13.41L177.23 13.44L177.23 13.44Q177.02 13.44 177.02 13.30L177.02 13.30L177.02 13.30Q177.02 13.19 177.09 13.16L177.09 13.16L177.09 13.16Q177.16 13.13 177.26 13.12L177.26 13.12L177.26 13.12Q177.37 13.10 177.47 13.03L177.47 13.03L177.47 13.03Q177.58 12.96 177.66 12.69L177.66 12.69L177.66 12.69Q177.74 12.42 177.76 11.96L177.76 11.96L177.76 11.96Q177.79 11.17 177.79 10.91L177.79 10.91L177.79 8.89L177.79 8.89Q177.79 8.44 177.63 8.29L177.63 8.29L177.63 8.29Q177.46 8.13 177.18 8.13L177.18 8.13L177.04 8.13L177.04 8.13Q176.78 8.13 176.78 7.98ZM191.86 8.06L191.86 8.06L191.86 8.06Q191.86 7.98 191.91 7.92L191.91 7.92L191.91 7.92Q191.95 7.85 192.04 7.80L192.04 7.80L192.04 7.80Q192.12 7.74 192.28 7.61L192.28 7.61L192.28 7.61Q192.44 7.48 192.60 7.31L192.60 7.31L192.60 7.31Q192.81 7.08 193.04 6.77L193.04 6.77L193.04 6.77Q193.27 6.45 193.40 6.31L193.40 6.31L193.40 6.31Q193.54 6.16 193.66 6.16L193.66 6.16L193.66 6.16Q193.82 6.16 193.82 6.48L193.82 6.48L193.82 6.48Q193.82 6.61 193.79 6.87L193.79 6.87L193.79 6.87Q193.76 7.14 193.76 7.28L193.76 7.28L193.76 7.28Q193.76 7.48 193.84 7.52L193.84 7.52L193.84 7.52Q193.91 7.56 194.33 7.56L194.33 7.56L194.82 7.56L194.82 7.56Q195.13 7.56 195.35 7.53L195.35 7.53L195.35 7.53Q195.57 7.50 195.65 7.46L195.65 7.46L195.65 7.46Q195.73 7.42 195.80 7.39L195.80 7.39L195.80 7.39Q195.86 7.36 195.90 7.36L195.90 7.36L195.90 7.36Q196.04 7.36 196.04 7.52L196.04 7.52L196.04 7.52Q196.04 7.63 195.86 7.96L195.86 7.96L195.86 7.96Q195.68 8.29 195.59 8.29L195.59 8.29L195.59 8.29Q195.38 8.29 195.19 8.28L195.19 8.28L195.19 8.28Q194.99 8.27 194.85 8.27L194.85 8.27L194.85 8.27Q194.71 8.26 194.59 8.25L194.59 8.25L194.59 8.25Q194.46 8.23 194.38 8.22L194.38 8.22L194.38 8.22Q194.29 8.22 194.23 8.21L194.23 8.21L194.23 8.21Q194.17 8.20 194.14 8.20L194.14 8.20L194.11 8.19L194.11 8.19Q193.84 8.19 193.77 8.27L193.77 8.27L193.77 8.27Q193.69 8.36 193.69 8.65L193.69 8.65L193.69 8.65Q193.69 8.81 193.66 9.82L193.66 9.82L193.66 9.82Q193.63 10.84 193.63 11.26L193.63 11.26L193.63 11.26Q193.63 12.17 193.87 12.52L193.87 12.52L193.87 12.52Q194.10 12.88 194.84 12.88L194.84 12.88L194.84 12.88Q195.13 12.88 195.49 12.75L195.49 12.75L195.49 12.75Q195.85 12.61 195.87 12.61L195.87 12.61L195.87 12.61Q196.01 12.61 196.01 12.78L196.01 12.78L196.01 12.78Q196.01 12.98 195.53 13.28L195.53 13.28L195.53 13.28Q195.05 13.58 194.49 13.58L194.49 13.58L194.49 13.58Q192.60 13.58 192.60 11.94L192.60 11.94L192.60 11.73L192.60 11.73Q192.60 11.19 192.61 10.40L192.61 10.40L192.61 10.40Q192.63 9.62 192.64 9.05L192.64 9.05L192.64 9.05Q192.65 8.48 192.65 8.47L192.65 8.47L192.65 8.47Q192.65 8.33 192.60 8.29L192.60 8.29L192.60 8.29Q192.54 8.25 192.36 8.25L192.36 8.25L192.36 8.25Q192.30 8.25 192.21 8.25L192.21 8.25L192.21 8.25Q192.12 8.26 192.09 8.26L192.09 8.26L192.09 8.26Q191.86 8.26 191.86 8.06ZM203.57 8.12L203.57 8.12L203.57 8.12Q203.57 7.97 203.76 7.89L203.76 7.89L203.76 7.89Q203.95 7.81 204.46 7.65L204.46 7.65L204.46 7.65Q204.97 7.49 205.42 7.28L205.42 7.28L205.42 7.28Q205.56 7.22 205.62 7.22L205.62 7.22L205.62 7.22Q205.80 7.22 205.80 7.50L205.80 7.50L205.80 7.50Q205.80 7.56 205.79 7.69L205.79 7.69L205.79 7.69Q205.79 7.81 205.79 7.88L205.79 7.88L205.79 7.88Q205.79 8.18 205.80 8.30L205.80 8.30L205.80 8.30Q205.81 8.43 205.84 8.46L205.84 8.46L205.84 8.46Q205.86 8.48 205.90 8.48L205.90 8.48L205.90 8.48Q205.93 8.48 206.11 8.20L206.11 8.20L206.11 8.20Q206.29 7.92 206.63 7.64L206.63 7.64L206.63 7.64Q206.96 7.35 207.37 7.35L207.37 7.35L207.37 7.35Q207.62 7.35 208.03 7.62L208.03 7.62L208.03 7.62Q208.32 7.81 208.32 8.02L208.32 8.02L208.32 8.02Q208.32 8.27 208.21 8.47L208.21 8.47L208.21 8.47Q208.10 8.67 207.99 8.74L207.99 8.74L207.99 8.74Q207.89 8.81 207.84 8.81L207.84 8.81L207.84 8.81Q207.73 8.81 207.45 8.64L207.45 8.64L207.45 8.64Q207.16 8.47 206.78 8.47L206.78 8.47L206.78 8.47Q206.40 8.47 206.07 8.78L206.07 8.78L206.07 8.78Q205.74 9.09 205.74 9.34L205.74 9.34L205.74 10.79L205.74 10.79Q205.74 11.30 205.75 11.61L205.75 11.61L205.75 11.61Q205.76 11.93 205.76 12.00L205.76 12.00L205.76 12.00Q205.76 12.08 205.77 12.14L205.77 12.14L205.77 12.14Q205.77 12.19 205.77 12.26L205.77 12.26L205.77 12.26Q205.77 12.56 205.97 12.77L205.97 12.77L205.97 12.77Q206.16 12.98 206.43 13.02L206.43 13.02L206.43 13.02Q206.51 13.03 206.64 13.05L206.64 13.05L206.64 13.05Q206.77 13.06 206.84 13.07L206.84 13.07L206.84 13.07Q206.91 13.08 206.99 13.10L206.99 13.10L206.99 13.10Q207.07 13.12 207.11 13.16L207.11 13.16L207.11 13.16Q207.14 13.20 207.14 13.26L207.14 13.26L207.14 13.26Q207.14 13.48 206.98 13.48L206.98 13.48L206.98 13.48Q206.74 13.48 206.33 13.45L206.33 13.45L206.33 13.45Q205.93 13.41 205.79 13.41L205.79 13.41L205.79 13.41Q205.34 13.41 204.86 13.45L204.86 13.45L204.86 13.45Q204.39 13.48 204.33 13.48L204.33 13.48L204.33 13.48Q204.19 13.48 204.12 13.45L204.12 13.45L204.12 13.45Q204.05 13.43 204.04 13.40L204.04 13.40L204.04 13.40Q204.02 13.37 204.02 13.31L204.02 13.31L204.02 13.31Q204.02 13.13 204.20 13.08L204.20 13.08L204.20 13.08Q204.57 12.99 204.65 12.72L204.65 12.72L204.65 12.72Q204.72 12.45 204.72 11.55L204.72 11.55L204.72 11.55Q204.72 10.64 204.72 10.05L204.72 10.05L204.72 10.05Q204.71 9.46 204.71 9.30L204.71 9.30L204.71 9.30Q204.71 9.14 204.70 9.04L204.70 9.04L204.70 9.04Q204.69 8.95 204.69 8.88L204.69 8.88L204.69 8.88Q204.69 8.72 204.65 8.62L204.65 8.62L204.65 8.62Q204.61 8.53 204.45 8.44L204.45 8.44L204.45 8.44Q204.29 8.36 203.99 8.36L203.99 8.36L203.99 8.36Q203.98 8.36 203.92 8.35L203.92 8.35L203.92 8.35Q203.87 8.34 203.84 8.34L203.84 8.34L203.84 8.34Q203.57 8.34 203.57 8.12ZM216.19 12.25L216.19 12.25L216.19 12.25Q216.19 11.75 216.40 11.40L216.40 11.40L216.40 11.40Q216.61 11.06 217.04 10.87L217.04 10.87L217.04 10.87Q217.46 10.68 217.92 10.57L217.92 10.57L217.92 10.57Q218.39 10.46 219.04 10.35L219.04 10.35L219.04 10.35Q219.13 10.33 219.17 10.32L219.17 10.32L219.17 10.32Q219.21 10.32 219.28 10.31L219.28 10.31L219.28 10.31Q219.35 10.30 219.41 10.29L219.41 10.29L219.41 10.29Q219.51 10.28 219.54 10.26L219.54 10.26L219.54 10.26Q219.58 10.25 219.61 10.20L219.61 10.20L219.61 10.20Q219.65 10.15 219.65 10.07L219.65 10.07L219.65 10.07Q219.65 9.93 219.66 9.68L219.66 9.68L219.66 9.68Q219.67 9.44 219.67 9.34L219.67 9.34L219.67 9.34Q219.67 8.54 219.21 8.18L219.21 8.18L219.21 8.18Q218.75 7.83 218.32 7.83L218.32 7.83L218.32 7.83Q217.31 7.83 217.31 8.67L217.31 8.67L217.31 8.67Q217.31 8.78 217.34 8.95L217.34 8.95L217.34 8.95Q217.36 9.11 217.36 9.17L217.36 9.17L217.36 9.17Q217.36 9.45 217.11 9.45L217.11 9.45L217.11 9.45Q217.03 9.45 216.90 9.43L216.90 9.43L216.90 9.43Q216.78 9.41 216.62 9.36L216.62 9.36L216.62 9.36Q216.45 9.31 216.35 9.19L216.35 9.19L216.35 9.19Q216.24 9.07 216.24 8.90L216.24 8.90L216.24 8.90Q216.24 8.36 216.98 7.86L216.98 7.86L216.98 7.86Q217.71 7.36 218.60 7.36L218.60 7.36L218.60 7.36Q219.20 7.36 219.62 7.50L219.62 7.50L219.62 7.50Q220.04 7.64 220.24 7.82L220.24 7.82L220.24 7.82Q220.44 7.99 220.56 8.28L220.56 8.28L220.56 8.28Q220.67 8.57 220.68 8.73L220.68 8.73L220.68 8.73Q220.70 8.89 220.70 9.13L220.70 9.13L220.70 9.13Q220.70 10.14 220.66 10.72L220.66 10.72L220.66 10.72Q220.63 11.30 220.63 11.73L220.63 11.73L220.63 11.73Q220.63 12.25 220.74 12.55L220.74 12.55L220.74 12.55Q220.85 12.85 221.00 12.94L221.00 12.94L221.00 12.94Q221.16 13.02 221.31 13.03L221.31 13.03L221.31 13.03Q221.47 13.05 221.58 13.09L221.58 13.09L221.58 13.09Q221.69 13.13 221.69 13.26L221.69 13.26L221.69 13.26Q221.69 13.55 220.81 13.55L220.81 13.55L220.81 13.55Q220.44 13.55 220.19 13.36L220.19 13.36L220.19 13.36Q219.93 13.16 219.81 12.97L219.81 12.97L219.81 12.97Q219.70 12.78 219.69 12.78L219.69 12.78L219.69 12.78Q219.67 12.78 219.58 12.87L219.58 12.87L219.58 12.87Q219.48 12.96 219.30 13.09L219.30 13.09L219.30 13.09Q219.13 13.22 218.91 13.34L218.91 13.34L218.91 13.34Q218.69 13.47 218.41 13.56L218.41 13.56L218.41 13.56Q218.12 13.65 217.84 13.65L217.84 13.65L217.84 13.65Q216.94 13.65 216.54 13.23L216.54 13.23L216.54 13.23Q216.19 12.88 216.19 12.25ZM217.28 12.04L217.28 12.04L217.28 12.04Q217.28 12.52 217.56 12.80L217.56 12.80L217.56 12.80Q217.84 13.09 218.36 13.09L218.36 13.09L218.36 13.09Q218.72 13.09 218.98 12.98L218.98 12.98L218.98 12.98Q219.24 12.87 219.37 12.73L219.37 12.73L219.37 12.73Q219.49 12.59 219.56 12.36L219.56 12.36L219.56 12.36Q219.63 12.12 219.64 12.00L219.64 12.00L219.64 12.00Q219.65 11.87 219.65 11.66L219.65 11.66L219.65 10.65L219.65 10.65Q219.65 10.53 219.55 10.53L219.55 10.53L219.55 10.53Q219.52 10.53 219.48 10.54L219.48 10.54L219.48 10.54Q219.44 10.56 219.41 10.56L219.41 10.56L219.41 10.56Q219.09 10.61 219.00 10.63L219.00 10.63L219.00 10.63Q218.92 10.64 218.61 10.71L218.61 10.71L218.61 10.71Q218.30 10.78 218.18 10.84L218.18 10.84L218.18 10.84Q218.06 10.89 217.85 11.01L217.85 11.01L217.85 11.01Q217.63 11.13 217.54 11.26L217.54 11.26L217.54 11.26Q217.45 11.40 217.36 11.60L217.36 11.60L217.36 11.60Q217.28 11.80 217.28 12.04ZM229.74 12.84L229.74 12.84L229.74 11.62L229.74 11.62Q229.74 11.47 229.80 11.36L229.80 11.36L229.80 11.36Q229.87 11.26 229.95 11.26L229.95 11.26L229.95 11.26Q230.09 11.26 230.14 11.32L230.14 11.32L230.14 11.32Q230.19 11.38 230.23 11.58L230.23 11.58L230.23 11.58Q230.27 11.77 230.31 11.86L230.31 11.86L230.31 11.86Q230.83 13.15 231.77 13.15L231.77 13.15L231.77 13.15Q232.20 13.15 232.60 12.91L232.60 12.91L232.60 12.91Q232.99 12.68 232.99 12.15L232.99 12.15L232.99 12.15Q232.99 11.69 232.67 11.38L232.67 11.38L232.67 11.38Q232.34 11.07 231.88 10.90L231.88 10.90L231.88 10.90Q231.42 10.72 230.96 10.54L230.96 10.54L230.96 10.54Q230.50 10.35 230.17 9.97L230.17 9.97L230.17 9.97Q229.85 9.60 229.85 9.04L229.85 9.04L229.85 9.04Q229.85 8.26 230.48 7.78L230.48 7.78L230.48 7.78Q231.11 7.31 231.97 7.31L231.97 7.31L231.97 7.31Q232.62 7.31 233.02 7.43L233.02 7.43L233.02 7.43Q233.41 7.55 233.49 7.64L233.49 7.64L233.49 7.64Q233.56 7.74 233.56 7.83L233.56 7.83L233.56 7.83Q233.56 7.84 233.59 8.20L233.59 8.20L233.59 8.20Q233.62 8.57 233.62 8.67L233.62 8.67L233.62 8.67Q233.62 8.90 233.56 8.99L233.56 8.99L233.56 8.99Q233.51 9.07 233.37 9.07L233.37 9.07L233.37 9.07Q233.30 9.07 233.18 8.87L233.18 8.87L233.18 8.87Q233.06 8.67 232.91 8.43L232.91 8.43L232.91 8.43Q232.76 8.19 232.44 7.99L232.44 7.99L232.44 7.99Q232.11 7.78 231.67 7.78L231.67 7.78L231.67 7.78Q231.27 7.78 231.00 7.99L231.00 7.99L231.00 7.99Q230.73 8.19 230.73 8.50L230.73 8.50L230.73 8.50Q230.73 8.67 230.78 8.81L230.78 8.81L230.78 8.81Q230.82 8.96 230.92 9.07L230.92 9.07L230.92 9.07Q231.03 9.18 231.11 9.26L231.11 9.26L231.11 9.26Q231.18 9.34 231.36 9.42L231.36 9.42L231.36 9.42Q231.55 9.51 231.64 9.54L231.64 9.54L231.64 9.54Q231.73 9.58 231.95 9.65L231.95 9.65L231.95 9.65Q232.16 9.73 232.23 9.76L232.23 9.76L232.23 9.76Q233.24 10.14 233.59 10.55L233.59 10.55L233.59 10.55Q233.94 10.96 233.94 11.77L233.94 11.77L233.94 11.77Q233.94 12.56 233.20 13.23L233.20 13.23L233.20 13.23Q232.69 13.66 231.81 13.66L231.81 13.66L231.81 13.66Q231.56 13.66 231.28 13.61L231.28 13.61L231.28 13.61Q231.00 13.55 230.84 13.50L230.84 13.50L230.84 13.50Q230.68 13.45 230.47 13.37L230.47 13.37L230.47 13.37Q230.26 13.29 230.24 13.29L230.24 13.29L230.24 13.29Q230.19 13.27 230.11 13.24L230.11 13.24L230.11 13.24Q230.03 13.22 230.00 13.21L230.00 13.21L230.00 13.21Q229.96 13.20 229.91 13.17L229.91 13.17L229.91 13.17Q229.85 13.15 229.83 13.13L229.83 13.13L229.83 13.13Q229.81 13.10 229.78 13.06L229.78 13.06L229.78 13.06Q229.75 13.02 229.75 12.96L229.75 12.96L229.75 12.96Q229.74 12.91 229.74 12.84ZM242.02 10.72L242.02 10.72L242.02 10.72Q242.02 9.32 242.81 8.36L242.81 8.36L242.81 8.36Q243.60 7.39 244.86 7.39L244.86 7.39L244.86 7.39Q245.45 7.39 245.93 7.60L245.93 7.60L245.93 7.60Q246.41 7.81 246.68 8.11L246.68 8.11L246.68 8.11Q246.95 8.41 247.13 8.75L247.13 8.75L247.13 8.75Q247.31 9.09 247.37 9.30L247.37 9.30L247.37 9.30Q247.44 9.52 247.44 9.62L247.44 9.62L247.44 9.62Q247.44 9.87 246.86 9.87L246.86 9.87L243.68 9.87L243.26 9.87L243.26 9.87Q243.15 9.87 243.13 9.89L243.13 9.89L243.13 9.89Q243.11 9.91 243.11 10.02L243.11 10.02L243.11 10.02Q243.11 11.34 243.82 12.10L243.82 12.10L243.82 12.10Q244.52 12.85 245.48 12.85L245.48 12.85L245.48 12.85Q246.06 12.85 246.67 12.54L246.67 12.54L246.67 12.54Q247.28 12.22 247.31 12.22L247.31 12.22L247.31 12.22Q247.45 12.22 247.45 12.35L247.45 12.35L247.45 12.35Q247.45 12.40 247.35 12.55L247.35 12.55L247.35 12.55Q247.25 12.70 247.04 12.89L247.04 12.89L247.04 12.89Q246.83 13.09 246.55 13.27L246.55 13.27L246.55 13.27Q246.27 13.45 245.85 13.58L245.85 13.58L245.85 13.58Q245.43 13.71 244.97 13.71L244.97 13.71L244.97 13.71Q243.74 13.71 242.88 12.95L242.88 12.95L242.88 12.95Q242.02 12.19 242.02 10.72ZM243.19 9.34L243.19 9.34L243.19 9.34Q243.19 9.53 243.38 9.53L243.38 9.53L243.38 9.53Q243.75 9.53 244.76 9.49L244.76 9.49L244.76 9.49Q245.77 9.45 245.84 9.45L245.84 9.45L245.84 9.45Q246.04 9.45 246.09 9.41L246.09 9.41L246.09 9.41Q246.13 9.38 246.13 9.28L246.13 9.28L246.13 9.28Q246.13 8.86 245.74 8.30L245.74 8.30L245.74 8.30Q245.35 7.74 244.62 7.74L244.62 7.74L244.62 7.74Q243.95 7.74 243.57 8.29L243.57 8.29L243.57 8.29Q243.19 8.85 243.19 9.34ZM257.18 6.02L257.18 6.02L257.18 6.02Q257.18 5.78 257.65 5.16L257.65 5.16L257.65 5.16Q258.12 4.54 258.54 4.54L258.54 4.54L258.54 4.54Q258.87 4.54 259.41 4.87L259.41 4.87L259.41 4.87Q259.94 5.21 260.29 5.21L260.29 5.21L260.29 5.21Q260.55 5.21 260.84 4.82L260.84 4.82L260.84 4.82Q261.13 4.42 261.16 4.42L261.16 4.42L261.16 4.42Q261.30 4.42 261.30 4.59L261.30 4.59L261.30 4.59Q261.30 4.84 260.83 5.43L260.83 5.43L260.83 5.43Q260.37 6.02 259.95 6.02L259.95 6.02L259.95 6.02Q259.59 6.02 259.04 5.68L259.04 5.68L259.04 5.68Q258.48 5.35 258.19 5.35L258.19 5.35L258.19 5.35Q257.98 5.35 257.79 5.54L257.79 5.54L257.79 5.54Q257.60 5.74 257.48 5.94L257.48 5.94L257.48 5.94Q257.36 6.13 257.32 6.13L257.32 6.13L257.32 6.13Q257.18 6.13 257.18 6.02ZM255.43 7.98L255.43 7.98L255.43 7.98Q255.43 7.90 255.52 7.85L255.52 7.85L255.52 7.85Q255.61 7.81 255.82 7.78L255.82 7.78L255.82 7.78Q256.03 7.76 256.12 7.73L256.12 7.73L256.12 7.73Q256.38 7.66 256.67 7.54L256.67 7.54L256.67 7.54Q256.96 7.42 257.13 7.34L257.13 7.34L257.13 7.34Q257.31 7.25 257.36 7.25L257.36 7.25L257.39 7.25L257.39 7.25Q257.52 7.25 257.52 7.42L257.52 7.42L257.52 7.42Q257.52 7.45 257.50 7.67L257.50 7.67L257.50 7.67Q257.49 7.90 257.49 8.02L257.49 8.02L257.49 8.02Q257.49 8.39 257.56 8.39L257.56 8.39L257.56 8.39Q257.60 8.39 257.66 8.31L257.66 8.31L257.66 8.31Q257.71 8.23 257.86 8.08L257.86 8.08L257.86 8.08Q258.01 7.94 258.22 7.81L258.22 7.81L258.22 7.81Q258.85 7.42 259.43 7.42L259.43 7.42L259.43 7.42Q259.99 7.42 260.44 7.59L260.44 7.59L260.44 7.59Q260.89 7.77 261.14 8.03L261.14 8.03L261.14 8.03Q261.39 8.29 261.56 8.62L261.56 8.62L261.56 8.62Q261.73 8.96 261.79 9.24L261.79 9.24L261.79 9.24Q261.84 9.52 261.84 9.77L261.84 9.77L261.84 9.77Q261.84 9.83 261.84 9.90L261.84 9.90L261.84 9.90Q261.84 9.98 261.85 10.10L261.85 10.10L261.85 10.10Q261.86 10.22 261.86 10.65L261.86 10.65L261.86 10.65Q261.86 11.09 261.86 11.77L261.86 11.77L261.86 12.08L261.86 12.08Q261.86 12.61 262.00 12.82L262.00 12.82L262.00 12.82Q262.15 13.02 262.71 13.10L262.71 13.10L262.71 13.10Q262.99 13.15 262.99 13.31L262.99 13.31L262.99 13.31Q262.99 13.45 262.71 13.45L262.71 13.45L262.71 13.45Q262.39 13.45 262.04 13.42L262.04 13.42L262.04 13.42Q261.69 13.38 261.56 13.38L261.56 13.38L261.56 13.38Q261.37 13.38 260.95 13.41L260.95 13.41L260.95 13.41Q260.54 13.44 260.48 13.44L260.48 13.44L260.48 13.44Q260.20 13.44 260.20 13.26L260.20 13.26L260.20 13.26Q260.20 13.19 260.25 13.15L260.25 13.15L260.25 13.15Q260.30 13.10 260.37 13.09L260.37 13.09L260.37 13.09Q260.43 13.08 260.48 13.06L260.48 13.06L260.55 13.05L260.55 13.05Q260.86 12.95 260.86 12.11L260.86 12.11L260.86 10.22L260.86 10.22Q260.86 9.14 260.33 8.59L260.33 8.59L260.33 8.59Q259.80 8.04 259.06 8.04L259.06 8.04L259.06 8.04Q258.45 8.04 258.01 8.36L258.01 8.36L258.01 8.36Q257.56 8.68 257.49 8.89L257.49 8.89L257.49 8.89Q257.36 9.24 257.36 11.10L257.36 11.10L257.36 11.63L257.36 11.63Q257.36 12.33 257.51 12.67L257.51 12.67L257.51 12.67Q257.66 13.01 258.16 13.05L258.16 13.05L258.16 13.05Q258.30 13.05 258.52 13.10L258.52 13.10L258.52 13.10Q258.73 13.15 258.73 13.26L258.73 13.26L258.73 13.26Q258.73 13.44 258.47 13.44L258.47 13.44L258.47 13.44Q258.23 13.44 258.01 13.41L258.01 13.41L258.01 13.41Q257.78 13.38 257.45 13.38L257.45 13.38L257.45 13.38Q257.08 13.38 256.48 13.41L256.48 13.41L255.88 13.44L255.88 13.44Q255.67 13.44 255.67 13.30L255.67 13.30L255.67 13.30Q255.67 13.19 255.74 13.16L255.74 13.16L255.74 13.16Q255.81 13.13 255.91 13.12L255.91 13.12L255.91 13.12Q256.02 13.10 256.12 13.03L256.12 13.03L256.12 13.03Q256.23 12.96 256.31 12.69L256.31 12.69L256.31 12.69Q256.40 12.42 256.41 11.96L256.41 11.96L256.41 11.96Q256.44 11.17 256.44 10.91L256.44 10.91L256.44 8.89L256.44 8.89Q256.44 8.44 256.28 8.29L256.28 8.29L256.28 8.29Q256.12 8.13 255.84 8.13L255.84 8.13L255.70 8.13L255.70 8.13Q255.43 8.13 255.43 7.98ZM270.94 12.25L270.94 12.25L270.94 12.25Q270.94 11.75 271.15 11.40L271.15 11.40L271.15 11.40Q271.36 11.06 271.79 10.87L271.79 10.87L271.79 10.87Q272.22 10.68 272.68 10.57L272.68 10.57L272.68 10.57Q273.14 10.46 273.80 10.35L273.80 10.35L273.80 10.35Q273.88 10.33 273.92 10.32L273.92 10.32L273.92 10.32Q273.97 10.32 274.04 10.31L274.04 10.31L274.04 10.31Q274.11 10.30 274.16 10.29L274.16 10.29L274.16 10.29Q274.26 10.28 274.30 10.26L274.30 10.26L274.30 10.26Q274.33 10.25 274.37 10.20L274.37 10.20L274.37 10.20Q274.40 10.15 274.40 10.07L274.40 10.07L274.40 10.07Q274.40 9.93 274.41 9.68L274.41 9.68L274.41 9.68Q274.43 9.44 274.43 9.34L274.43 9.34L274.43 9.34Q274.43 8.54 273.97 8.18L273.97 8.18L273.97 8.18Q273.50 7.83 273.07 7.83L273.07 7.83L273.07 7.83Q272.06 7.83 272.06 8.67L272.06 8.67L272.06 8.67Q272.06 8.78 272.09 8.95L272.09 8.95L272.09 8.95Q272.12 9.11 272.12 9.17L272.12 9.17L272.12 9.17Q272.12 9.45 271.87 9.45L271.87 9.45L271.87 9.45Q271.78 9.45 271.66 9.43L271.66 9.43L271.66 9.43Q271.53 9.41 271.37 9.36L271.37 9.36L271.37 9.36Q271.21 9.31 271.10 9.19L271.10 9.19L271.10 9.19Q271.00 9.07 271.00 8.90L271.00 8.90L271.00 8.90Q271.00 8.36 271.73 7.86L271.73 7.86L271.73 7.86Q272.47 7.36 273.35 7.36L273.35 7.36L273.35 7.36Q273.95 7.36 274.37 7.50L274.37 7.50L274.37 7.50Q274.79 7.64 275.00 7.82L275.00 7.82L275.00 7.82Q275.20 7.99 275.31 8.28L275.31 8.28L275.31 8.28Q275.42 8.57 275.44 8.73L275.44 8.73L275.44 8.73Q275.45 8.89 275.45 9.13L275.45 9.13L275.45 9.13Q275.45 10.14 275.42 10.72L275.42 10.72L275.42 10.72Q275.38 11.30 275.38 11.73L275.38 11.73L275.38 11.73Q275.38 12.25 275.49 12.55L275.49 12.55L275.49 12.55Q275.60 12.85 275.76 12.94L275.76 12.94L275.76 12.94Q275.91 13.02 276.07 13.03L276.07 13.03L276.07 13.03Q276.22 13.05 276.33 13.09L276.33 13.09L276.33 13.09Q276.44 13.13 276.44 13.26L276.44 13.26L276.44 13.26Q276.44 13.55 275.56 13.55L275.56 13.55L275.56 13.55Q275.20 13.55 274.94 13.36L274.94 13.36L274.94 13.36Q274.68 13.16 274.57 12.97L274.57 12.97L274.57 12.97Q274.46 12.78 274.44 12.78L274.44 12.78L274.44 12.78Q274.43 12.78 274.33 12.87L274.33 12.87L274.33 12.87Q274.23 12.96 274.06 13.09L274.06 13.09L274.06 13.09Q273.88 13.22 273.67 13.34L273.67 13.34L273.67 13.34Q273.45 13.47 273.16 13.56L273.16 13.56L273.16 13.56Q272.87 13.65 272.59 13.65L272.59 13.65L272.59 13.65Q271.70 13.65 271.29 13.23L271.29 13.23L271.29 13.23Q270.94 12.88 270.94 12.25ZM272.03 12.04L272.03 12.04L272.03 12.04Q272.03 12.52 272.31 12.80L272.31 12.80L272.31 12.80Q272.59 13.09 273.11 13.09L273.11 13.09L273.11 13.09Q273.48 13.09 273.74 12.98L273.74 12.98L273.74 12.98Q273.99 12.87 274.12 12.73L274.12 12.73L274.12 12.73Q274.25 12.59 274.32 12.36L274.32 12.36L274.32 12.36Q274.39 12.12 274.39 12.00L274.39 12.00L274.39 12.00Q274.40 11.87 274.40 11.66L274.40 11.66L274.40 10.65L274.40 10.65Q274.40 10.53 274.30 10.53L274.30 10.53L274.30 10.53Q274.27 10.53 274.23 10.54L274.23 10.54L274.23 10.54Q274.19 10.56 274.16 10.56L274.16 10.56L274.16 10.56Q273.84 10.61 273.76 10.63L273.76 10.63L273.76 10.63Q273.67 10.64 273.36 10.71L273.36 10.71L273.36 10.71Q273.06 10.78 272.94 10.84L272.94 10.84L272.94 10.84Q272.82 10.89 272.60 11.01L272.60 11.01L272.60 11.01Q272.38 11.13 272.29 11.26L272.29 11.26L272.29 11.26Q272.20 11.40 272.12 11.60L272.12 11.60L272.12 11.60Q272.03 11.80 272.03 12.04ZM284.49 12.84L284.49 12.84L284.49 11.62L284.49 11.62Q284.49 11.47 284.56 11.36L284.56 11.36L284.56 11.36Q284.62 11.26 284.70 11.26L284.70 11.26L284.70 11.26Q284.84 11.26 284.89 11.32L284.89 11.32L284.89 11.32Q284.94 11.38 284.98 11.58L284.98 11.58L284.98 11.58Q285.03 11.77 285.07 11.86L285.07 11.86L285.07 11.86Q285.59 13.15 286.52 13.15L286.52 13.15L286.52 13.15Q286.96 13.15 287.35 12.91L287.35 12.91L287.35 12.91Q287.74 12.68 287.74 12.15L287.74 12.15L287.74 12.15Q287.74 11.69 287.42 11.38L287.42 11.38L287.42 11.38Q287.10 11.07 286.64 10.90L286.64 10.90L286.64 10.90Q286.17 10.72 285.71 10.54L285.71 10.54L285.71 10.54Q285.25 10.35 284.93 9.97L284.93 9.97L284.93 9.97Q284.61 9.60 284.61 9.04L284.61 9.04L284.61 9.04Q284.61 8.26 285.24 7.78L285.24 7.78L285.24 7.78Q285.87 7.31 286.72 7.31L286.72 7.31L286.72 7.31Q287.38 7.31 287.77 7.43L287.77 7.43L287.77 7.43Q288.16 7.55 288.24 7.64L288.24 7.64L288.24 7.64Q288.32 7.74 288.32 7.83L288.32 7.83L288.32 7.83Q288.32 7.84 288.34 8.20L288.34 8.20L288.34 8.20Q288.37 8.57 288.37 8.67L288.37 8.67L288.37 8.67Q288.37 8.90 288.32 8.99L288.32 8.99L288.32 8.99Q288.26 9.07 288.12 9.07L288.12 9.07L288.12 9.07Q288.05 9.07 287.93 8.87L287.93 8.87L287.93 8.87Q287.81 8.67 287.67 8.43L287.67 8.43L287.67 8.43Q287.52 8.19 287.19 7.99L287.19 7.99L287.19 7.99Q286.86 7.78 286.43 7.78L286.43 7.78L286.43 7.78Q286.02 7.78 285.75 7.99L285.75 7.99L285.75 7.99Q285.49 8.19 285.49 8.50L285.49 8.50L285.49 8.50Q285.49 8.67 285.53 8.81L285.53 8.81L285.53 8.81Q285.57 8.96 285.68 9.07L285.68 9.07L285.68 9.07Q285.78 9.18 285.86 9.26L285.86 9.26L285.86 9.26Q285.94 9.34 286.12 9.42L286.12 9.42L286.12 9.42Q286.30 9.51 286.39 9.54L286.39 9.54L286.39 9.54Q286.48 9.58 286.70 9.65L286.70 9.65L286.70 9.65Q286.92 9.73 286.99 9.76L286.99 9.76L286.99 9.76Q287.99 10.14 288.34 10.55L288.34 10.55L288.34 10.55Q288.69 10.96 288.69 11.77L288.69 11.77L288.69 11.77Q288.69 12.56 287.95 13.23L287.95 13.23L287.95 13.23Q287.45 13.66 286.57 13.66L286.57 13.66L286.57 13.66Q286.31 13.66 286.03 13.61L286.03 13.61L286.03 13.61Q285.75 13.55 285.59 13.50L285.59 13.50L285.59 13.50Q285.43 13.45 285.22 13.37L285.22 13.37L285.22 13.37Q285.01 13.29 285.00 13.29L285.00 13.29L285.00 13.29Q284.94 13.27 284.87 13.24L284.87 13.24L284.87 13.24Q284.79 13.22 284.75 13.21L284.75 13.21L284.75 13.21Q284.72 13.20 284.66 13.17L284.66 13.17L284.66 13.17Q284.61 13.15 284.59 13.13L284.59 13.13L284.59 13.13Q284.56 13.10 284.54 13.06L284.54 13.06L284.54 13.06Q284.51 13.02 284.50 12.96L284.50 12.96L284.50 12.96Q284.49 12.91 284.49 12.84ZM306.98 12.84L306.98 12.84L306.98 11.62L306.98 11.62Q306.98 11.47 307.04 11.36L307.04 11.36L307.04 11.36Q307.10 11.26 307.19 11.26L307.19 11.26L307.19 11.26Q307.33 11.26 307.38 11.32L307.38 11.32L307.38 11.32Q307.43 11.38 307.47 11.58L307.47 11.58L307.47 11.58Q307.51 11.77 307.55 11.86L307.55 11.86L307.55 11.86Q308.07 13.15 309.01 13.15L309.01 13.15L309.01 13.15Q309.44 13.15 309.83 12.91L309.83 12.91L309.83 12.91Q310.23 12.68 310.23 12.15L310.23 12.15L310.23 12.15Q310.23 11.69 309.90 11.38L309.90 11.38L309.90 11.38Q309.58 11.07 309.12 10.90L309.12 10.90L309.12 10.90Q308.66 10.72 308.20 10.54L308.20 10.54L308.20 10.54Q307.73 10.35 307.41 9.97L307.41 9.97L307.41 9.97Q307.09 9.60 307.09 9.04L307.09 9.04L307.09 9.04Q307.09 8.26 307.72 7.78L307.72 7.78L307.72 7.78Q308.35 7.31 309.20 7.31L309.20 7.31L309.20 7.31Q309.86 7.31 310.25 7.43L310.25 7.43L310.25 7.43Q310.65 7.55 310.72 7.64L310.72 7.64L310.72 7.64Q310.80 7.74 310.80 7.83L310.80 7.83L310.80 7.83Q310.80 7.84 310.83 8.20L310.83 8.20L310.83 8.20Q310.86 8.57 310.86 8.67L310.86 8.67L310.86 8.67Q310.86 8.90 310.80 8.99L310.80 8.99L310.80 8.99Q310.74 9.07 310.60 9.07L310.60 9.07L310.60 9.07Q310.53 9.07 310.42 8.87L310.42 8.87L310.42 8.87Q310.30 8.67 310.15 8.43L310.15 8.43L310.15 8.43Q310.00 8.19 309.67 7.99L309.67 7.99L309.67 7.99Q309.34 7.78 308.91 7.78L308.91 7.78L308.91 7.78Q308.50 7.78 308.24 7.99L308.24 7.99L308.24 7.99Q307.97 8.19 307.97 8.50L307.97 8.50L307.97 8.50Q307.97 8.67 308.01 8.81L308.01 8.81L308.01 8.81Q308.06 8.96 308.16 9.07L308.16 9.07L308.16 9.07Q308.27 9.18 308.34 9.26L308.34 9.26L308.34 9.26Q308.42 9.34 308.60 9.42L308.60 9.42L308.60 9.42Q308.78 9.51 308.88 9.54L308.88 9.54L308.88 9.54Q308.97 9.58 309.18 9.65L309.18 9.65L309.18 9.65Q309.40 9.73 309.47 9.76L309.47 9.76L309.47 9.76Q310.48 10.14 310.83 10.55L310.83 10.55L310.83 10.55Q311.18 10.96 311.18 11.77L311.18 11.77L311.18 11.77Q311.18 12.56 310.44 13.23L310.44 13.23L310.44 13.23Q309.93 13.66 309.05 13.66L309.05 13.66L309.05 13.66Q308.80 13.66 308.52 13.61L308.52 13.61L308.52 13.61Q308.24 13.55 308.08 13.50L308.08 13.50L308.08 13.50Q307.92 13.45 307.71 13.37L307.71 13.37L307.71 13.37Q307.50 13.29 307.48 13.29L307.48 13.29L307.48 13.29Q307.43 13.27 307.35 13.24L307.35 13.24L307.35 13.24Q307.27 13.22 307.24 13.21L307.24 13.21L307.24 13.21Q307.20 13.20 307.15 13.17L307.15 13.17L307.15 13.17Q307.09 13.15 307.07 13.13L307.07 13.13L307.07 13.13Q307.05 13.10 307.02 13.06L307.02 13.06L307.02 13.06Q306.99 13.02 306.99 12.96L306.99 12.96L306.99 12.96Q306.98 12.91 306.98 12.84ZM319.26 10.72L319.26 10.72L319.26 10.72Q319.26 9.32 320.05 8.36L320.05 8.36L320.05 8.36Q320.84 7.39 322.10 7.39L322.10 7.39L322.10 7.39Q322.69 7.39 323.17 7.60L323.17 7.60L323.17 7.60Q323.65 7.81 323.92 8.11L323.92 8.11L323.92 8.11Q324.18 8.41 324.37 8.75L324.37 8.75L324.37 8.75Q324.55 9.09 324.61 9.30L324.61 9.30L324.61 9.30Q324.67 9.52 324.67 9.62L324.67 9.62L324.67 9.62Q324.67 9.87 324.10 9.87L324.10 9.87L320.92 9.87L320.50 9.87L320.50 9.87Q320.39 9.87 320.37 9.89L320.37 9.89L320.37 9.89Q320.35 9.91 320.35 10.02L320.35 10.02L320.35 10.02Q320.35 11.34 321.06 12.10L321.06 12.10L321.06 12.10Q321.76 12.85 322.71 12.85L322.71 12.85L322.71 12.85Q323.30 12.85 323.91 12.54L323.91 12.54L323.91 12.54Q324.52 12.22 324.55 12.22L324.55 12.22L324.55 12.22Q324.69 12.22 324.69 12.35L324.69 12.35L324.69 12.35Q324.69 12.40 324.59 12.55L324.59 12.55L324.59 12.55Q324.49 12.70 324.28 12.89L324.28 12.89L324.28 12.89Q324.07 13.09 323.79 13.27L323.79 13.27L323.79 13.27Q323.51 13.45 323.09 13.58L323.09 13.58L323.09 13.58Q322.67 13.71 322.21 13.71L322.21 13.71L322.21 13.71Q320.98 13.71 320.12 12.95L320.12 12.95L320.12 12.95Q319.26 12.19 319.26 10.72ZM320.43 9.34L320.43 9.34L320.43 9.34Q320.43 9.53 320.61 9.53L320.61 9.53L320.61 9.53Q320.99 9.53 322.00 9.49L322.00 9.49L322.00 9.49Q323.01 9.45 323.08 9.45L323.08 9.45L323.08 9.45Q323.27 9.45 323.32 9.41L323.32 9.41L323.32 9.41Q323.37 9.38 323.37 9.28L323.37 9.28L323.37 9.28Q323.37 8.86 322.98 8.30L322.98 8.30L322.98 8.30Q322.59 7.74 321.86 7.74L321.86 7.74L321.86 7.74Q321.19 7.74 320.81 8.29L320.81 8.29L320.81 8.29Q320.43 8.85 320.43 9.34ZM332.78 14.80L332.78 14.80L332.78 14.80Q332.78 14.42 333.03 14.16L333.03 14.16L333.03 14.16Q333.28 13.90 333.54 13.78L333.54 13.78L333.54 13.78Q333.79 13.65 333.79 13.61L333.79 13.61L333.79 13.61Q333.79 13.58 333.72 13.52L333.72 13.52L333.72 13.52Q333.65 13.47 333.56 13.40L333.56 13.40L333.56 13.40Q333.47 13.33 333.40 13.16L333.40 13.16L333.40 13.16Q333.33 12.99 333.33 12.78L333.33 12.78L333.33 12.78Q333.33 12.36 333.51 12.05L333.51 12.05L333.51 12.05Q333.69 11.75 333.87 11.59L333.87 11.59L333.87 11.59Q334.05 11.44 334.05 11.40L334.05 11.40L334.05 11.40Q334.05 11.34 333.91 11.21L333.91 11.21L333.91 11.21Q333.76 11.09 333.58 10.93L333.58 10.93L333.58 10.93Q333.40 10.77 333.25 10.39L333.25 10.39L333.25 10.39Q333.10 10.02 333.10 9.52L333.10 9.52L333.10 9.52Q333.10 9.20 333.21 8.87L333.21 8.87L333.21 8.87Q333.31 8.54 333.56 8.18L333.56 8.18L333.56 8.18Q333.80 7.83 334.31 7.60L334.31 7.60L334.31 7.60Q334.82 7.38 335.52 7.38L335.52 7.38L335.52 7.38Q336.07 7.38 336.46 7.52L336.46 7.52L336.46 7.52Q336.85 7.66 337.04 7.80L337.04 7.80L337.04 7.80Q337.23 7.94 337.29 7.94L337.29 7.94L337.29 7.94Q337.40 7.94 338.00 7.69L338.00 7.69L338.00 7.69Q338.20 7.60 338.30 7.31L338.30 7.31L338.30 7.31Q338.39 7.01 338.51 7.01L338.51 7.01L338.51 7.01Q338.69 7.01 338.69 7.13L338.69 7.13L338.69 7.13Q338.69 7.46 338.59 7.85L338.59 7.85L338.59 7.85Q338.49 8.23 338.38 8.40L338.38 8.40L338.38 8.40Q338.21 8.67 337.81 8.83L337.81 8.83L337.81 8.83Q337.96 9.25 337.96 9.53L337.96 9.53L337.96 9.53Q337.96 10.43 337.29 11.05L337.29 11.05L337.29 11.05Q336.62 11.66 335.65 11.66L335.65 11.66L335.65 11.66Q335.29 11.66 334.96 11.60L334.96 11.60L334.96 11.60Q334.63 11.54 334.57 11.54L334.57 11.54L334.57 11.54Q334.50 11.54 334.39 11.56L334.39 11.56L334.39 11.56Q334.28 11.59 334.11 11.76L334.11 11.76L334.11 11.76Q333.94 11.93 333.94 12.22L333.94 12.22L333.94 12.22Q333.94 12.70 334.38 12.82L334.38 12.82L334.38 12.82Q334.81 12.95 335.82 12.95L335.82 12.95L336.46 12.95L336.46 12.95Q338.49 12.95 338.49 14.18L338.49 14.18L338.49 14.18Q338.49 14.62 338.39 14.84L338.39 14.84L338.39 14.84Q338.13 15.53 337.30 15.93L337.30 15.93L337.30 15.93Q336.48 16.34 335.38 16.34L335.38 16.34L335.38 16.34Q334.75 16.34 334.21 16.22L334.21 16.22L334.21 16.22Q333.66 16.10 333.22 15.74L333.22 15.74L333.22 15.74Q332.78 15.37 332.78 14.80ZM333.59 14.71L333.59 14.71L333.59 14.71Q333.59 15.33 334.11 15.64L334.11 15.64L334.11 15.64Q334.63 15.96 335.38 15.96L335.38 15.96L335.38 15.96Q336.25 15.96 336.95 15.60L336.95 15.60L336.95 15.60Q337.64 15.25 337.64 14.69L337.64 14.69L337.64 14.69Q337.64 14.43 337.53 14.28L337.53 14.28L337.53 14.28Q337.41 14.13 337.15 14.06L337.15 14.06L337.15 14.06Q336.88 14 336.68 13.99L336.68 13.99L336.68 13.99Q336.48 13.97 336.08 13.97L336.08 13.97L335.96 13.97L335.96 13.97Q335.51 13.97 334.87 13.87L334.87 13.87L334.24 13.78L334.24 13.78Q334.10 13.78 333.84 14.06L333.84 14.06L333.84 14.06Q333.59 14.34 333.59 14.71ZM334.17 9.38L334.17 9.38L334.17 9.38Q334.17 10.22 334.57 10.78L334.57 10.78L334.57 10.78Q334.96 11.34 335.57 11.34L335.57 11.34L335.57 11.34Q336.20 11.34 336.53 10.86L336.53 10.86L336.53 10.86Q336.87 10.37 336.87 9.67L336.87 9.67L336.87 9.67Q336.87 8.89 336.48 8.29L336.48 8.29L336.48 8.29Q336.08 7.69 335.41 7.69L335.41 7.69L335.41 7.69Q334.89 7.69 334.53 8.13L334.53 8.13L334.53 8.13Q334.17 8.57 334.17 9.38ZM346.47 7.92L346.47 7.92L346.47 7.92Q346.47 7.83 346.54 7.76L346.54 7.76L346.54 7.76Q346.60 7.70 346.81 7.66L346.81 7.66L346.81 7.66Q347.02 7.62 347.41 7.62L347.41 7.62L347.41 7.62Q347.51 7.62 347.84 7.58L347.84 7.58L347.84 7.58Q348.18 7.55 348.21 7.55L348.21 7.55L348.21 7.55Q348.45 7.55 348.49 7.64L348.49 7.64L348.49 7.64Q348.53 7.74 348.53 8.25L348.53 8.25L348.53 8.25Q348.53 8.53 348.50 9.20L348.50 9.20L348.50 9.20Q348.46 9.88 348.46 10.71L348.46 10.71L348.46 10.71Q348.46 11.94 348.94 12.45L348.94 12.45L348.94 12.45Q349.41 12.96 350.01 12.96L350.01 12.96L350.01 12.96Q350.91 12.96 351.32 12.59L351.32 12.59L351.32 12.59Q351.72 12.21 351.72 11.26L351.72 11.26L351.69 9.32L351.69 9.32Q351.69 8.62 351.58 8.38L351.58 8.38L351.58 8.38Q351.47 8.13 351.05 8.09L351.05 8.09L351.05 8.09Q350.74 8.06 350.74 7.91L350.74 7.91L350.74 7.91Q350.74 7.59 351.97 7.59L351.97 7.59L351.97 7.59Q352.09 7.59 352.25 7.55L352.25 7.55L352.25 7.55Q352.42 7.52 352.48 7.52L352.48 7.52L352.48 7.52Q352.69 7.52 352.75 7.59L352.75 7.59L352.75 7.59Q352.81 7.66 352.81 7.91L352.81 7.91L352.81 7.91Q352.81 7.92 352.81 8.13L352.81 8.13L352.81 8.13Q352.80 8.33 352.79 8.67L352.79 8.67L352.79 8.67Q352.79 9.00 352.77 9.42L352.77 9.42L352.77 9.42Q352.76 9.84 352.75 10.39L352.75 10.39L352.75 10.39Q352.74 10.95 352.74 11.48L352.74 11.48L352.74 11.48Q352.74 12.33 352.83 12.64L352.83 12.64L352.83 12.64Q352.91 12.95 353.14 12.95L353.14 12.95L353.14 12.95Q353.21 12.95 353.33 12.94L353.33 12.94L353.33 12.94Q353.44 12.94 353.50 12.94L353.50 12.94L353.50 12.94Q353.84 12.94 353.84 13.12L353.84 13.12L353.84 13.12Q353.84 13.27 353.74 13.31L353.74 13.31L353.74 13.31Q353.64 13.36 353.32 13.36L353.32 13.36L353.32 13.36Q353.08 13.36 352.51 13.43L352.51 13.43L352.51 13.43Q351.95 13.51 351.90 13.51L351.90 13.51L351.90 13.51Q351.81 13.51 351.74 13.15L351.74 13.15L351.74 13.15Q351.68 12.80 351.65 12.80L351.65 12.80L351.65 12.80Q351.64 12.80 351.39 13.02L351.39 13.02L351.39 13.02Q351.13 13.24 350.67 13.47L350.67 13.47L350.67 13.47Q350.20 13.69 349.64 13.69L349.64 13.69L349.64 13.69Q347.38 13.69 347.38 11.26L347.38 11.26L347.38 11.26Q347.38 9.90 347.39 9.33L347.39 9.33L347.39 9.33Q347.40 8.76 347.40 8.74L347.40 8.74L347.40 8.74Q347.40 8.46 347.25 8.29L347.25 8.29L347.25 8.29Q347.10 8.12 346.98 8.12L346.98 8.12L346.72 8.12L346.72 8.12Q346.47 8.12 346.47 7.92ZM361.44 8.12L361.44 8.12L361.44 8.12Q361.44 7.97 361.63 7.89L361.63 7.89L361.63 7.89Q361.82 7.81 362.33 7.65L362.33 7.65L362.33 7.65Q362.84 7.49 363.29 7.28L363.29 7.28L363.29 7.28Q363.43 7.22 363.48 7.22L363.48 7.22L363.48 7.22Q363.66 7.22 363.66 7.50L363.66 7.50L363.66 7.50Q363.66 7.56 363.66 7.69L363.66 7.69L363.66 7.69Q363.65 7.81 363.65 7.88L363.65 7.88L363.65 7.88Q363.65 8.18 363.66 8.30L363.66 8.30L363.66 8.30Q363.68 8.43 363.70 8.46L363.70 8.46L363.70 8.46Q363.72 8.48 363.76 8.48L363.76 8.48L363.76 8.48Q363.79 8.48 363.97 8.20L363.97 8.20L363.97 8.20Q364.15 7.92 364.49 7.64L364.49 7.64L364.49 7.64Q364.83 7.35 365.23 7.35L365.23 7.35L365.23 7.35Q365.48 7.35 365.89 7.62L365.89 7.62L365.89 7.62Q366.18 7.81 366.18 8.02L366.18 8.02L366.18 8.02Q366.18 8.27 366.07 8.47L366.07 8.47L366.07 8.47Q365.96 8.67 365.86 8.74L365.86 8.74L365.86 8.74Q365.75 8.81 365.71 8.81L365.71 8.81L365.71 8.81Q365.60 8.81 365.31 8.64L365.31 8.64L365.31 8.64Q365.02 8.47 364.64 8.47L364.64 8.47L364.64 8.47Q364.27 8.47 363.94 8.78L363.94 8.78L363.94 8.78Q363.61 9.09 363.61 9.34L363.61 9.34L363.61 10.79L363.61 10.79Q363.61 11.30 363.62 11.61L363.62 11.61L363.62 11.61Q363.62 11.93 363.62 12.00L363.62 12.00L363.62 12.00Q363.62 12.08 363.63 12.14L363.63 12.14L363.63 12.14Q363.64 12.19 363.64 12.26L363.64 12.26L363.64 12.26Q363.64 12.56 363.83 12.77L363.83 12.77L363.83 12.77Q364.03 12.98 364.29 13.02L364.29 13.02L364.29 13.02Q364.38 13.03 364.50 13.05L364.50 13.05L364.50 13.05Q364.63 13.06 364.70 13.07L364.70 13.07L364.70 13.07Q364.77 13.08 364.85 13.10L364.85 13.10L364.85 13.10Q364.94 13.12 364.97 13.16L364.97 13.16L364.97 13.16Q365.01 13.20 365.01 13.26L365.01 13.26L365.01 13.26Q365.01 13.48 364.84 13.48L364.84 13.48L364.84 13.48Q364.60 13.48 364.20 13.45L364.20 13.45L364.20 13.45Q363.79 13.41 363.65 13.41L363.65 13.41L363.65 13.41Q363.20 13.41 362.73 13.45L362.73 13.45L362.73 13.45Q362.25 13.48 362.19 13.48L362.19 13.48L362.19 13.48Q362.05 13.48 361.98 13.45L361.98 13.45L361.98 13.45Q361.91 13.43 361.90 13.40L361.90 13.40L361.90 13.40Q361.89 13.37 361.89 13.31L361.89 13.31L361.89 13.31Q361.89 13.13 362.07 13.08L362.07 13.08L362.07 13.08Q362.43 12.99 362.51 12.72L362.51 12.72L362.51 12.72Q362.59 12.45 362.59 11.55L362.59 11.55L362.59 11.55Q362.59 10.64 362.58 10.05L362.58 10.05L362.58 10.05Q362.57 9.46 362.57 9.30L362.57 9.30L362.57 9.30Q362.57 9.14 362.57 9.04L362.57 9.04L362.57 9.04Q362.56 8.95 362.56 8.88L362.56 8.88L362.56 8.88Q362.56 8.72 362.52 8.62L362.52 8.62L362.52 8.62Q362.47 8.53 362.31 8.44L362.31 8.44L362.31 8.44Q362.15 8.36 361.86 8.36L361.86 8.36L361.86 8.36Q361.84 8.36 361.79 8.35L361.79 8.35L361.79 8.35Q361.73 8.34 361.70 8.34L361.70 8.34L361.70 8.34Q361.44 8.34 361.44 8.12ZM374.05 12.25L374.05 12.25L374.05 12.25Q374.05 11.75 374.26 11.40L374.26 11.40L374.26 11.40Q374.47 11.06 374.90 10.87L374.90 10.87L374.90 10.87Q375.33 10.68 375.79 10.57L375.79 10.57L375.79 10.57Q376.25 10.46 376.91 10.35L376.91 10.35L376.91 10.35Q376.99 10.33 377.03 10.32L377.03 10.32L377.03 10.32Q377.08 10.32 377.15 10.31L377.15 10.31L377.15 10.31Q377.22 10.30 377.27 10.29L377.27 10.29L377.27 10.29Q377.37 10.28 377.41 10.26L377.41 10.26L377.41 10.26Q377.44 10.25 377.48 10.20L377.48 10.20L377.48 10.20Q377.51 10.15 377.51 10.07L377.51 10.07L377.51 10.07Q377.51 9.93 377.52 9.68L377.52 9.68L377.52 9.68Q377.54 9.44 377.54 9.34L377.54 9.34L377.54 9.34Q377.54 8.54 377.08 8.18L377.08 8.18L377.08 8.18Q376.61 7.83 376.18 7.83L376.18 7.83L376.18 7.83Q375.17 7.83 375.17 8.67L375.17 8.67L375.17 8.67Q375.17 8.78 375.20 8.95L375.20 8.95L375.20 8.95Q375.23 9.11 375.23 9.17L375.23 9.17L375.23 9.17Q375.23 9.45 374.98 9.45L374.98 9.45L374.98 9.45Q374.89 9.45 374.77 9.43L374.77 9.43L374.77 9.43Q374.64 9.41 374.48 9.36L374.48 9.36L374.48 9.36Q374.32 9.31 374.21 9.19L374.21 9.19L374.21 9.19Q374.11 9.07 374.11 8.90L374.11 8.90L374.11 8.90Q374.11 8.36 374.84 7.86L374.84 7.86L374.84 7.86Q375.58 7.36 376.46 7.36L376.46 7.36L376.46 7.36Q377.06 7.36 377.48 7.50L377.48 7.50L377.48 7.50Q377.90 7.64 378.11 7.82L378.11 7.82L378.11 7.82Q378.31 7.99 378.42 8.28L378.42 8.28L378.42 8.28Q378.53 8.57 378.55 8.73L378.55 8.73L378.55 8.73Q378.56 8.89 378.56 9.13L378.56 9.13L378.56 9.13Q378.56 10.14 378.53 10.72L378.53 10.72L378.53 10.72Q378.49 11.30 378.49 11.73L378.49 11.73L378.49 11.73Q378.49 12.25 378.60 12.55L378.60 12.55L378.60 12.55Q378.71 12.85 378.87 12.94L378.87 12.94L378.87 12.94Q379.02 13.02 379.18 13.03L379.18 13.03L379.18 13.03Q379.33 13.05 379.44 13.09L379.44 13.09L379.44 13.09Q379.55 13.13 379.55 13.26L379.55 13.26L379.55 13.26Q379.55 13.55 378.67 13.55L378.67 13.55L378.67 13.55Q378.31 13.55 378.05 13.36L378.05 13.36L378.05 13.36Q377.79 13.16 377.68 12.97L377.68 12.97L377.68 12.97Q377.57 12.78 377.55 12.78L377.55 12.78L377.55 12.78Q377.54 12.78 377.44 12.87L377.44 12.87L377.44 12.87Q377.34 12.96 377.17 13.09L377.17 13.09L377.17 13.09Q376.99 13.22 376.78 13.34L376.78 13.34L376.78 13.34Q376.56 13.47 376.27 13.56L376.27 13.56L376.27 13.56Q375.98 13.65 375.70 13.65L375.70 13.65L375.70 13.65Q374.81 13.65 374.40 13.23L374.40 13.23L374.40 13.23Q374.05 12.88 374.05 12.25ZM375.14 12.04L375.14 12.04L375.14 12.04Q375.14 12.52 375.42 12.80L375.42 12.80L375.42 12.80Q375.70 13.09 376.22 13.09L376.22 13.09L376.22 13.09Q376.59 13.09 376.85 12.98L376.85 12.98L376.85 12.98Q377.10 12.87 377.23 12.73L377.23 12.73L377.23 12.73Q377.36 12.59 377.43 12.36L377.43 12.36L377.43 12.36Q377.50 12.12 377.50 12.00L377.50 12.00L377.50 12.00Q377.51 11.87 377.51 11.66L377.51 11.66L377.51 10.65L377.51 10.65Q377.51 10.53 377.41 10.53L377.41 10.53L377.41 10.53Q377.38 10.53 377.34 10.54L377.34 10.54L377.34 10.54Q377.30 10.56 377.27 10.56L377.27 10.56L377.27 10.56Q376.95 10.61 376.87 10.63L376.87 10.63L376.87 10.63Q376.78 10.64 376.47 10.71L376.47 10.71L376.47 10.71Q376.17 10.78 376.05 10.84L376.05 10.84L376.05 10.84Q375.93 10.89 375.71 11.01L375.71 11.01L375.71 11.01Q375.49 11.13 375.40 11.26L375.40 11.26L375.40 11.26Q375.31 11.40 375.23 11.60L375.23 11.60L375.23 11.60Q375.14 11.80 375.14 12.04ZM387.60 12.84L387.60 12.84L387.60 11.62L387.60 11.62Q387.60 11.47 387.67 11.36L387.67 11.36L387.67 11.36Q387.73 11.26 387.81 11.26L387.81 11.26L387.81 11.26Q387.95 11.26 388.00 11.32L388.00 11.32L388.00 11.32Q388.05 11.38 388.09 11.58L388.09 11.58L388.09 11.58Q388.14 11.77 388.18 11.86L388.18 11.86L388.18 11.86Q388.70 13.15 389.63 13.15L389.63 13.15L389.63 13.15Q390.07 13.15 390.46 12.91L390.46 12.91L390.46 12.91Q390.85 12.68 390.85 12.15L390.85 12.15L390.85 12.15Q390.85 11.69 390.53 11.38L390.53 11.38L390.53 11.38Q390.21 11.07 389.75 10.90L389.75 10.90L389.75 10.90Q389.28 10.72 388.82 10.54L388.82 10.54L388.82 10.54Q388.36 10.35 388.04 9.97L388.04 9.97L388.04 9.97Q387.72 9.60 387.72 9.04L387.72 9.04L387.72 9.04Q387.72 8.26 388.35 7.78L388.35 7.78L388.35 7.78Q388.98 7.31 389.83 7.31L389.83 7.31L389.83 7.31Q390.49 7.31 390.88 7.43L390.88 7.43L390.88 7.43Q391.27 7.55 391.35 7.64L391.35 7.64L391.35 7.64Q391.43 7.74 391.43 7.83L391.43 7.83L391.43 7.83Q391.43 7.84 391.45 8.20L391.45 8.20L391.45 8.20Q391.48 8.57 391.48 8.67L391.48 8.67L391.48 8.67Q391.48 8.90 391.43 8.99L391.43 8.99L391.43 8.99Q391.37 9.07 391.23 9.07L391.23 9.07L391.23 9.07Q391.16 9.07 391.04 8.87L391.04 8.87L391.04 8.87Q390.92 8.67 390.78 8.43L390.78 8.43L390.78 8.43Q390.63 8.19 390.30 7.99L390.30 7.99L390.30 7.99Q389.97 7.78 389.54 7.78L389.54 7.78L389.54 7.78Q389.13 7.78 388.86 7.99L388.86 7.99L388.86 7.99Q388.60 8.19 388.60 8.50L388.60 8.50L388.60 8.50Q388.60 8.67 388.64 8.81L388.64 8.81L388.64 8.81Q388.68 8.96 388.79 9.07L388.79 9.07L388.79 9.07Q388.89 9.18 388.97 9.26L388.97 9.26L388.97 9.26Q389.05 9.34 389.23 9.42L389.23 9.42L389.23 9.42Q389.41 9.51 389.50 9.54L389.50 9.54L389.50 9.54Q389.59 9.58 389.81 9.65L389.81 9.65L389.81 9.65Q390.03 9.73 390.10 9.76L390.10 9.76L390.10 9.76Q391.10 10.14 391.45 10.55L391.45 10.55L391.45 10.55Q391.80 10.96 391.80 11.77L391.80 11.77L391.80 11.77Q391.80 12.56 391.06 13.23L391.06 13.23L391.06 13.23Q390.56 13.66 389.68 13.66L389.68 13.66L389.68 13.66Q389.42 13.66 389.14 13.61L389.14 13.61L389.14 13.61Q388.86 13.55 388.70 13.50L388.70 13.50L388.70 13.50Q388.54 13.45 388.33 13.37L388.33 13.37L388.33 13.37Q388.12 13.29 388.11 13.29L388.11 13.29L388.11 13.29Q388.05 13.27 387.98 13.24L387.98 13.24L387.98 13.24Q387.90 13.22 387.86 13.21L387.86 13.21L387.86 13.21Q387.83 13.20 387.77 13.17L387.77 13.17L387.77 13.17Q387.72 13.15 387.70 13.13L387.70 13.13L387.70 13.13Q387.67 13.10 387.65 13.06L387.65 13.06L387.65 13.06Q387.62 13.02 387.61 12.96L387.61 12.96L387.61 12.96Q387.60 12.91 387.60 12.84Z"></path></g></svg>