<svg data-v-423bf9ae="" xmlns="http://www.w3.org/2000/svg" viewBox="0 0 135.43550720858036 60" class="font"><!----><!----><!----><g data-v-423bf9ae="" id="f434cac1-6d00-4869-bb5b-c5c54d74f5e7" fill="black" transform="matrix(4.051316824013275,0,0,4.051316824013275,-8.062119520280717,-17.86630562204234)"><path d="M1.99 12.43L1.99 12.43L1.99 12.43Q1.99 11.45 2.22 10.51L2.22 10.51L2.22 10.51Q2.45 9.56 2.87 8.71L2.87 8.71L2.87 8.71Q3.29 7.87 3.87 7.16L3.87 7.16L3.87 7.16Q4.45 6.45 5.15 5.94L5.15 5.94L5.15 5.94Q5.84 5.42 6.62 5.13L6.62 5.13L6.62 5.13Q7.41 4.84 8.23 4.84L8.23 4.84L8.23 4.84Q9.20 4.84 9.74 5.25L9.74 5.25L9.74 5.25Q10.28 5.66 10.28 6.38L10.28 6.38L10.28 6.38Q10.28 6.66 10.20 6.96L10.20 6.96L10.20 6.96Q10.12 7.25 9.97 7.54L9.97 7.54L9.97 7.54Q9.83 7.83 9.63 8.09L9.63 8.09L9.63 8.09Q9.44 8.36 9.20 8.55L9.20 8.55L9.20 8.55Q8.83 8.50 8.57 8.22L8.57 8.22L8.57 8.22Q8.30 7.95 8.23 7.59L8.23 7.59L8.23 7.59Q8.72 7.18 9.01 6.74L9.01 6.74L9.01 6.74Q9.30 6.30 9.30 5.94L9.30 5.94L9.30 5.94Q9.30 5.32 8.53 5.32L8.53 5.32L8.53 5.32Q8.20 5.32 7.86 5.45L7.86 5.45L7.86 5.45Q7.52 5.59 7.17 5.82L7.17 5.82L7.17 5.82Q6.82 6.06 6.49 6.40L6.49 6.40L6.49 6.40Q6.16 6.73 5.88 7.14L5.88 7.14L5.88 7.14Q3.93 9.94 3.93 12.87L3.93 12.87L3.93 12.87Q3.93 13.90 4.26 14.53L4.26 14.53L4.26 14.53Q4.58 15.16 5.11 15.27L5.11 15.27L5.11 15.27Q5.71 15.13 6.64 14.50L6.64 14.50L6.64 14.50Q7.56 13.87 8.65 12.87L8.65 12.87L8.65 12.87Q8.79 13.01 8.82 13.16L8.82 13.16L8.82 13.16Q8.41 13.69 7.98 14.18L7.98 14.18L7.98 14.18Q7.55 14.67 7.12 15.08L7.12 15.08L7.12 15.08Q6.69 15.48 6.28 15.79L6.28 15.79L6.28 15.79Q5.87 16.10 5.52 16.27L5.52 16.27L5.52 16.27Q3.78 16.24 2.88 15.27L2.88 15.27L2.88 15.27Q1.99 14.31 1.99 12.43ZM9.74 14.24L9.74 14.24L9.74 14.24Q9.74 14.11 9.77 13.92L9.77 13.92L9.77 13.92Q9.79 13.73 9.84 13.42L9.84 13.42L9.84 13.42Q9.90 13.10 9.99 12.66L9.99 12.66L9.99 12.66Q10.08 12.21 10.22 11.58L10.22 11.58L10.22 11.58Q10.25 11.44 10.35 11.13L10.35 11.13L10.35 11.13Q10.44 10.82 10.61 10.48L10.61 10.48L10.61 10.48Q10.77 10.14 11.00 9.81L11.00 9.81L11.00 9.81Q11.23 9.49 11.55 9.34L11.55 9.34L11.55 9.34Q11.79 9.39 12.18 9.63L12.18 9.63L12.18 9.63Q12.57 9.86 12.85 10.26L12.85 10.26L12.85 10.26Q12.53 10.63 12.31 10.99L12.31 10.99L12.31 10.99Q12.10 11.35 11.92 11.75L11.92 11.75L11.92 11.75Q11.75 12.14 11.60 12.56L11.60 12.56L11.60 12.56Q11.45 12.98 11.27 13.44L11.27 13.44L11.27 13.44Q11.12 13.83 10.99 14.25L10.99 14.25L10.99 14.25Q10.86 14.66 10.85 14.97L10.85 14.97L10.85 14.97Q10.85 15.22 10.84 15.32L10.84 15.32L10.84 15.32Q10.84 15.43 10.77 15.43L10.77 15.43L10.77 15.43Q10.71 15.43 10.54 15.36L10.54 15.36L10.54 15.36Q10.37 15.29 10.20 15.14L10.20 15.14L10.20 15.14Q10.02 14.99 9.88 14.77L9.88 14.77L9.88 14.77Q9.74 14.55 9.74 14.24ZM12.42 8.16L12.42 8.16L12.42 8.16Q12.42 8.08 12.46 7.91L12.46 7.91L12.46 7.91Q12.39 7.84 12.34 7.70L12.34 7.70L12.34 7.70Q12.29 7.56 12.29 7.45L12.29 7.45L12.29 7.45Q12.29 7.32 12.33 7.11L12.33 7.11L12.33 7.11Q12.36 6.89 12.42 6.64L12.42 6.64L12.42 6.64Q12.47 6.38 12.56 6.11L12.56 6.11L12.56 6.11Q12.64 5.84 12.73 5.61L12.73 5.61L12.73 5.61Q12.89 5.61 13.14 5.71L13.14 5.71L13.14 5.71Q13.38 5.80 13.64 5.94L13.64 5.94L13.64 5.94Q13.89 6.09 14.10 6.27L14.10 6.27L14.10 6.27Q14.31 6.44 14.42 6.59L14.42 6.59L14.42 6.59Q14.27 6.75 14.01 7.02L14.01 7.02L14.01 7.02Q13.76 7.29 13.52 7.59L13.52 7.59L13.52 7.59Q13.29 7.90 13.09 8.16L13.09 8.16L13.09 8.16Q12.89 8.43 12.84 8.54L12.84 8.54L12.84 8.54Q12.67 8.51 12.54 8.39L12.54 8.39L12.54 8.39Q12.42 8.27 12.42 8.16ZM13.71 19.22L13.71 19.22L13.71 19.22Q13.36 19.08 13.29 18.69L13.29 18.69L13.29 18.69Q13.23 18.31 12.81 18.07L12.81 18.07L12.81 18.07Q12.92 17.36 13.06 16.63L13.06 16.63L13.06 16.63Q13.20 15.90 13.42 14.97L13.42 14.97L13.42 14.97Q13.64 14.04 13.96 12.80L13.96 12.80L13.96 12.80Q14.29 11.56 14.80 9.80L14.80 9.80L14.80 9.80Q14.34 9.80 14.07 9.81L14.07 9.81L14.07 9.81Q13.80 9.83 13.55 9.87L13.55 9.87L13.55 9.87Q13.50 9.81 13.46 9.72L13.46 9.72L13.46 9.72Q13.43 9.62 13.43 9.53L13.43 9.53L13.43 9.53Q13.57 9.48 14 9.39L14 9.39L14 9.39Q14.43 9.30 14.95 9.23L14.95 9.23L14.95 9.23Q15.29 8.16 15.72 7.32L15.72 7.32L15.72 7.32Q16.16 6.47 16.66 5.87L16.66 5.87L16.66 5.87Q17.16 5.26 17.72 4.94L17.72 4.94L17.72 4.94Q18.28 4.62 18.86 4.62L18.86 4.62L18.86 4.62Q19.03 4.62 19.18 4.64L19.18 4.64L19.18 4.64Q19.33 4.66 19.42 4.66L19.42 4.66L19.42 4.66Q19.54 4.56 19.75 4.49L19.75 4.49L19.75 4.49Q19.96 4.41 20.12 4.41L20.12 4.41L20.12 4.41Q20.29 4.41 20.55 4.59L20.55 4.59L20.55 4.59Q20.44 4.79 20.31 5.12L20.31 5.12L20.31 5.12Q20.19 5.46 20.10 5.78L20.10 5.78L20.10 5.78Q19.75 6.82 19.36 7.13L19.36 7.13L19.36 7.13Q19.21 7.13 19.19 6.72L19.19 6.72L19.19 6.72Q19.18 6.43 19.11 6.15L19.11 6.15L19.11 6.15Q19.05 6.02 19.03 5.92L19.03 5.92L19.03 5.92Q19.01 5.82 19.01 5.67L19.01 5.67L19.01 5.67Q19.01 5.59 19.03 5.47L19.03 5.47L19.03 5.47Q19.04 5.35 19.08 5.07L19.08 5.07L19.08 5.07Q18.84 5.07 18.56 5.36L18.56 5.36L18.56 5.36Q18.27 5.66 17.95 6.20L17.95 6.20L17.95 6.20Q17.64 6.73 17.32 7.48L17.32 7.48L17.32 7.48Q17.00 8.22 16.70 9.11L16.70 9.11L17.88 9.07L17.88 9.07Q17.95 9.14 18.00 9.39L18.00 9.39L18.00 9.39Q18.05 9.63 18.06 9.90L18.06 9.90L16.52 9.81L16.52 9.81Q15.99 11.40 15.53 12.84L15.53 12.84L15.53 12.84Q15.06 14.28 14.70 15.50L14.70 15.50L14.70 15.50Q14.34 16.72 14.08 17.68L14.08 17.68L14.08 17.68Q13.82 18.63 13.71 19.22ZM17.39 14.90L17.39 14.90L17.39 14.90Q17.46 14.49 17.63 13.82L17.63 13.82L17.63 13.82Q17.81 13.16 18.05 12.41L18.05 12.41L18.05 12.41Q18.28 11.66 18.55 10.91L18.55 10.91L18.55 10.91Q18.82 10.15 19.07 9.55L19.07 9.55L19.07 9.55Q19.25 9.11 19.39 8.87L19.39 8.87L19.39 8.87Q19.53 8.62 19.70 8.46L19.70 8.46L19.70 8.46Q19.89 8.48 20.10 8.55L20.10 8.55L20.10 8.55Q20.31 8.62 20.51 8.72L20.51 8.72L20.51 8.72Q20.71 8.82 20.86 8.93L20.86 8.93L20.86 8.93Q21.01 9.03 21.10 9.13L21.10 9.13L21.10 9.13Q20.72 9.58 20.43 10.15L20.43 10.15L20.43 10.15Q20.15 10.72 19.85 11.62L19.85 11.62L19.85 11.62Q20.61 10.95 21.19 10.33L21.19 10.33L21.19 10.33Q21.77 9.72 22.27 8.96L22.27 8.96L22.27 8.96Q22.36 8.89 22.57 8.89L22.57 8.89L22.57 8.89Q22.76 8.89 22.95 8.95L22.95 8.95L22.95 8.95Q23.13 9.02 23.20 9.13L23.20 9.13L23.20 9.13Q22.95 9.80 22.95 10.46L22.95 10.46L22.95 10.46Q22.95 11.07 23.13 11.38L23.13 11.38L23.13 11.38Q23.11 11.47 22.94 11.70L22.94 11.70L22.94 11.70Q22.76 11.94 22.55 12.15L22.55 12.15L22.55 12.15Q22.18 11.96 21.88 11.61L21.88 11.61L21.88 11.61Q21.59 11.27 21.45 10.86L21.45 10.86L21.45 10.86Q20.79 11.33 20.33 11.77L20.33 11.77L20.33 11.77Q19.87 12.21 19.54 12.75L19.54 12.75L19.54 12.75Q19.21 13.29 18.98 13.99L18.98 13.99L18.98 13.99Q18.75 14.69 18.54 15.65L18.54 15.65L18.54 15.65Q18.41 15.64 18.23 15.56L18.23 15.56L18.23 15.56Q18.06 15.48 17.88 15.37L17.88 15.37L17.88 15.37Q17.71 15.26 17.57 15.13L17.57 15.13L17.57 15.13Q17.43 15.01 17.39 14.90ZM28.20 9.52L28.20 9.52L28.20 9.52Q28.34 9.52 28.52 9.57L28.52 9.57L28.52 9.57Q28.71 9.62 28.87 9.70L28.87 9.70L28.87 9.70Q29.02 9.77 29.13 9.86L29.13 9.86L29.13 9.86Q29.23 9.94 29.23 10.01L29.23 10.01L29.23 10.01Q28.95 10.60 28.71 11.19L28.71 11.19L28.71 11.19Q28.48 11.79 28.31 12.33L28.31 12.33L28.31 12.33Q28.14 12.88 28.05 13.36L28.05 13.36L28.05 13.36Q27.96 13.83 27.96 14.18L27.96 14.18L27.96 14.18Q27.96 14.57 28.04 14.83L28.04 14.83L28.04 14.83Q28.13 15.09 28.32 15.20L28.32 15.20L28.32 15.20Q28.15 15.32 27.89 15.39L27.89 15.39L27.89 15.39Q27.62 15.46 27.41 15.46L27.41 15.46L27.41 15.46Q26.66 15.46 26.66 14.42L26.66 14.42L26.66 14.42Q26.66 13.62 27.19 12.24L27.19 12.24L27.19 12.24Q26.91 12.88 26.54 13.45L26.54 13.45L26.54 13.45Q26.18 14.01 25.80 14.45L25.80 14.45L25.80 14.45Q25.42 14.88 25.04 15.15L25.04 15.15L25.04 15.15Q24.65 15.43 24.33 15.48L24.33 15.48L24.33 15.48Q23.81 15.46 23.49 14.99L23.49 14.99L23.49 14.99Q23.17 14.52 23.17 13.79L23.17 13.79L23.17 13.79Q23.17 13.01 23.51 12.14L23.51 12.14L23.51 12.14Q23.84 11.27 24.37 10.53L24.37 10.53L24.37 10.53Q24.89 9.79 25.51 9.29L25.51 9.29L25.51 9.29Q26.12 8.79 26.70 8.76L26.70 8.76L26.70 8.76Q26.84 8.81 27.01 8.93L27.01 8.93L27.01 8.93Q27.19 9.06 27.35 9.23L27.35 9.23L27.35 9.23Q27.51 9.39 27.62 9.57L27.62 9.57L27.62 9.57Q27.73 9.74 27.75 9.87L27.75 9.87L27.75 9.87Q27.19 9.95 26.59 10.42L26.59 10.42L26.59 10.42Q26.00 10.88 25.52 11.53L25.52 11.53L25.52 11.53Q25.03 12.18 24.72 12.92L24.72 12.92L24.72 12.92Q24.42 13.66 24.42 14.31L24.42 14.31L24.42 14.31Q24.42 14.57 24.61 14.64L24.61 14.64L24.61 14.64Q25.02 14.56 25.55 13.95L25.55 13.95L25.55 13.95Q26.08 13.34 26.84 12.07L26.84 12.07L26.84 12.07Q26.98 11.82 27.15 11.51L27.15 11.51L27.15 11.51Q27.33 11.20 27.51 10.86L27.51 10.86L27.51 10.86Q27.69 10.53 27.87 10.18L27.87 10.18L27.87 10.18Q28.04 9.84 28.20 9.52ZM29.61 14.90L29.61 14.90L29.61 14.90Q29.68 14.49 29.86 13.82L29.86 13.82L29.86 13.82Q30.03 13.16 30.27 12.41L30.27 12.41L30.27 12.41Q30.51 11.66 30.77 10.91L30.77 10.91L30.77 10.91Q31.04 10.15 31.29 9.55L31.29 9.55L31.29 9.55Q31.47 9.11 31.61 8.87L31.61 8.87L31.61 8.87Q31.75 8.62 31.92 8.46L31.92 8.46L31.92 8.46Q32.12 8.48 32.33 8.55L32.33 8.55L32.33 8.55Q32.54 8.62 32.73 8.72L32.73 8.72L32.73 8.72Q32.93 8.82 33.08 8.93L33.08 8.93L33.08 8.93Q33.24 9.03 33.32 9.13L33.32 9.13L33.32 9.13Q32.94 9.58 32.66 10.15L32.66 10.15L32.66 10.15Q32.37 10.72 32.07 11.62L32.07 11.62L32.07 11.62Q32.83 10.95 33.41 10.33L33.41 10.33L33.41 10.33Q33.99 9.72 34.50 8.96L34.50 8.96L34.50 8.96Q34.58 8.89 34.79 8.89L34.79 8.89L34.79 8.89Q34.99 8.89 35.17 8.95L35.17 8.95L35.17 8.95Q35.35 9.02 35.42 9.13L35.42 9.13L35.42 9.13Q35.17 9.80 35.17 10.46L35.17 10.46L35.17 10.46Q35.17 11.07 35.35 11.38L35.35 11.38L35.35 11.38Q35.34 11.47 35.16 11.70L35.16 11.70L35.16 11.70Q34.99 11.94 34.78 12.15L34.78 12.15L34.78 12.15Q34.40 11.96 34.10 11.61L34.10 11.61L34.10 11.61Q33.81 11.27 33.67 10.86L33.67 10.86L33.67 10.86Q33.01 11.33 32.55 11.77L32.55 11.77L32.55 11.77Q32.09 12.21 31.76 12.75L31.76 12.75L31.76 12.75Q31.43 13.29 31.20 13.99L31.20 13.99L31.20 13.99Q30.97 14.69 30.76 15.65L30.76 15.65L30.76 15.65Q30.63 15.64 30.46 15.56L30.46 15.56L30.46 15.56Q30.28 15.48 30.11 15.37L30.11 15.37L30.11 15.37Q29.93 15.26 29.79 15.13L29.79 15.13L29.79 15.13Q29.65 15.01 29.61 14.90Z"></path></g><!----><!----></svg>