<svg data-v-423bf9ae="" xmlns="http://www.w3.org/2000/svg" viewBox="0 0 265.44226470934825 60" class="font"><!----><!----><!----><g data-v-423bf9ae="" id="b605710c-be1e-4c61-8af3-a3e0a6ed894d" fill="black" transform="matrix(4.051316824013275,0,0,4.051316824013275,-5.71235845100253,-17.86630562204234)"><path d="M10.54 5.74L10.54 5.74L10.54 5.74Q10.58 5.98 10.61 6.07L10.61 6.07L10.61 6.07Q10.63 6.16 10.63 6.31L10.63 6.31L10.63 6.31Q10.63 6.78 10.42 7.18L10.42 7.18L10.42 7.18Q10.22 7.57 9.87 7.74L9.87 7.74L9.87 7.74Q9.59 7.36 9.18 7.09L9.18 7.09L9.18 7.09Q8.78 6.82 8.29 6.64L8.29 6.64L8.29 6.64Q7.81 6.47 7.29 6.38L7.29 6.38L7.29 6.38Q6.78 6.30 6.29 6.30L6.29 6.30L6.29 6.30Q5.80 6.30 5.37 6.38L5.37 6.38L5.37 6.38Q4.94 6.45 4.61 6.59L4.61 6.59L4.61 6.59Q4.28 6.72 4.09 6.92L4.09 6.92L4.09 6.92Q3.91 7.11 3.91 7.36L3.91 7.36L3.91 7.36Q3.95 7.67 4.28 7.99L4.28 7.99L4.28 7.99Q4.62 8.30 5.11 8.60L5.11 8.60L5.11 8.60Q5.60 8.90 6.20 9.20L6.20 9.20L6.20 9.20Q6.79 9.49 7.36 9.76L7.36 9.76L7.36 9.76Q8.08 10.09 8.60 10.38L8.60 10.38L8.60 10.38Q9.11 10.67 9.45 11.01L9.45 11.01L9.45 11.01Q9.79 11.35 9.95 11.79L9.95 11.79L9.95 11.79Q10.12 12.22 10.12 12.84L10.12 12.84L10.12 12.84Q10.12 13.55 9.88 14.18L9.88 14.18L9.88 14.18Q9.65 14.80 9.19 15.26L9.19 15.26L9.19 15.26Q8.74 15.72 8.09 15.98L8.09 15.98L8.09 15.98Q7.45 16.24 6.65 16.24L6.65 16.24L6.65 16.24Q5.87 16.24 4.96 16.00L4.96 16.00L4.96 16.00Q4.05 15.76 3.25 15.35L3.25 15.35L3.25 15.35Q2.46 14.94 1.94 14.40L1.94 14.40L1.94 14.40Q1.41 13.86 1.41 13.26L1.41 13.26L1.41 13.26Q1.41 12.98 1.57 12.54L1.57 12.54L1.57 12.54Q1.74 12.11 2.16 11.63L2.16 11.63L2.16 11.63Q2.20 12.05 2.61 12.63L2.61 12.63L2.61 12.63Q3.02 13.20 3.85 13.69L3.85 13.69L3.85 13.69Q4.62 14.14 5.44 14.34L5.44 14.34L5.44 14.34Q6.26 14.55 6.97 14.55L6.97 14.55L6.97 14.55Q7.76 14.55 8.25 14.35L8.25 14.35L8.25 14.35Q8.74 14.15 9.02 13.88L9.02 13.88L9.02 13.88Q9.30 13.61 9.41 13.33L9.41 13.33L9.41 13.33Q9.52 13.05 9.53 12.88L9.53 12.88L9.53 12.88Q9.52 12.60 9.28 12.34L9.28 12.34L9.28 12.34Q9.03 12.08 8.62 11.84L8.62 11.84L8.62 11.84Q8.20 11.59 7.66 11.34L7.66 11.34L7.66 11.34Q7.11 11.09 6.52 10.84L6.52 10.84L6.52 10.84Q5.64 10.44 5.00 10.10L5.00 10.10L5.00 10.10Q4.37 9.76 3.96 9.40L3.96 9.40L3.96 9.40Q3.54 9.04 3.35 8.65L3.35 8.65L3.35 8.65Q3.16 8.26 3.16 7.76L3.16 7.76L3.16 7.76Q3.16 6.97 3.64 6.27L3.64 6.27L3.64 6.27Q4.12 5.57 5.01 5.21L5.01 5.21L5.01 5.21Q5.46 5.01 5.97 4.93L5.97 4.93L5.97 4.93Q6.48 4.84 6.97 4.84L6.97 4.84L6.97 4.84Q7.90 4.84 8.78 5.10L8.78 5.10L8.78 5.10Q9.66 5.35 10.54 5.74ZM16.02 9.52L16.02 9.52L16.02 9.52Q16.16 9.52 16.34 9.57L16.34 9.57L16.34 9.57Q16.53 9.62 16.69 9.70L16.69 9.70L16.69 9.70Q16.84 9.77 16.95 9.86L16.95 9.86L16.95 9.86Q17.05 9.94 17.05 10.01L17.05 10.01L17.05 10.01Q16.77 10.60 16.53 11.19L16.53 11.19L16.53 11.19Q16.30 11.79 16.13 12.33L16.13 12.33L16.13 12.33Q15.96 12.88 15.87 13.36L15.87 13.36L15.87 13.36Q15.78 13.83 15.78 14.18L15.78 14.18L15.78 14.18Q15.78 14.57 15.86 14.83L15.86 14.83L15.86 14.83Q15.95 15.09 16.14 15.20L16.14 15.20L16.14 15.20Q15.97 15.32 15.71 15.39L15.71 15.39L15.71 15.39Q15.44 15.46 15.23 15.46L15.23 15.46L15.23 15.46Q14.48 15.46 14.48 14.42L14.48 14.42L14.48 14.42Q14.48 13.62 15.01 12.24L15.01 12.24L15.01 12.24Q14.73 12.88 14.36 13.45L14.36 13.45L14.36 13.45Q14 14.01 13.62 14.45L13.62 14.45L13.62 14.45Q13.24 14.88 12.86 15.15L12.86 15.15L12.86 15.15Q12.47 15.43 12.15 15.48L12.15 15.48L12.15 15.48Q11.63 15.46 11.31 14.99L11.31 14.99L11.31 14.99Q10.99 14.52 10.99 13.79L10.99 13.79L10.99 13.79Q10.99 13.01 11.33 12.14L11.33 12.14L11.33 12.14Q11.66 11.27 12.19 10.53L12.19 10.53L12.19 10.53Q12.71 9.79 13.33 9.29L13.33 9.29L13.33 9.29Q13.94 8.79 14.52 8.76L14.52 8.76L14.52 8.76Q14.66 8.81 14.83 8.93L14.83 8.93L14.83 8.93Q15.01 9.06 15.17 9.23L15.17 9.23L15.17 9.23Q15.33 9.39 15.44 9.57L15.44 9.57L15.44 9.57Q15.55 9.74 15.57 9.87L15.57 9.87L15.57 9.87Q15.01 9.95 14.41 10.42L14.41 10.42L14.41 10.42Q13.82 10.88 13.33 11.53L13.33 11.53L13.33 11.53Q12.85 12.18 12.54 12.92L12.54 12.92L12.54 12.92Q12.24 13.66 12.24 14.31L12.24 14.31L12.24 14.31Q12.24 14.57 12.43 14.64L12.43 14.64L12.43 14.64Q12.84 14.56 13.37 13.95L13.37 13.95L13.37 13.95Q13.90 13.34 14.66 12.07L14.66 12.07L14.66 12.07Q14.80 11.82 14.97 11.51L14.97 11.51L14.97 11.51Q15.15 11.20 15.33 10.86L15.33 10.86L15.33 10.86Q15.51 10.53 15.69 10.18L15.69 10.18L15.69 10.18Q15.86 9.84 16.02 9.52ZM18.33 19.22L18.33 19.22L18.33 19.22Q17.98 19.08 17.91 18.69L17.91 18.69L17.91 18.69Q17.85 18.31 17.43 18.07L17.43 18.07L17.43 18.07Q17.54 17.36 17.68 16.63L17.68 16.63L17.68 16.63Q17.82 15.90 18.04 14.97L18.04 14.97L18.04 14.97Q18.26 14.04 18.59 12.80L18.59 12.80L18.59 12.80Q18.91 11.56 19.42 9.80L19.42 9.80L19.42 9.80Q18.96 9.80 18.69 9.81L18.69 9.81L18.69 9.81Q18.42 9.83 18.17 9.87L18.17 9.87L18.17 9.87Q18.12 9.81 18.08 9.72L18.08 9.72L18.08 9.72Q18.05 9.62 18.05 9.53L18.05 9.53L18.05 9.53Q18.19 9.48 18.62 9.39L18.62 9.39L18.62 9.39Q19.05 9.30 19.57 9.23L19.57 9.23L19.57 9.23Q19.91 8.16 20.34 7.32L20.34 7.32L20.34 7.32Q20.78 6.47 21.28 5.87L21.28 5.87L21.28 5.87Q21.78 5.26 22.34 4.94L22.34 4.94L22.34 4.94Q22.90 4.62 23.48 4.62L23.48 4.62L23.48 4.62Q23.65 4.62 23.80 4.64L23.80 4.64L23.80 4.64Q23.95 4.66 24.04 4.66L24.04 4.66L24.04 4.66Q24.16 4.56 24.37 4.49L24.37 4.49L24.37 4.49Q24.58 4.41 24.74 4.41L24.74 4.41L24.74 4.41Q24.91 4.41 25.17 4.59L25.17 4.59L25.17 4.59Q25.06 4.79 24.93 5.12L24.93 5.12L24.93 5.12Q24.81 5.46 24.72 5.78L24.72 5.78L24.72 5.78Q24.37 6.82 23.98 7.13L23.98 7.13L23.98 7.13Q23.83 7.13 23.81 6.72L23.81 6.72L23.81 6.72Q23.80 6.43 23.73 6.15L23.73 6.15L23.73 6.15Q23.67 6.02 23.65 5.92L23.65 5.92L23.65 5.92Q23.63 5.82 23.63 5.67L23.63 5.67L23.63 5.67Q23.63 5.59 23.65 5.47L23.65 5.47L23.65 5.47Q23.66 5.35 23.70 5.07L23.70 5.07L23.70 5.07Q23.46 5.07 23.18 5.36L23.18 5.36L23.18 5.36Q22.89 5.66 22.57 6.20L22.57 6.20L22.57 6.20Q22.26 6.73 21.94 7.48L21.94 7.48L21.94 7.48Q21.62 8.22 21.32 9.11L21.32 9.11L22.50 9.07L22.50 9.07Q22.57 9.14 22.62 9.39L22.62 9.39L22.62 9.39Q22.67 9.63 22.68 9.90L22.68 9.90L21.14 9.81L21.14 9.81Q20.61 11.40 20.15 12.84L20.15 12.84L20.15 12.84Q19.68 14.28 19.32 15.50L19.32 15.50L19.32 15.50Q18.96 16.72 18.70 17.68L18.70 17.68L18.70 17.68Q18.44 18.63 18.33 19.22ZM27.30 9.38L27.30 9.38L27.30 9.38Q27.24 10.25 26.99 10.87L26.99 10.87L26.99 10.87Q26.74 11.49 26.27 11.96L26.27 11.96L26.27 11.96Q25.80 12.43 25.13 12.81L25.13 12.81L25.13 12.81Q24.46 13.19 23.56 13.54L23.56 13.54L23.56 13.54Q23.56 13.62 23.55 13.71L23.55 13.71L23.55 13.71Q23.55 13.80 23.55 13.90L23.55 13.90L23.55 13.90Q23.55 14.08 23.58 14.28L23.58 14.28L23.58 14.28Q23.60 14.48 23.67 14.64L23.67 14.64L23.67 14.64Q23.74 14.81 23.87 14.92L23.87 14.92L23.87 14.92Q24.00 15.02 24.19 15.02L24.19 15.02L24.19 15.02Q24.57 15.02 24.93 14.85L24.93 14.85L24.93 14.85Q25.30 14.69 25.63 14.44L25.63 14.44L25.63 14.44Q25.96 14.20 26.24 13.91L26.24 13.91L26.24 13.91Q26.53 13.62 26.75 13.38L26.75 13.38L26.75 13.38Q26.89 13.51 26.99 13.62L26.99 13.62L26.99 13.62Q26.36 14.46 25.61 15.02L25.61 15.02L25.61 15.02Q24.86 15.57 24.19 15.72L24.19 15.72L24.19 15.72Q23.23 15.61 22.69 15.02L22.69 15.02L22.69 15.02Q22.15 14.42 22.15 13.58L22.15 13.58L22.15 13.58Q22.15 13.01 22.31 12.41L22.31 12.41L22.31 12.41Q22.47 11.82 22.76 11.26L22.76 11.26L22.76 11.26Q23.04 10.71 23.43 10.22L23.43 10.22L23.43 10.22Q23.81 9.73 24.25 9.37L24.25 9.37L24.25 9.37Q24.70 9.00 25.16 8.79L25.16 8.79L25.16 8.79Q25.63 8.58 26.10 8.58L26.10 8.58L26.10 8.58Q26.74 8.67 27.30 9.38ZM26.33 9.84L26.33 9.84L26.33 9.84Q25.96 9.90 25.55 10.15L25.55 10.15L25.55 10.15Q25.14 10.40 24.79 10.82L24.79 10.82L24.79 10.82Q24.43 11.24 24.14 11.80L24.14 11.80L24.14 11.80Q23.84 12.36 23.67 13.01L23.67 13.01L23.67 13.01Q24.79 12.45 25.54 11.63L25.54 11.63L25.54 11.63Q26.28 10.81 26.33 9.84ZM36.90 7.63L36.90 7.63L36.90 7.63Q36.90 8.40 36.52 9.10L36.52 9.10L36.52 9.10Q36.13 9.80 35.48 10.32L35.48 10.32L35.48 10.32Q34.83 10.85 33.96 11.16L33.96 11.16L33.96 11.16Q33.08 11.47 32.10 11.47L32.10 11.47L32.10 11.47Q31.75 11.47 31.55 11.38L31.55 11.38L31.55 11.38Q31.35 11.28 31.09 11.02L31.09 11.02L31.09 11.02Q30.39 12.54 29.95 13.82L29.95 13.82L29.95 13.82Q29.51 15.11 29.26 16.31L29.26 16.31L29.26 16.31Q28.73 16.18 28.39 15.87L28.39 15.87L28.39 15.87Q28.06 15.55 27.78 15.08L27.78 15.08L27.78 15.08Q27.92 14.81 28.11 14.38L28.11 14.38L28.11 14.38Q28.31 13.94 28.59 13.31L28.59 13.31L28.59 13.31Q28.87 12.67 29.24 11.78L29.24 11.78L29.24 11.78Q29.61 10.89 30.11 9.70L30.11 9.70L30.11 9.70Q30.34 9.16 30.51 8.75L30.51 8.75L30.51 8.75Q30.67 8.34 30.80 7.99L30.80 7.99L30.80 7.99Q30.93 7.63 31.03 7.28L31.03 7.28L31.03 7.28Q31.14 6.93 31.25 6.51L31.25 6.51L31.25 6.51Q30.59 6.72 30.04 7L30.04 7L30.04 7Q29.48 7.28 29.12 7.59L29.12 7.59L29.12 7.59Q28.99 7.50 28.86 7.34L28.86 7.34L28.86 7.34Q28.73 7.17 28.62 6.96L28.62 6.96L28.62 6.96Q28.50 6.76 28.42 6.55L28.42 6.55L28.42 6.55Q28.34 6.34 28.32 6.17L28.32 6.17L28.32 6.17Q28.73 5.89 29.33 5.66L29.33 5.66L29.33 5.66Q29.93 5.42 30.62 5.24L30.62 5.24L30.62 5.24Q31.30 5.07 32.04 4.97L32.04 4.97L32.04 4.97Q32.77 4.87 33.45 4.87L33.45 4.87L33.45 4.87Q34.24 4.87 34.89 5.07L34.89 5.07L34.89 5.07Q35.53 5.28 35.98 5.64L35.98 5.64L35.98 5.64Q36.43 6.01 36.67 6.51L36.67 6.51L36.67 6.51Q36.90 7.01 36.90 7.63ZM34.41 5.95L34.41 5.95L34.41 5.95Q33.88 5.95 33.32 6.03L33.32 6.03L33.49 6.29L33.49 6.29Q33.35 6.47 33.14 6.83L33.14 6.83L33.14 6.83Q32.93 7.20 32.68 7.71L32.68 7.71L32.68 7.71Q32.42 8.22 32.12 8.85L32.12 8.85L32.12 8.85Q31.82 9.48 31.49 10.18L31.49 10.18L31.49 10.18Q32.58 10.18 33.47 9.97L33.47 9.97L33.47 9.97Q34.37 9.77 35.01 9.41L35.01 9.41L35.01 9.41Q35.64 9.06 36.00 8.58L36.00 8.58L36.00 8.58Q36.36 8.11 36.36 7.56L36.36 7.56L36.36 7.56Q36.36 6.83 35.87 6.39L35.87 6.39L35.87 6.39Q35.38 5.95 34.41 5.95ZM40.80 9.52L40.80 9.52L40.80 9.52Q40.94 9.52 41.13 9.57L41.13 9.57L41.13 9.57Q41.31 9.62 41.47 9.70L41.47 9.70L41.47 9.70Q41.62 9.77 41.73 9.86L41.73 9.86L41.73 9.86Q41.83 9.94 41.83 10.01L41.83 10.01L41.83 10.01Q41.55 10.60 41.31 11.19L41.31 11.19L41.31 11.19Q41.08 11.79 40.91 12.33L40.91 12.33L40.91 12.33Q40.74 12.88 40.65 13.36L40.65 13.36L40.65 13.36Q40.56 13.83 40.56 14.18L40.56 14.18L40.56 14.18Q40.56 14.57 40.64 14.83L40.64 14.83L40.64 14.83Q40.73 15.09 40.92 15.20L40.92 15.20L40.92 15.20Q40.75 15.32 40.49 15.39L40.49 15.39L40.49 15.39Q40.22 15.46 40.01 15.46L40.01 15.46L40.01 15.46Q39.26 15.46 39.26 14.42L39.26 14.42L39.26 14.42Q39.26 13.62 39.79 12.24L39.79 12.24L39.79 12.24Q39.51 12.88 39.14 13.45L39.14 13.45L39.14 13.45Q38.78 14.01 38.40 14.45L38.40 14.45L38.40 14.45Q38.02 14.88 37.64 15.15L37.64 15.15L37.64 15.15Q37.25 15.43 36.93 15.48L36.93 15.48L36.93 15.48Q36.41 15.46 36.09 14.99L36.09 14.99L36.09 14.99Q35.77 14.52 35.77 13.79L35.77 13.79L35.77 13.79Q35.77 13.01 36.11 12.14L36.11 12.14L36.11 12.14Q36.44 11.27 36.97 10.53L36.97 10.53L36.97 10.53Q37.49 9.79 38.11 9.29L38.11 9.29L38.11 9.29Q38.72 8.79 39.30 8.76L39.30 8.76L39.30 8.76Q39.44 8.81 39.61 8.93L39.61 8.93L39.61 8.93Q39.79 9.06 39.95 9.23L39.95 9.23L39.95 9.23Q40.11 9.39 40.22 9.57L40.22 9.57L40.22 9.57Q40.33 9.74 40.35 9.87L40.35 9.87L40.35 9.87Q39.79 9.95 39.19 10.42L39.19 10.42L39.19 10.42Q38.60 10.88 38.12 11.53L38.12 11.53L38.12 11.53Q37.63 12.18 37.32 12.92L37.32 12.92L37.32 12.92Q37.02 13.66 37.02 14.31L37.02 14.31L37.02 14.31Q37.02 14.57 37.21 14.64L37.21 14.64L37.21 14.64Q37.62 14.56 38.15 13.95L38.15 13.95L38.15 13.95Q38.68 13.34 39.44 12.07L39.44 12.07L39.44 12.07Q39.58 11.82 39.75 11.51L39.75 11.51L39.75 11.51Q39.93 11.20 40.11 10.86L40.11 10.86L40.11 10.86Q40.29 10.53 40.47 10.18L40.47 10.18L40.47 10.18Q40.64 9.84 40.80 9.52ZM47.38 9.60L47.38 9.60L47.38 9.60Q47.36 9.87 47.29 10.16L47.29 10.16L47.29 10.16Q47.21 10.44 47.10 10.68L47.10 10.68L47.10 10.68Q46.98 10.91 46.86 11.06L46.86 11.06L46.86 11.06Q46.73 11.21 46.62 11.21L46.62 11.21L46.62 11.21Q46.47 11.20 46.44 11.00L46.44 11.00L46.44 11.00Q46.44 10.96 46.47 10.87L46.47 10.87L46.47 10.87Q46.51 10.78 46.55 10.67L46.55 10.67L46.55 10.67Q46.59 10.56 46.63 10.44L46.63 10.44L46.63 10.44Q46.66 10.33 46.66 10.25L46.66 10.25L46.66 10.25Q46.66 10.05 46.57 9.92L46.57 9.92L46.57 9.92Q46.48 9.79 46.33 9.79L46.33 9.79L46.33 9.79Q45.77 9.79 45.47 10.49L45.47 10.49L45.47 10.49Q45.18 11.19 45.18 12.54L45.18 12.54L45.18 12.54Q45.18 12.68 45.19 12.71L45.19 12.71L45.19 12.71Q45.49 12.70 45.72 12.69L45.72 12.69L45.72 12.69Q45.95 12.68 46.17 12.68L46.17 12.68L46.17 12.68Q46.19 12.71 46.19 12.80L46.19 12.80L46.19 12.80Q46.19 12.92 46.13 12.98L46.13 12.98L46.13 12.98Q45.81 13.05 45.62 13.10L45.62 13.10L45.62 13.10Q45.43 13.15 45.33 13.19L45.33 13.19L45.33 13.19Q45.23 13.23 45.21 13.28L45.21 13.28L45.21 13.28Q45.19 13.33 45.19 13.41L45.19 13.41L45.19 13.41Q45.19 13.52 45.20 13.64L45.20 13.64L45.20 13.64Q45.21 13.75 45.21 13.92L45.21 13.92L45.21 13.92Q45.21 15.09 44.57 15.81L44.57 15.81L44.57 15.81Q43.93 16.52 42.80 16.63L42.80 16.63L42.80 16.63Q42.60 16.62 42.39 16.52L42.39 16.52L42.39 16.52Q42.18 16.42 41.99 16.27L41.99 16.27L41.99 16.27Q41.80 16.11 41.66 15.93L41.66 15.93L41.66 15.93Q41.52 15.74 41.47 15.54L41.47 15.54L41.47 15.54Q41.47 15.01 41.69 14.53L41.69 14.53L41.69 14.53Q41.92 14.04 42.30 13.67L42.30 13.67L42.30 13.67Q42.69 13.30 43.21 13.07L43.21 13.07L43.21 13.07Q43.74 12.84 44.35 12.80L44.35 12.80L44.35 12.80Q44.35 12.45 44.28 12.11L44.28 12.11L44.28 12.11Q44.21 11.77 44.14 11.46L44.14 11.46L44.14 11.46Q44.06 11.14 43.99 10.84L43.99 10.84L43.99 10.84Q43.92 10.54 43.92 10.25L43.92 10.25L43.92 10.25Q43.92 9.87 44.07 9.50L44.07 9.50L44.07 9.50Q44.23 9.13 44.48 8.81L44.48 8.81L44.48 8.81Q44.73 8.50 45.07 8.27L45.07 8.27L45.07 8.27Q45.40 8.05 45.77 7.97L45.77 7.97L45.77 7.97Q45.92 8.01 46.18 8.21L46.18 8.21L46.18 8.21Q46.44 8.41 46.69 8.67L46.69 8.67L46.69 8.67Q46.94 8.92 47.14 9.18L47.14 9.18L47.14 9.18Q47.33 9.44 47.38 9.60ZM42.76 15.99L42.76 15.99L42.76 15.99Q43.09 15.85 43.39 15.58L43.39 15.58L43.39 15.58Q43.69 15.32 43.92 14.98L43.92 14.98L43.92 14.98Q44.14 14.64 44.28 14.27L44.28 14.27L44.28 14.27Q44.41 13.89 44.41 13.52L44.41 13.52L44.41 13.52Q44.13 13.57 43.79 13.78L43.79 13.78L43.79 13.78Q43.46 14 43.16 14.30L43.16 14.30L43.16 14.30Q42.87 14.60 42.67 14.92L42.67 14.92L42.67 14.92Q42.48 15.25 42.48 15.48L42.48 15.48L42.48 15.48Q42.48 15.79 42.76 15.99ZM52.22 9.60L52.22 9.60L52.22 9.60Q52.21 9.87 52.13 10.16L52.13 10.16L52.13 10.16Q52.05 10.44 51.94 10.68L51.94 10.68L51.94 10.68Q51.83 10.91 51.70 11.06L51.70 11.06L51.70 11.06Q51.58 11.21 51.46 11.21L51.46 11.21L51.46 11.21Q51.31 11.20 51.28 11.00L51.28 11.00L51.28 11.00Q51.28 10.96 51.32 10.87L51.32 10.87L51.32 10.87Q51.35 10.78 51.39 10.67L51.39 10.67L51.39 10.67Q51.44 10.56 51.47 10.44L51.47 10.44L51.47 10.44Q51.51 10.33 51.51 10.25L51.51 10.25L51.51 10.25Q51.51 10.05 51.42 9.92L51.42 9.92L51.42 9.92Q51.32 9.79 51.17 9.79L51.17 9.79L51.17 9.79Q50.61 9.79 50.32 10.49L50.32 10.49L50.32 10.49Q50.02 11.19 50.02 12.54L50.02 12.54L50.02 12.54Q50.02 12.68 50.04 12.71L50.04 12.71L50.04 12.71Q50.33 12.70 50.56 12.69L50.56 12.69L50.56 12.69Q50.79 12.68 51.02 12.68L51.02 12.68L51.02 12.68Q51.03 12.71 51.03 12.80L51.03 12.80L51.03 12.80Q51.03 12.92 50.97 12.98L50.97 12.98L50.97 12.98Q50.65 13.05 50.46 13.10L50.46 13.10L50.46 13.10Q50.27 13.15 50.18 13.19L50.18 13.19L50.18 13.19Q50.08 13.23 50.06 13.28L50.06 13.28L50.06 13.28Q50.04 13.33 50.04 13.41L50.04 13.41L50.04 13.41Q50.04 13.52 50.04 13.64L50.04 13.64L50.04 13.64Q50.05 13.75 50.05 13.92L50.05 13.92L50.05 13.92Q50.05 15.09 49.41 15.81L49.41 15.81L49.41 15.81Q48.78 16.52 47.64 16.63L47.64 16.63L47.64 16.63Q47.45 16.62 47.24 16.52L47.24 16.52L47.24 16.52Q47.03 16.42 46.84 16.27L46.84 16.27L46.84 16.27Q46.65 16.11 46.51 15.93L46.51 15.93L46.51 15.93Q46.37 15.74 46.31 15.54L46.31 15.54L46.31 15.54Q46.31 15.01 46.54 14.53L46.54 14.53L46.54 14.53Q46.76 14.04 47.15 13.67L47.15 13.67L47.15 13.67Q47.53 13.30 48.06 13.07L48.06 13.07L48.06 13.07Q48.58 12.84 49.20 12.80L49.20 12.80L49.20 12.80Q49.20 12.45 49.13 12.11L49.13 12.11L49.13 12.11Q49.06 11.77 48.98 11.46L48.98 11.46L48.98 11.46Q48.90 11.14 48.83 10.84L48.83 10.84L48.83 10.84Q48.76 10.54 48.76 10.25L48.76 10.25L48.76 10.25Q48.76 9.87 48.92 9.50L48.92 9.50L48.92 9.50Q49.07 9.13 49.32 8.81L49.32 8.81L49.32 8.81Q49.57 8.50 49.91 8.27L49.91 8.27L49.91 8.27Q50.25 8.05 50.61 7.97L50.61 7.97L50.61 7.97Q50.76 8.01 51.02 8.21L51.02 8.21L51.02 8.21Q51.28 8.41 51.53 8.67L51.53 8.67L51.53 8.67Q51.79 8.92 51.98 9.18L51.98 9.18L51.98 9.18Q52.18 9.44 52.22 9.60ZM47.60 15.99L47.60 15.99L47.60 15.99Q47.94 15.85 48.24 15.58L48.24 15.58L48.24 15.58Q48.54 15.32 48.76 14.98L48.76 14.98L48.76 14.98Q48.99 14.64 49.12 14.27L49.12 14.27L49.12 14.27Q49.25 13.89 49.25 13.52L49.25 13.52L49.25 13.52Q48.97 13.57 48.64 13.78L48.64 13.78L48.64 13.78Q48.30 14 48.01 14.30L48.01 14.30L48.01 14.30Q47.71 14.60 47.52 14.92L47.52 14.92L47.52 14.92Q47.32 15.25 47.32 15.48L47.32 15.48L47.32 15.48Q47.32 15.79 47.60 15.99ZM54.08 15.61L54.08 15.61L54.08 15.61Q54.01 15.04 53.98 14.36L53.98 14.36L53.98 14.36Q53.94 13.68 53.94 13.09L53.94 13.09L53.94 13.09Q53.94 12.15 54.01 11.29L54.01 11.29L54.01 11.29Q54.07 10.43 54.16 9.48L54.16 9.48L54.16 9.48Q54.25 8.54 54.36 7.43L54.36 7.43L54.36 7.43Q54.47 6.31 54.56 4.86L54.56 4.86L54.56 4.86Q54.74 4.86 55.08 4.96L55.08 4.96L55.08 4.96Q55.43 5.07 55.78 5.21L55.78 5.21L55.78 5.21Q56.13 5.35 56.39 5.49L56.39 5.49L56.39 5.49Q56.66 5.64 56.70 5.74L56.70 5.74L56.70 5.74Q56.46 6.29 56.27 7.18L56.27 7.18L56.27 7.18Q56.08 8.06 55.96 9.11L55.96 9.11L55.96 9.11Q55.83 10.16 55.76 11.27L55.76 11.27L55.76 11.27Q55.69 12.38 55.69 13.34L55.69 13.34L55.69 13.34Q55.69 13.79 55.71 14.22L55.71 14.22L55.71 14.22Q55.72 14.66 55.75 15.02L55.75 15.02L55.75 15.02Q56.04 14.59 56.43 13.78L56.43 13.78L56.43 13.78Q56.81 12.98 57.23 11.98L57.23 11.98L57.23 11.98Q57.64 10.99 58.05 9.91L58.05 9.91L58.05 9.91Q58.46 8.82 58.81 7.83L58.81 7.83L58.81 7.83Q59.16 6.85 59.41 6.05L59.41 6.05L59.41 6.05Q59.65 5.26 59.75 4.86L59.75 4.86L59.75 4.86Q59.93 4.86 60.29 4.96L60.29 4.96L60.29 4.96Q60.65 5.07 60.99 5.21L60.99 5.21L60.99 5.21Q61.33 5.35 61.60 5.49L61.60 5.49L61.60 5.49Q61.87 5.64 61.89 5.74L61.89 5.74L61.89 5.74Q61.66 6.29 61.47 7.18L61.47 7.18L61.47 7.18Q61.28 8.06 61.15 9.11L61.15 9.11L61.15 9.11Q61.03 10.16 60.96 11.27L60.96 11.27L60.96 11.27Q60.89 12.38 60.89 13.34L60.89 13.34L60.89 13.34Q60.89 13.75 60.89 14.15L60.89 14.15L60.89 14.15Q60.90 14.55 60.93 14.87L60.93 14.87L60.93 14.87Q61.38 13.71 61.86 12.56L61.86 12.56L61.86 12.56Q62.34 11.42 62.82 10.38L62.82 10.38L62.82 10.38Q63.29 9.34 63.74 8.43L63.74 8.43L63.74 8.43Q64.19 7.53 64.57 6.82L64.57 6.82L64.57 6.82Q64.95 6.12 65.23 5.66L65.23 5.66L65.23 5.66Q65.51 5.19 65.66 5.04L65.66 5.04L65.66 5.04Q65.98 5.08 66.33 5.27L66.33 5.27L66.33 5.27Q66.67 5.46 66.93 5.75L66.93 5.75L66.93 5.75Q66.53 6.08 66.01 6.81L66.01 6.81L66.01 6.81Q65.49 7.55 64.95 8.51L64.95 8.51L64.95 8.51Q64.40 9.48 63.85 10.57L63.85 10.57L63.85 10.57Q63.29 11.66 62.82 12.70L62.82 12.70L62.82 12.70Q62.34 13.73 61.97 14.63L61.97 14.63L61.97 14.63Q61.60 15.53 61.40 16.07L61.40 16.07L61.40 16.07Q61.04 16.24 60.69 16.24L60.69 16.24L60.69 16.24Q60.24 16.18 59.84 16.02L59.84 16.02L59.84 16.02Q59.44 15.85 59.28 15.61L59.28 15.61L59.28 15.61Q59.23 15.39 59.21 15.09L59.21 15.09L59.21 15.09Q59.18 14.78 59.16 14.49L59.16 14.49L59.16 14.49Q59.15 14.20 59.14 13.92L59.14 13.92L59.14 13.92Q59.14 13.65 59.14 13.45L59.14 13.45L59.14 13.45Q59.14 12.21 59.23 10.91L59.23 10.91L59.23 10.91Q59.33 9.62 59.47 8.13L59.47 8.13L59.47 8.13Q59.15 9.09 58.76 10.18L58.76 10.18L58.76 10.18Q58.37 11.27 57.94 12.34L57.94 12.34L57.94 12.34Q57.51 13.41 57.07 14.38L57.07 14.38L57.07 14.38Q56.63 15.36 56.21 16.07L56.21 16.07L56.21 16.07Q55.85 16.24 55.50 16.24L55.50 16.24L55.50 16.24Q55.05 16.18 54.65 16.02L54.65 16.02L54.65 16.02Q54.25 15.85 54.08 15.61Z"></path></g><!----><!----></svg>